<ttFont>
    <TTGlyph name=".notdef" xMin="50" yMin="0" xMax="700" yMax="700">
      <contour>
        <pt x="50" y="700" on="1"/>
        <pt x="700" y="700" on="1"/>
        <pt x="700" y="0" on="1"/>
        <pt x="50" y="0" on="1"/>
      </contour>
      <contour>
        <pt x="570" y="650" on="1"/>
        <pt x="375" y="433" on="1"/>
        <pt x="180" y="650" on="1"/>
        <pt x="130" y="600" on="1"/>
        <pt x="327" y="380" on="1"/>
        <pt x="130" y="160" on="1"/>
        <pt x="180" y="110" on="1"/>
        <pt x="375" y="327" on="1"/>
        <pt x="570" y="110" on="1"/>
        <pt x="620" y="160" on="1"/>
        <pt x="422" y="380" on="1"/>
        <pt x="620" y="600" on="1"/>
      </contour>
      <contour>
        <pt x="162" y="68" on="1"/>
        <pt x="127" y="68" on="1"/>
        <pt x="127" y="61" on="1"/>
        <pt x="140" y="61" on="1"/>
        <pt x="140" y="26" on="1"/>
        <pt x="149" y="26" on="1"/>
        <pt x="149" y="61" on="1"/>
        <pt x="162" y="61" on="1"/>
      </contour>
      <contour>
        <pt x="271" y="58" on="1"/>
        <pt x="269" y="58" on="1"/>
        <pt x="268" y="58" on="0"/>
        <pt x="267" y="59" on="1"/>
        <pt x="263" y="59" on="0"/>
        <pt x="258" y="54" on="1"/>
        <pt x="258" y="58" on="1"/>
        <pt x="251" y="58" on="1"/>
        <pt x="251" y="26" on="1"/>
        <pt x="259" y="26" on="1"/>
        <pt x="259" y="46" on="1"/>
        <pt x="262" y="51" on="0"/>
        <pt x="266" y="51" on="1"/>
        <pt x="268" y="51" on="0"/>
        <pt x="270" y="50" on="1"/>
      </contour>
      <contour>
        <pt x="276" y="65" on="1"/>
        <pt x="276" y="60" on="0"/>
        <pt x="280" y="60" on="1"/>
        <pt x="285" y="60" on="0"/>
        <pt x="285" y="64" on="1"/>
        <pt x="285" y="69" on="0"/>
        <pt x="280" y="69" on="1"/>
        <pt x="276" y="69" on="0"/>
      </contour>
      <contour>
        <pt x="276" y="26" on="1"/>
        <pt x="285" y="26" on="1"/>
        <pt x="285" y="58" on="1"/>
        <pt x="276" y="58" on="1"/>
      </contour>
      <contour>
        <pt x="291" y="51" on="1"/>
        <pt x="296" y="51" on="1"/>
        <pt x="296" y="26" on="1"/>
        <pt x="304" y="26" on="1"/>
        <pt x="304" y="51" on="1"/>
        <pt x="312" y="51" on="1"/>
        <pt x="312" y="58" on="1"/>
        <pt x="304" y="58" on="1"/>
        <pt x="304" y="60" on="0"/>
        <pt x="305" y="61" on="1"/>
        <pt x="306" y="62" on="0"/>
        <pt x="308" y="62" on="1"/>
        <pt x="311" y="62" on="1"/>
        <pt x="314" y="62" on="1"/>
        <pt x="315" y="68" on="1"/>
        <pt x="315" y="69" on="0"/>
        <pt x="311" y="69" on="1"/>
        <pt x="306" y="69" on="1"/>
        <pt x="302" y="69" on="1"/>
        <pt x="301" y="69" on="0"/>
        <pt x="297" y="66" on="0"/>
        <pt x="297" y="65" on="1"/>
        <pt x="296" y="63" on="0"/>
        <pt x="296" y="60" on="1"/>
        <pt x="296" y="58" on="1"/>
        <pt x="291" y="58" on="1"/>
      </contour>
      <contour>
        <pt x="331" y="45" on="1"/>
        <pt x="331" y="20" on="0"/>
        <pt x="354" y="20" on="1"/>
        <pt x="365" y="20" on="0"/>
        <pt x="378" y="32" on="0"/>
        <pt x="378" y="45" on="1"/>
        <pt x="378" y="68" on="0"/>
        <pt x="354" y="68" on="1"/>
        <pt x="344" y="68" on="0"/>
        <pt x="331" y="56" on="0"/>
      </contour>
      <contour>
        <pt x="338" y="45" on="1"/>
        <pt x="338" y="62" on="0"/>
        <pt x="354" y="62" on="1"/>
        <pt x="371" y="62" on="0"/>
        <pt x="371" y="45" on="1"/>
        <pt x="371" y="27" on="0"/>
        <pt x="354" y="27" on="1"/>
        <pt x="338" y="27" on="0"/>
      </contour>
      <contour>
        <pt x="361" y="40" on="1"/>
        <pt x="359" y="39" on="0"/>
        <pt x="357" y="39" on="1"/>
        <pt x="352" y="39" on="0"/>
        <pt x="352" y="45" on="1"/>
        <pt x="352" y="49" on="0"/>
        <pt x="357" y="49" on="1"/>
        <pt x="360" y="49" on="1"/>
        <pt x="363" y="54" on="1"/>
        <pt x="359" y="56" on="0"/>
        <pt x="354" y="56" on="1"/>
        <pt x="344" y="56" on="0"/>
        <pt x="344" y="45" on="1"/>
        <pt x="344" y="32" on="0"/>
        <pt x="354" y="32" on="1"/>
        <pt x="359" y="32" on="0"/>
        <pt x="363" y="34" on="1"/>
      </contour>
      <contour>
        <pt x="402" y="27" on="1"/>
        <pt x="411" y="27" on="1"/>
        <pt x="411" y="41" on="1"/>
        <pt x="416" y="41" on="1"/>
        <pt x="423" y="41" on="0"/>
        <pt x="434" y="47" on="0"/>
        <pt x="434" y="55" on="1"/>
        <pt x="434" y="65" on="0"/>
        <pt x="422" y="69" on="0"/>
        <pt x="415" y="69" on="1"/>
        <pt x="402" y="69" on="1"/>
      </contour>
      <contour>
        <pt x="416" y="62" on="1"/>
        <pt x="425" y="62" on="0"/>
        <pt x="425" y="56" on="1"/>
        <pt x="425" y="50" on="0"/>
        <pt x="420" y="49" on="0"/>
        <pt x="415" y="49" on="1"/>
        <pt x="411" y="49" on="1"/>
        <pt x="411" y="62" on="1"/>
      </contour>
      <contour>
        <pt x="440" y="51" on="1"/>
        <pt x="443" y="52" on="0"/>
        <pt x="448" y="53" on="0"/>
        <pt x="451" y="53" on="1"/>
        <pt x="456" y="53" on="0"/>
        <pt x="456" y="48" on="1"/>
        <pt x="456" y="46" on="1"/>
        <pt x="455" y="46" on="0"/>
        <pt x="453" y="47" on="0"/>
        <pt x="451" y="47" on="1"/>
        <pt x="436" y="47" on="0"/>
        <pt x="436" y="35" on="1"/>
        <pt x="436" y="26" on="0"/>
        <pt x="446" y="26" on="1"/>
        <pt x="453" y="26" on="0"/>
        <pt x="456" y="32" on="1"/>
        <pt x="459" y="27" on="1"/>
        <pt x="466" y="27" on="1"/>
        <pt x="465" y="28" on="0"/>
        <pt x="465" y="35" on="1"/>
        <pt x="465" y="48" on="1"/>
        <pt x="465" y="60" on="0"/>
        <pt x="453" y="60" on="1"/>
        <pt x="448" y="60" on="0"/>
        <pt x="440" y="57" on="0"/>
        <pt x="438" y="56" on="1"/>
      </contour>
      <contour>
        <pt x="450" y="33" on="1"/>
        <pt x="445" y="33" on="0"/>
        <pt x="445" y="38" on="1"/>
        <pt x="445" y="42" on="0"/>
        <pt x="451" y="42" on="1"/>
        <pt x="453" y="42" on="0"/>
        <pt x="455" y="41" on="0"/>
        <pt x="456" y="41" on="1"/>
        <pt x="456" y="38" on="1"/>
        <pt x="455" y="33" on="0"/>
      </contour>
      <contour>
        <pt x="494" y="59" on="1"/>
        <pt x="492" y="60" on="0"/>
        <pt x="489" y="60" on="1"/>
        <pt x="484" y="60" on="0"/>
        <pt x="482" y="54" on="1"/>
        <pt x="481" y="54" on="1"/>
        <pt x="480" y="59" on="1"/>
        <pt x="473" y="59" on="1"/>
        <pt x="473" y="27" on="1"/>
        <pt x="482" y="27" on="1"/>
        <pt x="482" y="47" on="1"/>
        <pt x="482" y="52" on="0"/>
        <pt x="489" y="52" on="1"/>
        <pt x="490" y="52" on="0"/>
        <pt x="490" y="51" on="0"/>
        <pt x="491" y="51" on="1"/>
        <pt x="492" y="51" on="1"/>
      </contour>
      <contour>
        <pt x="499" y="51" on="1"/>
        <pt x="509" y="53" on="0"/>
        <pt x="510" y="53" on="1"/>
        <pt x="516" y="53" on="0"/>
        <pt x="516" y="48" on="1"/>
        <pt x="516" y="46" on="1"/>
        <pt x="514" y="46" on="0"/>
        <pt x="512" y="47" on="0"/>
        <pt x="510" y="47" on="1"/>
        <pt x="495" y="47" on="0"/>
        <pt x="495" y="35" on="1"/>
        <pt x="495" y="26" on="0"/>
        <pt x="505" y="26" on="1"/>
        <pt x="513" y="26" on="0"/>
        <pt x="516" y="32" on="1"/>
        <pt x="517" y="32" on="1"/>
        <pt x="518" y="27" on="1"/>
        <pt x="525" y="27" on="1"/>
        <pt x="524" y="28" on="0"/>
        <pt x="524" y="35" on="1"/>
        <pt x="524" y="48" on="1"/>
        <pt x="524" y="60" on="0"/>
        <pt x="512" y="60" on="1"/>
        <pt x="507" y="60" on="0"/>
        <pt x="501" y="57" on="0"/>
        <pt x="498" y="56" on="1"/>
      </contour>
      <contour>
        <pt x="509" y="33" on="1"/>
        <pt x="504" y="33" on="0"/>
        <pt x="504" y="38" on="1"/>
        <pt x="504" y="42" on="0"/>
        <pt x="510" y="42" on="1"/>
        <pt x="512" y="42" on="0"/>
        <pt x="514" y="41" on="0"/>
        <pt x="516" y="41" on="1"/>
        <pt x="516" y="38" on="1"/>
        <pt x="513" y="33" on="0"/>
      </contour>
      <contour>
        <pt x="557" y="69" on="1"/>
        <pt x="521" y="69" on="1"/>
        <pt x="521" y="62" on="1"/>
        <pt x="535" y="62" on="1"/>
        <pt x="535" y="27" on="1"/>
        <pt x="543" y="27" on="1"/>
        <pt x="543" y="62" on="1"/>
        <pt x="557" y="62" on="1"/>
      </contour>
      <contour>
        <pt x="567" y="59" on="1"/>
        <pt x="557" y="59" on="1"/>
        <pt x="571" y="27" on="1"/>
        <pt x="569" y="22" on="0"/>
        <pt x="566" y="22" on="1"/>
        <pt x="564" y="23" on="1"/>
        <pt x="562" y="16" on="1"/>
        <pt x="563" y="15" on="0"/>
        <pt x="568" y="15" on="1"/>
        <pt x="575" y="15" on="0"/>
        <pt x="579" y="30" on="1"/>
        <pt x="591" y="59" on="1"/>
        <pt x="582" y="59" on="1"/>
        <pt x="576" y="41" on="1"/>
        <pt x="576" y="35" on="1"/>
        <pt x="575" y="35" on="1"/>
        <pt x="574" y="41" on="1"/>
      </contour>
      <contour>
        <pt x="595" y="15" on="1"/>
        <pt x="604" y="15" on="1"/>
        <pt x="604" y="28" on="1"/>
        <pt x="606" y="26" on="0"/>
        <pt x="610" y="26" on="1"/>
        <pt x="626" y="26" on="0"/>
        <pt x="626" y="44" on="1"/>
        <pt x="626" y="60" on="0"/>
        <pt x="613" y="60" on="1"/>
        <pt x="607" y="60" on="0"/>
        <pt x="603" y="55" on="1"/>
        <pt x="601" y="55" on="1"/>
        <pt x="600" y="59" on="1"/>
        <pt x="595" y="59" on="1"/>
      </contour>
      <contour>
        <pt x="611" y="53" on="1"/>
        <pt x="617" y="53" on="0"/>
        <pt x="617" y="44" on="1"/>
        <pt x="617" y="33" on="0"/>
        <pt x="608" y="33" on="1"/>
        <pt x="606" y="33" on="0"/>
        <pt x="604" y="35" on="1"/>
        <pt x="604" y="47" on="1"/>
        <pt x="604" y="53" on="0"/>
      </contour>
      <contour>
        <pt x="656" y="35" on="1"/>
        <pt x="654" y="33" on="0"/>
        <pt x="648" y="33" on="1"/>
        <pt x="640" y="33" on="0"/>
        <pt x="640" y="40" on="1"/>
        <pt x="661" y="40" on="1"/>
        <pt x="661" y="47" on="1"/>
        <pt x="661" y="60" on="0"/>
        <pt x="647" y="60" on="1"/>
        <pt x="631" y="60" on="0"/>
        <pt x="631" y="42" on="1"/>
        <pt x="631" y="26" on="0"/>
        <pt x="647" y="26" on="1"/>
        <pt x="655" y="26" on="0"/>
        <pt x="659" y="30" on="1"/>
      </contour>
      <contour>
        <pt x="647" y="53" on="1"/>
        <pt x="654" y="53" on="0"/>
        <pt x="653" y="46" on="1"/>
        <pt x="640" y="46" on="1"/>
        <pt x="640" y="53" on="0"/>
      </contour>
      <contour>
        <pt x="92" y="27" on="1"/>
        <pt x="101" y="27" on="1"/>
        <pt x="101" y="41" on="1"/>
        <pt x="106" y="41" on="1"/>
        <pt x="113" y="41" on="0"/>
        <pt x="124" y="47" on="0"/>
        <pt x="124" y="55" on="1"/>
        <pt x="124" y="65" on="0"/>
        <pt x="112" y="69" on="0"/>
        <pt x="105" y="69" on="1"/>
        <pt x="92" y="69" on="1"/>
      </contour>
      <contour>
        <pt x="106" y="62" on="1"/>
        <pt x="115" y="62" on="0"/>
        <pt x="115" y="56" on="1"/>
        <pt x="115" y="50" on="0"/>
        <pt x="110" y="49" on="0"/>
        <pt x="105" y="49" on="1"/>
        <pt x="101" y="49" on="1"/>
        <pt x="101" y="62" on="1"/>
      </contour>
      <contour>
        <pt x="200" y="38" on="1"/>
        <pt x="200" y="33" on="0"/>
        <pt x="192" y="33" on="1"/>
        <pt x="189" y="33" on="0"/>
        <pt x="185" y="34" on="0"/>
        <pt x="181" y="36" on="1"/>
        <pt x="178" y="27" on="1"/>
        <pt x="182" y="26" on="0"/>
        <pt x="188" y="25" on="0"/>
        <pt x="193" y="25" on="1"/>
        <pt x="209" y="25" on="0"/>
        <pt x="209" y="39" on="1"/>
        <pt x="209" y="44" on="0"/>
        <pt x="202" y="49" on="0"/>
        <pt x="195" y="52" on="0"/>
        <pt x="188" y="55" on="0"/>
        <pt x="188" y="58" on="1"/>
        <pt x="188" y="61" on="0"/>
        <pt x="195" y="61" on="1"/>
        <pt x="198" y="61" on="0"/>
        <pt x="203" y="60" on="0"/>
        <pt x="206" y="59" on="1"/>
        <pt x="208" y="67" on="1"/>
        <pt x="204" y="68" on="0"/>
        <pt x="198" y="69" on="0"/>
        <pt x="195" y="69" on="1"/>
        <pt x="179" y="69" on="0"/>
        <pt x="179" y="56" on="1"/>
        <pt x="179" y="51" on="0"/>
        <pt x="186" y="46" on="0"/>
        <pt x="193" y="43" on="0"/>
        <pt x="200" y="40" on="0"/>
      </contour>
      <contour>
        <pt x="239" y="34" on="1"/>
        <pt x="237" y="32" on="0"/>
        <pt x="231" y="32" on="1"/>
        <pt x="223" y="32" on="0"/>
        <pt x="223" y="39" on="1"/>
        <pt x="244" y="39" on="1"/>
        <pt x="244" y="46" on="1"/>
        <pt x="244" y="59" on="0"/>
        <pt x="230" y="59" on="1"/>
        <pt x="214" y="59" on="0"/>
        <pt x="214" y="41" on="1"/>
        <pt x="214" y="25" on="0"/>
        <pt x="230" y="25" on="1"/>
        <pt x="238" y="25" on="0"/>
        <pt x="242" y="29" on="1"/>
      </contour>
      <contour>
        <pt x="230" y="52" on="1"/>
        <pt x="237" y="52" on="0"/>
        <pt x="236" y="45" on="1"/>
        <pt x="223" y="45" on="1"/>
        <pt x="223" y="52" on="0"/>
      </contour>
    </TTGlyph>
    <TTGlyph name="A" xMin="0" yMin="0" xMax="755" yMax="700">
      <contour>
        <pt x="245" y="0" on="1"/>
        <pt x="0" y="0" on="1"/>
        <pt x="0" y="56" on="1"/>
        <pt x="78" y="56" on="1"/>
        <pt x="337" y="700" on="1"/>
        <pt x="443" y="700" on="1"/>
        <pt x="680" y="56" on="1"/>
        <pt x="755" y="56" on="1"/>
        <pt x="755" y="0" on="1"/>
        <pt x="469" y="0" on="1"/>
        <pt x="469" y="56" on="1"/>
        <pt x="558" y="56" on="1"/>
        <pt x="493" y="232" on="1"/>
        <pt x="227" y="232" on="1"/>
        <pt x="159" y="56" on="1"/>
        <pt x="245" y="56" on="1"/>
      </contour>
      <contour>
        <pt x="250" y="288" on="1"/>
        <pt x="476" y="288" on="1"/>
        <pt x="394" y="519" on="1"/>
        <pt x="369" y="625" on="1"/>
        <pt x="365" y="625" on="1"/>
        <pt x="336" y="517" on="1"/>
      </contour>
    </TTGlyph>
    <TTGlyph name="AE" xMin="0" yMin="0" xMax="963" yMax="700">
      <component glyphName="uni04D4" x="0" y="0" flags="0x204"/>
    </TTGlyph>
    <TTGlyph name="Aacute" xMin="0" yMin="0" xMax="755" yMax="914">
      <component glyphName="A" x="0" y="0" flags="0x204"/>
      <component glyphName="uniF6C9" x="279" y="0" flags="0x4"/>
    </TTGlyph>
    <TTGlyph name="Abreve" xMin="0" yMin="0" xMax="755" yMax="907">
      <component glyphName="A" x="0" y="0" flags="0x204"/>
      <component glyphName="uniF406" x="155" y="0" flags="0x4"/>
    </TTGlyph>
    <TTGlyph name="Acircumflex" xMin="0" yMin="0" xMax="755" yMax="914">
      <component glyphName="A" x="0" y="0" flags="0x204"/>
      <component glyphName="uniF408" x="168" y="0" flags="0x4"/>
    </TTGlyph>
    <TTGlyph name="Adieresis" xMin="0" yMin="0" xMax="755" yMax="854">
      <component glyphName="A" x="0" y="0" flags="0x204"/>
      <component glyphName="uniF6CB" x="134" y="0" flags="0x4"/>
    </TTGlyph>
    <TTGlyph name="Agrave" xMin="0" yMin="0" xMax="755" yMax="914">
      <component glyphName="A" x="0" y="0" flags="0x204"/>
      <component glyphName="uniF6CE" x="104" y="0" flags="0x4"/>
    </TTGlyph>
    <TTGlyph name="Amacron" xMin="0" yMin="0" xMax="755" yMax="851">
      <component glyphName="A" x="0" y="0" flags="0x204"/>
      <component glyphName="uniF6D0" x="154" y="0" flags="0x4"/>
    </TTGlyph>
    <TTGlyph name="Aogonek" xMin="0" yMin="-211" xMax="755" yMax="700">
      <contour>
        <pt x="245" y="0" on="1"/>
        <pt x="0" y="0" on="1"/>
        <pt x="0" y="56" on="1"/>
        <pt x="78" y="56" on="1"/>
        <pt x="337" y="700" on="1"/>
        <pt x="443" y="700" on="1"/>
        <pt x="680" y="56" on="1"/>
        <pt x="755" y="56" on="1"/>
        <pt x="755" y="0" on="1"/>
        <pt x="699" y="0" on="1"/>
        <pt x="653" y="-19" on="0"/>
        <pt x="600" y="-68" on="0"/>
        <pt x="600" y="-110" on="1"/>
        <pt x="600" y="-137" on="0"/>
        <pt x="640" y="-158" on="0"/>
        <pt x="673" y="-158" on="1"/>
        <pt x="707" y="-158" on="0"/>
        <pt x="736" y="-152" on="1"/>
        <pt x="736" y="-183" on="1"/>
        <pt x="720" y="-194" on="0"/>
        <pt x="670" y="-211" on="0"/>
        <pt x="633" y="-211" on="1"/>
        <pt x="607" y="-211" on="0"/>
        <pt x="560" y="-201" on="0"/>
        <pt x="525" y="-181" on="0"/>
        <pt x="504" y="-150" on="0"/>
        <pt x="504" y="-128" on="1"/>
        <pt x="504" y="-82" on="0"/>
        <pt x="573" y="-19" on="0"/>
        <pt x="624" y="0" on="1"/>
        <pt x="469" y="0" on="1"/>
        <pt x="469" y="56" on="1"/>
        <pt x="558" y="56" on="1"/>
        <pt x="493" y="232" on="1"/>
        <pt x="227" y="232" on="1"/>
        <pt x="159" y="56" on="1"/>
        <pt x="245" y="56" on="1"/>
      </contour>
      <contour>
        <pt x="250" y="288" on="1"/>
        <pt x="476" y="288" on="1"/>
        <pt x="394" y="519" on="1"/>
        <pt x="369" y="625" on="1"/>
        <pt x="365" y="625" on="1"/>
        <pt x="336" y="517" on="1"/>
      </contour>
    </TTGlyph>
    <TTGlyph name="Aring" xMin="0" yMin="0" xMax="755" yMax="874">
      <component glyphName="A" x="0" y="0" flags="0x204"/>
      <component glyphName="uniF40C" x="199" y="0" flags="0x4"/>
    </TTGlyph>
    <TTGlyph name="Atilde" xMin="0" yMin="0" xMax="755" yMax="894">
      <component glyphName="A" x="0" y="0" flags="0x204"/>
      <component glyphName="uniF40D" x="146" y="0" flags="0x4"/>
    </TTGlyph>
    <TTGlyph name="B" xMin="32" yMin="-6" xMax="635" yMax="706">
      <contour>
        <pt x="32" y="0" on="1"/>
        <pt x="32" y="56" on="1"/>
        <pt x="123" y="56" on="1"/>
        <pt x="123" y="644" on="1"/>
        <pt x="32" y="644" on="1"/>
        <pt x="32" y="700" on="1"/>
        <pt x="163" y="700" on="1"/>
        <pt x="184" y="700" on="0"/>
        <pt x="222" y="702" on="0"/>
        <pt x="264" y="704" on="0"/>
        <pt x="313" y="706" on="0"/>
        <pt x="343" y="706" on="1"/>
        <pt x="387" y="706" on="0"/>
        <pt x="479" y="693" on="0"/>
        <pt x="553" y="657" on="0"/>
        <pt x="600" y="592" on="0"/>
        <pt x="600" y="540" on="1"/>
        <pt x="600" y="513" on="0"/>
        <pt x="581" y="461" on="0"/>
        <pt x="544" y="417" on="0"/>
        <pt x="488" y="383" on="0"/>
        <pt x="451" y="375" on="1"/>
        <pt x="451" y="371" on="1"/>
        <pt x="484" y="366" on="0"/>
        <pt x="550" y="342" on="0"/>
        <pt x="603" y="301" on="0"/>
        <pt x="635" y="241" on="0"/>
        <pt x="635" y="199" on="1"/>
        <pt x="635" y="145" on="0"/>
        <pt x="582" y="67" on="0"/>
        <pt x="496" y="17" on="0"/>
        <pt x="387" y="-6" on="0"/>
        <pt x="331" y="-6" on="1"/>
        <pt x="292" y="-6" on="0"/>
        <pt x="195" y="0" on="0"/>
        <pt x="150" y="0" on="1"/>
      </contour>
      <contour>
        <pt x="339" y="50" on="1"/>
        <pt x="378" y="50" on="0"/>
        <pt x="445" y="71" on="0"/>
        <pt x="493" y="109" on="0"/>
        <pt x="520" y="162" on="0"/>
        <pt x="520" y="194" on="1"/>
        <pt x="520" y="234" on="0"/>
        <pt x="487" y="287" on="0"/>
        <pt x="432" y="318" on="0"/>
        <pt x="358" y="330" on="0"/>
        <pt x="317" y="330" on="1"/>
        <pt x="235" y="330" on="1"/>
        <pt x="235" y="59" on="1"/>
        <pt x="250" y="55" on="0"/>
        <pt x="293" y="50" on="0"/>
      </contour>
      <contour>
        <pt x="289" y="382" on="1"/>
        <pt x="309" y="382" on="0"/>
        <pt x="358" y="385" on="0"/>
        <pt x="375" y="387" on="1"/>
        <pt x="426" y="403" on="0"/>
        <pt x="488" y="474" on="0"/>
        <pt x="488" y="522" on="1"/>
        <pt x="488" y="588" on="0"/>
        <pt x="404" y="650" on="0"/>
        <pt x="332" y="650" on="1"/>
        <pt x="298" y="650" on="0"/>
        <pt x="251" y="647" on="0"/>
        <pt x="235" y="645" on="1"/>
        <pt x="235" y="382" on="1"/>
      </contour>
    </TTGlyph>
    <TTGlyph name="C" xMin="57" yMin="-12" xMax="633" yMax="712">
      <contour>
        <pt x="569" y="184" on="1"/>
        <pt x="633" y="184" on="1"/>
        <pt x="633" y="27" on="1"/>
        <pt x="602" y="10" on="0"/>
        <pt x="500" y="-12" on="0"/>
        <pt x="450" y="-12" on="1"/>
        <pt x="358" y="-12" on="0"/>
        <pt x="212" y="30" on="0"/>
        <pt x="111" y="119" on="0"/>
        <pt x="57" y="255" on="0"/>
        <pt x="57" y="350" on="1"/>
        <pt x="57" y="448" on="0"/>
        <pt x="117" y="585" on="0"/>
        <pt x="219" y="672" on="0"/>
        <pt x="353" y="712" on="0"/>
        <pt x="427" y="712" on="1"/>
        <pt x="463" y="712" on="0"/>
        <pt x="521" y="707" on="0"/>
        <pt x="568" y="697" on="0"/>
        <pt x="608" y="683" on="0"/>
        <pt x="627" y="675" on="1"/>
        <pt x="627" y="504" on="1"/>
        <pt x="563" y="504" on="1"/>
        <pt x="563" y="609" on="1"/>
        <pt x="549" y="629" on="1"/>
        <pt x="538" y="634" on="0"/>
        <pt x="491" y="648" on="0"/>
        <pt x="439" y="648" on="1"/>
        <pt x="385" y="648" on="0"/>
        <pt x="291" y="614" on="0"/>
        <pt x="222" y="542" on="0"/>
        <pt x="182" y="429" on="0"/>
        <pt x="182" y="350" on="1"/>
        <pt x="182" y="207" on="0"/>
        <pt x="327" y="52" on="0"/>
        <pt x="458" y="52" on="1"/>
        <pt x="494" y="52" on="0"/>
        <pt x="543" y="63" on="0"/>
        <pt x="555" y="72" on="1"/>
        <pt x="569" y="91" on="1"/>
      </contour>
    </TTGlyph>
    <TTGlyph name="Cacute" xMin="57" yMin="-12" xMax="633" yMax="914">
      <component glyphName="C" x="0" y="0" flags="0x204"/>
      <component glyphName="uniF6C9" x="276" y="0" flags="0x4"/>
    </TTGlyph>
    <TTGlyph name="Ccaron" xMin="57" yMin="-12" xMax="633" yMax="919">
      <component glyphName="C" x="0" y="0" flags="0x204"/>
      <component glyphName="uniF6CA" x="216" y="0" flags="0x4"/>
    </TTGlyph>
    <TTGlyph name="Ccedilla" xMin="57" yMin="-232" xMax="633" yMax="712">
      <contour>
        <pt x="569" y="184" on="1"/>
        <pt x="633" y="184" on="1"/>
        <pt x="633" y="27" on="1"/>
        <pt x="602" y="10" on="0"/>
        <pt x="500" y="-12" on="0"/>
        <pt x="450" y="-12" on="1"/>
        <pt x="443" y="-12" on="1"/>
        <pt x="416" y="-64" on="1"/>
        <pt x="484" y="-66" on="0"/>
        <pt x="550" y="-99" on="0"/>
        <pt x="550" y="-135" on="1"/>
        <pt x="550" y="-165" on="0"/>
        <pt x="510" y="-203" on="0"/>
        <pt x="449" y="-224" on="0"/>
        <pt x="377" y="-232" on="0"/>
        <pt x="345" y="-232" on="1"/>
        <pt x="345" y="-199" on="1"/>
        <pt x="367" y="-198" on="0"/>
        <pt x="404" y="-193" on="0"/>
        <pt x="432" y="-183" on="0"/>
        <pt x="448" y="-166" on="0"/>
        <pt x="448" y="-152" on="1"/>
        <pt x="448" y="-125" on="0"/>
        <pt x="398" y="-109" on="0"/>
        <pt x="348" y="-107" on="1"/>
        <pt x="388" y="-9" on="1"/>
        <pt x="310" y="-3" on="0"/>
        <pt x="187" y="46" on="0"/>
        <pt x="102" y="135" on="0"/>
        <pt x="57" y="264" on="0"/>
        <pt x="57" y="350" on="1"/>
        <pt x="57" y="448" on="0"/>
        <pt x="117" y="585" on="0"/>
        <pt x="219" y="672" on="0"/>
        <pt x="353" y="712" on="0"/>
        <pt x="427" y="712" on="1"/>
        <pt x="463" y="712" on="0"/>
        <pt x="521" y="707" on="0"/>
        <pt x="568" y="697" on="0"/>
        <pt x="608" y="683" on="0"/>
        <pt x="627" y="675" on="1"/>
        <pt x="627" y="504" on="1"/>
        <pt x="563" y="504" on="1"/>
        <pt x="563" y="609" on="1"/>
        <pt x="549" y="629" on="1"/>
        <pt x="538" y="634" on="0"/>
        <pt x="491" y="648" on="0"/>
        <pt x="439" y="648" on="1"/>
        <pt x="385" y="648" on="0"/>
        <pt x="291" y="614" on="0"/>
        <pt x="222" y="542" on="0"/>
        <pt x="182" y="429" on="0"/>
        <pt x="182" y="350" on="1"/>
        <pt x="182" y="207" on="0"/>
        <pt x="327" y="52" on="0"/>
        <pt x="458" y="52" on="1"/>
        <pt x="494" y="52" on="0"/>
        <pt x="543" y="63" on="0"/>
        <pt x="555" y="72" on="1"/>
        <pt x="569" y="91" on="1"/>
      </contour>
    </TTGlyph>
    <TTGlyph name="Ccircumflex" xMin="57" yMin="-12" xMax="633" yMax="914">
      <component glyphName="C" x="0" y="0" flags="0x204"/>
      <component glyphName="uniF408" x="202" y="0" flags="0x4"/>
    </TTGlyph>
    <TTGlyph name="D" xMin="32" yMin="-9" xMax="725" yMax="708">
      <contour>
        <pt x="32" y="0" on="1"/>
        <pt x="32" y="56" on="1"/>
        <pt x="123" y="56" on="1"/>
        <pt x="123" y="644" on="1"/>
        <pt x="32" y="644" on="1"/>
        <pt x="32" y="700" on="1"/>
        <pt x="155" y="700" on="1"/>
        <pt x="174" y="700" on="0"/>
        <pt x="225" y="702" on="0"/>
        <pt x="279" y="705" on="0"/>
        <pt x="328" y="708" on="0"/>
        <pt x="345" y="708" on="1"/>
        <pt x="438" y="708" on="0"/>
        <pt x="580" y="661" on="0"/>
        <pt x="676" y="572" on="0"/>
        <pt x="725" y="442" on="0"/>
        <pt x="725" y="359" on="1"/>
        <pt x="725" y="279" on="0"/>
        <pt x="679" y="145" on="0"/>
        <pt x="581" y="46" on="0"/>
        <pt x="428" y="-9" on="0"/>
        <pt x="322" y="-9" on="1"/>
        <pt x="306" y="-9" on="0"/>
        <pt x="264" y="-6" on="0"/>
        <pt x="217" y="-3" on="0"/>
        <pt x="169" y="0" on="0"/>
        <pt x="148" y="0" on="1"/>
      </contour>
      <contour>
        <pt x="330" y="652" on="1"/>
        <pt x="302" y="652" on="0"/>
        <pt x="250" y="650" on="0"/>
        <pt x="235" y="647" on="1"/>
        <pt x="235" y="51" on="1"/>
        <pt x="241" y="50" on="0"/>
        <pt x="269" y="49" on="0"/>
        <pt x="302" y="48" on="0"/>
        <pt x="332" y="47" on="0"/>
        <pt x="338" y="47" on="1"/>
        <pt x="413" y="47" on="0"/>
        <pt x="513" y="98" on="0"/>
        <pt x="574" y="183" on="0"/>
        <pt x="600" y="296" on="0"/>
        <pt x="600" y="359" on="1"/>
        <pt x="600" y="408" on="0"/>
        <pt x="575" y="512" on="0"/>
        <pt x="513" y="598" on="0"/>
        <pt x="409" y="652" on="0"/>
      </contour>
    </TTGlyph>
    <TTGlyph name="Dcaron" xMin="32" yMin="-9" xMax="725" yMax="919">
      <component glyphName="D" x="0" y="0" flags="0x204"/>
      <component glyphName="uniF6CA" x="121" y="0" flags="0x4"/>
    </TTGlyph>
    <TTGlyph name="Dcroat" xMin="23" yMin="-9" xMax="725" yMax="708">
      <component glyphName="Eth" x="0" y="0" flags="0x204"/>
    </TTGlyph>
    <TTGlyph name="E" xMin="32" yMin="0" xMax="581" yMax="700">
      <contour>
        <pt x="564" y="700" on="1"/>
        <pt x="564" y="536" on="1"/>
        <pt x="500" y="536" on="1"/>
        <pt x="500" y="622" on="1"/>
        <pt x="480" y="644" on="1"/>
        <pt x="235" y="644" on="1"/>
        <pt x="235" y="385" on="1"/>
        <pt x="404" y="385" on="1"/>
        <pt x="419" y="400" on="1"/>
        <pt x="419" y="442" on="1"/>
        <pt x="483" y="442" on="1"/>
        <pt x="483" y="271" on="1"/>
        <pt x="419" y="271" on="1"/>
        <pt x="419" y="313" on="1"/>
        <pt x="404" y="329" on="1"/>
        <pt x="235" y="329" on="1"/>
        <pt x="235" y="56" on="1"/>
        <pt x="497" y="56" on="1"/>
        <pt x="517" y="76" on="1"/>
        <pt x="517" y="174" on="1"/>
        <pt x="581" y="174" on="1"/>
        <pt x="581" y="0" on="1"/>
        <pt x="32" y="0" on="1"/>
        <pt x="32" y="56" on="1"/>
        <pt x="123" y="56" on="1"/>
        <pt x="123" y="644" on="1"/>
        <pt x="32" y="644" on="1"/>
        <pt x="32" y="700" on="1"/>
      </contour>
    </TTGlyph>
    <TTGlyph name="Eacute" xMin="32" yMin="0" xMax="581" yMax="914">
      <component glyphName="E" x="0" y="0" flags="0x204"/>
      <component glyphName="uniF6C9" x="173" y="0" flags="0x4"/>
    </TTGlyph>
    <TTGlyph name="Ecaron" xMin="32" yMin="0" xMax="581" yMax="919">
      <component glyphName="E" x="0" y="0" flags="0x204"/>
      <component glyphName="uniF6CA" x="119" y="0" flags="0x4"/>
    </TTGlyph>
    <TTGlyph name="Ecircumflex" xMin="32" yMin="0" xMax="581" yMax="914">
      <component glyphName="E" x="0" y="0" flags="0x204"/>
      <component glyphName="uniF408" x="105" y="0" flags="0x4"/>
    </TTGlyph>
    <TTGlyph name="Edieresis" xMin="32" yMin="0" xMax="581" yMax="854">
      <component glyphName="E" x="0" y="0" flags="0x204"/>
      <component glyphName="uniF6CB" x="75" y="0" flags="0x4"/>
    </TTGlyph>
    <TTGlyph name="Edotaccent" xMin="32" yMin="0" xMax="581" yMax="880">
      <component glyphName="E" x="0" y="0" flags="0x204"/>
      <component glyphName="uniF40B" x="190" y="0" flags="0x4"/>
    </TTGlyph>
    <TTGlyph name="Egrave" xMin="32" yMin="0" xMax="581" yMax="914">
      <component glyphName="E" x="0" y="0" flags="0x204"/>
      <component glyphName="uniF6CE" x="82" y="0" flags="0x4"/>
    </TTGlyph>
    <TTGlyph name="Emacron" xMin="32" yMin="0" xMax="581" yMax="851">
      <component glyphName="E" x="0" y="0" flags="0x204"/>
      <component glyphName="uniF6D0" x="94" y="0" flags="0x4"/>
    </TTGlyph>
    <TTGlyph name="Eogonek" xMin="32" yMin="-211" xMax="581" yMax="700">
      <contour>
        <pt x="564" y="700" on="1"/>
        <pt x="564" y="536" on="1"/>
        <pt x="500" y="536" on="1"/>
        <pt x="500" y="622" on="1"/>
        <pt x="480" y="644" on="1"/>
        <pt x="235" y="644" on="1"/>
        <pt x="235" y="385" on="1"/>
        <pt x="404" y="385" on="1"/>
        <pt x="419" y="400" on="1"/>
        <pt x="419" y="442" on="1"/>
        <pt x="483" y="442" on="1"/>
        <pt x="483" y="271" on="1"/>
        <pt x="419" y="271" on="1"/>
        <pt x="419" y="313" on="1"/>
        <pt x="404" y="329" on="1"/>
        <pt x="235" y="329" on="1"/>
        <pt x="235" y="56" on="1"/>
        <pt x="497" y="56" on="1"/>
        <pt x="517" y="76" on="1"/>
        <pt x="517" y="174" on="1"/>
        <pt x="581" y="174" on="1"/>
        <pt x="581" y="0" on="1"/>
        <pt x="525" y="0" on="1"/>
        <pt x="479" y="-19" on="0"/>
        <pt x="426" y="-68" on="0"/>
        <pt x="426" y="-110" on="1"/>
        <pt x="426" y="-137" on="0"/>
        <pt x="466" y="-158" on="0"/>
        <pt x="499" y="-158" on="1"/>
        <pt x="533" y="-158" on="0"/>
        <pt x="562" y="-152" on="1"/>
        <pt x="562" y="-183" on="1"/>
        <pt x="546" y="-194" on="0"/>
        <pt x="496" y="-211" on="0"/>
        <pt x="459" y="-211" on="1"/>
        <pt x="433" y="-211" on="0"/>
        <pt x="386" y="-201" on="0"/>
        <pt x="351" y="-181" on="0"/>
        <pt x="330" y="-150" on="0"/>
        <pt x="330" y="-128" on="1"/>
        <pt x="330" y="-82" on="0"/>
        <pt x="399" y="-19" on="0"/>
        <pt x="450" y="0" on="1"/>
        <pt x="32" y="0" on="1"/>
        <pt x="32" y="56" on="1"/>
        <pt x="123" y="56" on="1"/>
        <pt x="123" y="644" on="1"/>
        <pt x="32" y="644" on="1"/>
        <pt x="32" y="700" on="1"/>
      </contour>
    </TTGlyph>
    <TTGlyph name="Eth" xMin="23" yMin="-9" xMax="725" yMax="708">
      <contour>
        <pt x="32" y="0" on="1"/>
        <pt x="32" y="56" on="1"/>
        <pt x="123" y="56" on="1"/>
        <pt x="123" y="331" on="1"/>
        <pt x="23" y="331" on="1"/>
        <pt x="23" y="385" on="1"/>
        <pt x="123" y="385" on="1"/>
        <pt x="123" y="644" on="1"/>
        <pt x="32" y="644" on="1"/>
        <pt x="32" y="700" on="1"/>
        <pt x="155" y="700" on="1"/>
        <pt x="174" y="700" on="0"/>
        <pt x="225" y="702" on="0"/>
        <pt x="279" y="705" on="0"/>
        <pt x="328" y="708" on="0"/>
        <pt x="345" y="708" on="1"/>
        <pt x="438" y="708" on="0"/>
        <pt x="580" y="661" on="0"/>
        <pt x="676" y="572" on="0"/>
        <pt x="725" y="442" on="0"/>
        <pt x="725" y="359" on="1"/>
        <pt x="725" y="279" on="0"/>
        <pt x="679" y="145" on="0"/>
        <pt x="581" y="46" on="0"/>
        <pt x="428" y="-9" on="0"/>
        <pt x="322" y="-9" on="1"/>
        <pt x="306" y="-9" on="0"/>
        <pt x="264" y="-6" on="0"/>
        <pt x="217" y="-3" on="0"/>
        <pt x="169" y="0" on="0"/>
        <pt x="148" y="0" on="1"/>
      </contour>
      <contour>
        <pt x="330" y="652" on="1"/>
        <pt x="302" y="652" on="0"/>
        <pt x="250" y="650" on="0"/>
        <pt x="235" y="647" on="1"/>
        <pt x="235" y="385" on="1"/>
        <pt x="414" y="385" on="1"/>
        <pt x="414" y="331" on="1"/>
        <pt x="235" y="331" on="1"/>
        <pt x="235" y="51" on="1"/>
        <pt x="241" y="50" on="0"/>
        <pt x="269" y="49" on="0"/>
        <pt x="302" y="48" on="0"/>
        <pt x="332" y="47" on="0"/>
        <pt x="338" y="47" on="1"/>
        <pt x="413" y="47" on="0"/>
        <pt x="513" y="98" on="0"/>
        <pt x="574" y="183" on="0"/>
        <pt x="600" y="296" on="0"/>
        <pt x="600" y="359" on="1"/>
        <pt x="600" y="408" on="0"/>
        <pt x="575" y="512" on="0"/>
        <pt x="513" y="598" on="0"/>
        <pt x="409" y="652" on="0"/>
      </contour>
    </TTGlyph>
    <TTGlyph name="Euro" xMin="-40" yMin="-10" xMax="596" yMax="710">
      <contour>
        <pt x="-23" y="440" on="1"/>
        <pt x="55" y="440" on="1"/>
        <pt x="66" y="511" on="0"/>
        <pt x="126" y="613" on="0"/>
        <pt x="216" y="679" on="0"/>
        <pt x="330" y="710" on="0"/>
        <pt x="395" y="710" on="1"/>
        <pt x="432" y="710" on="0"/>
        <pt x="488" y="706" on="0"/>
        <pt x="533" y="697" on="0"/>
        <pt x="570" y="684" on="0"/>
        <pt x="589" y="676" on="1"/>
        <pt x="589" y="504" on="1"/>
        <pt x="525" y="504" on="1"/>
        <pt x="525" y="620" on="1"/>
        <pt x="505" y="643" on="1"/>
        <pt x="492" y="648" on="0"/>
        <pt x="459" y="656" on="0"/>
        <pt x="427" y="656" on="1"/>
        <pt x="318" y="656" on="0"/>
        <pt x="185" y="554" on="0"/>
        <pt x="167" y="440" on="1"/>
        <pt x="502" y="440" on="1"/>
        <pt x="485" y="384" on="1"/>
        <pt x="160" y="384" on="1"/>
        <pt x="160" y="350" on="1"/>
        <pt x="160" y="340" on="0"/>
        <pt x="160" y="323" on="0"/>
        <pt x="161" y="314" on="1"/>
        <pt x="464" y="314" on="1"/>
        <pt x="447" y="258" on="1"/>
        <pt x="168" y="258" on="1"/>
        <pt x="177" y="209" on="0"/>
        <pt x="218" y="130" on="0"/>
        <pt x="283" y="73" on="0"/>
        <pt x="371" y="42" on="0"/>
        <pt x="427" y="42" on="1"/>
        <pt x="465" y="42" on="0"/>
        <pt x="505" y="53" on="0"/>
        <pt x="512" y="58" on="1"/>
        <pt x="532" y="81" on="1"/>
        <pt x="532" y="184" on="1"/>
        <pt x="596" y="184" on="1"/>
        <pt x="596" y="31" on="1"/>
        <pt x="579" y="19" on="0"/>
        <pt x="531" y="4" on="0"/>
        <pt x="479" y="-6" on="0"/>
        <pt x="425" y="-10" on="0"/>
        <pt x="402" y="-10" on="1"/>
        <pt x="252" y="-10" on="0"/>
        <pt x="77" y="122" on="0"/>
        <pt x="55" y="258" on="1"/>
        <pt x="-40" y="258" on="1"/>
        <pt x="-23" y="314" on="1"/>
        <pt x="49" y="314" on="1"/>
        <pt x="47" y="323" on="0"/>
        <pt x="47" y="342" on="0"/>
        <pt x="47" y="353" on="1"/>
        <pt x="47" y="361" on="0"/>
        <pt x="47" y="376" on="0"/>
        <pt x="49" y="384" on="1"/>
        <pt x="-40" y="384" on="1"/>
      </contour>
    </TTGlyph>
    <TTGlyph name="F" xMin="32" yMin="0" xMax="573" yMax="700">
      <contour>
        <pt x="235" y="56" on="1"/>
        <pt x="342" y="56" on="1"/>
        <pt x="342" y="0" on="1"/>
        <pt x="32" y="0" on="1"/>
        <pt x="32" y="56" on="1"/>
        <pt x="123" y="56" on="1"/>
        <pt x="123" y="644" on="1"/>
        <pt x="32" y="644" on="1"/>
        <pt x="32" y="700" on="1"/>
        <pt x="573" y="700" on="1"/>
        <pt x="573" y="536" on="1"/>
        <pt x="509" y="536" on="1"/>
        <pt x="509" y="622" on="1"/>
        <pt x="489" y="644" on="1"/>
        <pt x="235" y="644" on="1"/>
        <pt x="235" y="370" on="1"/>
        <pt x="416" y="370" on="1"/>
        <pt x="431" y="385" on="1"/>
        <pt x="431" y="433" on="1"/>
        <pt x="495" y="433" on="1"/>
        <pt x="495" y="250" on="1"/>
        <pt x="431" y="250" on="1"/>
        <pt x="431" y="298" on="1"/>
        <pt x="416" y="314" on="1"/>
        <pt x="235" y="314" on="1"/>
      </contour>
    </TTGlyph>
    <TTGlyph name="G" xMin="57" yMin="-12" xMax="739" yMax="712">
      <contour>
        <pt x="669" y="48" on="1"/>
        <pt x="648" y="36" on="0"/>
        <pt x="594" y="14" on="0"/>
        <pt x="535" y="-2" on="0"/>
        <pt x="475" y="-12" on="0"/>
        <pt x="447" y="-12" on="1"/>
        <pt x="354" y="-12" on="0"/>
        <pt x="209" y="31" on="0"/>
        <pt x="109" y="120" on="0"/>
        <pt x="57" y="257" on="0"/>
        <pt x="57" y="350" on="1"/>
        <pt x="57" y="448" on="0"/>
        <pt x="120" y="586" on="0"/>
        <pt x="224" y="673" on="0"/>
        <pt x="359" y="712" on="0"/>
        <pt x="430" y="712" on="1"/>
        <pt x="504" y="712" on="0"/>
        <pt x="600" y="692" on="0"/>
        <pt x="638" y="675" on="1"/>
        <pt x="638" y="504" on="1"/>
        <pt x="574" y="504" on="1"/>
        <pt x="574" y="609" on="1"/>
        <pt x="560" y="629" on="1"/>
        <pt x="551" y="634" on="0"/>
        <pt x="523" y="641" on="0"/>
        <pt x="492" y="646" on="0"/>
        <pt x="459" y="648" on="0"/>
        <pt x="445" y="648" on="1"/>
        <pt x="390" y="648" on="0"/>
        <pt x="294" y="614" on="0"/>
        <pt x="223" y="542" on="0"/>
        <pt x="182" y="429" on="0"/>
        <pt x="182" y="350" on="1"/>
        <pt x="182" y="208" on="0"/>
        <pt x="323" y="52" on="0"/>
        <pt x="455" y="52" on="1"/>
        <pt x="488" y="52" on="0"/>
        <pt x="535" y="61" on="0"/>
        <pt x="553" y="68" on="1"/>
        <pt x="568" y="86" on="1"/>
        <pt x="568" y="275" on="1"/>
        <pt x="462" y="275" on="1"/>
        <pt x="462" y="331" on="1"/>
        <pt x="739" y="331" on="1"/>
        <pt x="739" y="275" on="1"/>
        <pt x="669" y="275" on="1"/>
      </contour>
    </TTGlyph>
    <TTGlyph name="Gbreve" xMin="57" yMin="-12" xMax="739" yMax="907">
      <component glyphName="G" x="0" y="0" flags="0x204"/>
      <component glyphName="uniF406" x="214" y="0" flags="0x4"/>
    </TTGlyph>
    <TTGlyph name="Gcircumflex" xMin="57" yMin="-12" xMax="739" yMax="914">
      <component glyphName="G" x="0" y="0" flags="0x204"/>
      <component glyphName="uniF408" x="205" y="0" flags="0x4"/>
    </TTGlyph>
    <TTGlyph name="Gcommaaccent" xMin="57" yMin="-280" xMax="739" yMax="712">
      <component glyphName="G" x="0" y="0" flags="0x204"/>
      <component glyphName="uniF409" x="270" y="0" flags="0x4"/>
    </TTGlyph>
    <TTGlyph name="H" xMin="32" yMin="0" xMax="788" yMax="700">
      <contour>
        <pt x="318" y="56" on="1"/>
        <pt x="318" y="0" on="1"/>
        <pt x="32" y="0" on="1"/>
        <pt x="32" y="56" on="1"/>
        <pt x="123" y="56" on="1"/>
        <pt x="123" y="644" on="1"/>
        <pt x="32" y="644" on="1"/>
        <pt x="32" y="700" on="1"/>
        <pt x="318" y="700" on="1"/>
        <pt x="318" y="644" on="1"/>
        <pt x="235" y="644" on="1"/>
        <pt x="235" y="387" on="1"/>
        <pt x="585" y="387" on="1"/>
        <pt x="585" y="644" on="1"/>
        <pt x="502" y="644" on="1"/>
        <pt x="502" y="700" on="1"/>
        <pt x="788" y="700" on="1"/>
        <pt x="788" y="644" on="1"/>
        <pt x="697" y="644" on="1"/>
        <pt x="697" y="56" on="1"/>
        <pt x="788" y="56" on="1"/>
        <pt x="788" y="0" on="1"/>
        <pt x="502" y="0" on="1"/>
        <pt x="502" y="56" on="1"/>
        <pt x="585" y="56" on="1"/>
        <pt x="585" y="331" on="1"/>
        <pt x="235" y="331" on="1"/>
        <pt x="235" y="56" on="1"/>
      </contour>
    </TTGlyph>
    <TTGlyph name="Hbar" xMin="32" yMin="0" xMax="788" yMax="700">
      <contour>
        <pt x="34" y="560" on="1"/>
        <pt x="123" y="560" on="1"/>
        <pt x="123" y="644" on="1"/>
        <pt x="32" y="644" on="1"/>
        <pt x="32" y="700" on="1"/>
        <pt x="318" y="700" on="1"/>
        <pt x="318" y="644" on="1"/>
        <pt x="235" y="644" on="1"/>
        <pt x="235" y="560" on="1"/>
        <pt x="585" y="560" on="1"/>
        <pt x="585" y="644" on="1"/>
        <pt x="502" y="644" on="1"/>
        <pt x="502" y="700" on="1"/>
        <pt x="788" y="700" on="1"/>
        <pt x="788" y="644" on="1"/>
        <pt x="697" y="644" on="1"/>
        <pt x="697" y="560" on="1"/>
        <pt x="786" y="560" on="1"/>
        <pt x="786" y="506" on="1"/>
        <pt x="697" y="506" on="1"/>
        <pt x="697" y="56" on="1"/>
        <pt x="788" y="56" on="1"/>
        <pt x="788" y="0" on="1"/>
        <pt x="502" y="0" on="1"/>
        <pt x="502" y="56" on="1"/>
        <pt x="585" y="56" on="1"/>
        <pt x="585" y="331" on="1"/>
        <pt x="235" y="331" on="1"/>
        <pt x="235" y="56" on="1"/>
        <pt x="318" y="56" on="1"/>
        <pt x="318" y="0" on="1"/>
        <pt x="32" y="0" on="1"/>
        <pt x="32" y="56" on="1"/>
        <pt x="123" y="56" on="1"/>
        <pt x="123" y="506" on="1"/>
        <pt x="34" y="506" on="1"/>
      </contour>
      <contour>
        <pt x="585" y="387" on="1"/>
        <pt x="585" y="506" on="1"/>
        <pt x="235" y="506" on="1"/>
        <pt x="235" y="387" on="1"/>
      </contour>
    </TTGlyph>
    <TTGlyph name="Hcircumflex" xMin="32" yMin="0" xMax="788" yMax="914">
      <component glyphName="H" x="0" y="0" flags="0x204"/>
      <component glyphName="uniF408" x="194" y="0" flags="0x4"/>
    </TTGlyph>
    <TTGlyph name="I" xMin="52" yMin="0" xMax="346" yMax="700">
      <contour>
        <pt x="346" y="0" on="1"/>
        <pt x="52" y="0" on="1"/>
        <pt x="52" y="56" on="1"/>
        <pt x="143" y="56" on="1"/>
        <pt x="143" y="644" on="1"/>
        <pt x="52" y="644" on="1"/>
        <pt x="52" y="700" on="1"/>
        <pt x="346" y="700" on="1"/>
        <pt x="346" y="644" on="1"/>
        <pt x="255" y="644" on="1"/>
        <pt x="255" y="56" on="1"/>
        <pt x="346" y="56" on="1"/>
      </contour>
    </TTGlyph>
    <TTGlyph name="Iacute" xMin="52" yMin="0" xMax="381" yMax="914">
      <component glyphName="I" x="0" y="0" flags="0x204"/>
      <component glyphName="uniF6C9" x="52" y="0" flags="0x4"/>
    </TTGlyph>
    <TTGlyph name="Icircumflex" xMin="43" yMin="0" xMax="357" yMax="914">
      <component glyphName="I" x="0" y="0" flags="0x204"/>
      <component glyphName="uniF408" x="-17" y="0" flags="0x4"/>
    </TTGlyph>
    <TTGlyph name="Idieresis" xMin="8" yMin="0" xMax="392" yMax="854">
      <component glyphName="I" x="0" y="0" flags="0x204"/>
      <component glyphName="uniF6CB" x="-52" y="0" flags="0x4"/>
    </TTGlyph>
    <TTGlyph name="Idotaccent" xMin="52" yMin="0" xMax="346" yMax="880">
      <component glyphName="I" x="0" y="0" flags="0x204"/>
      <component glyphName="uniF40B" x="57" y="0" flags="0x4"/>
    </TTGlyph>
    <TTGlyph name="Igrave" xMin="41" yMin="0" xMax="346" yMax="914">
      <component glyphName="I" x="0" y="0" flags="0x204"/>
      <component glyphName="uniF6CE" x="-19" y="0" flags="0x4"/>
    </TTGlyph>
    <TTGlyph name="Imacron" xMin="29" yMin="0" xMax="369" yMax="851">
      <component glyphName="I" x="0" y="0" flags="0x204"/>
      <component glyphName="uniF6D0" x="-31" y="0" flags="0x4"/>
    </TTGlyph>
    <TTGlyph name="Iogonek" xMin="52" yMin="-211" xMax="346" yMax="700">
      <contour>
        <pt x="346" y="0" on="1"/>
        <pt x="290" y="0" on="1"/>
        <pt x="244" y="-19" on="0"/>
        <pt x="191" y="-68" on="0"/>
        <pt x="191" y="-110" on="1"/>
        <pt x="191" y="-137" on="0"/>
        <pt x="231" y="-158" on="0"/>
        <pt x="264" y="-158" on="1"/>
        <pt x="298" y="-158" on="0"/>
        <pt x="327" y="-152" on="1"/>
        <pt x="327" y="-183" on="1"/>
        <pt x="311" y="-194" on="0"/>
        <pt x="261" y="-211" on="0"/>
        <pt x="224" y="-211" on="1"/>
        <pt x="198" y="-211" on="0"/>
        <pt x="151" y="-201" on="0"/>
        <pt x="116" y="-181" on="0"/>
        <pt x="95" y="-150" on="0"/>
        <pt x="95" y="-128" on="1"/>
        <pt x="95" y="-82" on="0"/>
        <pt x="164" y="-19" on="0"/>
        <pt x="215" y="0" on="1"/>
        <pt x="52" y="0" on="1"/>
        <pt x="52" y="56" on="1"/>
        <pt x="143" y="56" on="1"/>
        <pt x="143" y="644" on="1"/>
        <pt x="52" y="644" on="1"/>
        <pt x="52" y="700" on="1"/>
        <pt x="346" y="700" on="1"/>
        <pt x="346" y="644" on="1"/>
        <pt x="255" y="644" on="1"/>
        <pt x="255" y="56" on="1"/>
        <pt x="346" y="56" on="1"/>
      </contour>
    </TTGlyph>
    <TTGlyph name="J" xMin="36" yMin="-160" xMax="328" yMax="700">
      <contour>
        <pt x="36" y="-113" on="1"/>
        <pt x="53" y="-105" on="0"/>
        <pt x="85" y="-82" on="0"/>
        <pt x="110" y="-41" on="0"/>
        <pt x="125" y="25" on="0"/>
        <pt x="125" y="78" on="1"/>
        <pt x="125" y="644" on="1"/>
        <pt x="42" y="644" on="1"/>
        <pt x="42" y="700" on="1"/>
        <pt x="328" y="700" on="1"/>
        <pt x="328" y="644" on="1"/>
        <pt x="237" y="644" on="1"/>
        <pt x="237" y="88" on="1"/>
        <pt x="237" y="17" on="0"/>
        <pt x="200" y="-74" on="0"/>
        <pt x="146" y="-129" on="0"/>
        <pt x="84" y="-155" on="0"/>
        <pt x="59" y="-160" on="1"/>
      </contour>
    </TTGlyph>
    <TTGlyph name="Jcircumflex" xMin="24" yMin="-160" xMax="338" yMax="914">
      <component glyphName="J" x="0" y="0" flags="0x204"/>
      <component glyphName="uniF408" x="-36" y="0" flags="0x4"/>
    </TTGlyph>
    <TTGlyph name="K" xMin="32" yMin="0" xMax="712" yMax="700">
      <contour>
        <pt x="300" y="382" on="1"/>
        <pt x="518" y="644" on="1"/>
        <pt x="437" y="644" on="1"/>
        <pt x="437" y="700" on="1"/>
        <pt x="684" y="700" on="1"/>
        <pt x="684" y="644" on="1"/>
        <pt x="605" y="644" on="1"/>
        <pt x="367" y="377" on="1"/>
        <pt x="650" y="56" on="1"/>
        <pt x="712" y="56" on="1"/>
        <pt x="712" y="0" on="1"/>
        <pt x="551" y="0" on="1"/>
        <pt x="288" y="332" on="1"/>
        <pt x="235" y="332" on="1"/>
        <pt x="235" y="56" on="1"/>
        <pt x="318" y="56" on="1"/>
        <pt x="318" y="0" on="1"/>
        <pt x="32" y="0" on="1"/>
        <pt x="32" y="56" on="1"/>
        <pt x="123" y="56" on="1"/>
        <pt x="123" y="644" on="1"/>
        <pt x="32" y="644" on="1"/>
        <pt x="32" y="700" on="1"/>
        <pt x="318" y="700" on="1"/>
        <pt x="318" y="644" on="1"/>
        <pt x="235" y="644" on="1"/>
        <pt x="235" y="382" on="1"/>
      </contour>
    </TTGlyph>
    <TTGlyph name="Kcommaaccent" xMin="32" yMin="-280" xMax="712" yMax="700">
      <component glyphName="K" x="0" y="0" flags="0x204"/>
      <component glyphName="uniF409" x="205" y="0" flags="0x4"/>
    </TTGlyph>
    <TTGlyph name="L" xMin="32" yMin="0" xMax="593" yMax="700">
      <contour>
        <pt x="32" y="644" on="1"/>
        <pt x="32" y="700" on="1"/>
        <pt x="343" y="700" on="1"/>
        <pt x="343" y="644" on="1"/>
        <pt x="235" y="644" on="1"/>
        <pt x="235" y="56" on="1"/>
        <pt x="501" y="56" on="1"/>
        <pt x="521" y="78" on="1"/>
        <pt x="521" y="216" on="1"/>
        <pt x="593" y="216" on="1"/>
        <pt x="593" y="0" on="1"/>
        <pt x="32" y="0" on="1"/>
        <pt x="32" y="56" on="1"/>
        <pt x="123" y="56" on="1"/>
        <pt x="123" y="644" on="1"/>
      </contour>
    </TTGlyph>
    <TTGlyph name="Lacute" xMin="32" yMin="0" xMax="593" yMax="914">
      <component glyphName="L" x="0" y="0" flags="0x204"/>
      <component glyphName="uniF6C9" x="111" y="0" flags="0x4"/>
    </TTGlyph>
    <TTGlyph name="Lcaron" xMin="32" yMin="0" xMax="593" yMax="700">
      <component glyphName="L" x="0" y="0" flags="0x204"/>
      <component glyphName="caron.L" x="9" y="0" flags="0x4"/>
    </TTGlyph>
    <TTGlyph name="Lcommaaccent" xMin="32" yMin="-280" xMax="593" yMax="700">
      <component glyphName="L" x="0" y="0" flags="0x204"/>
      <component glyphName="uniF409" x="159" y="0" flags="0x4"/>
    </TTGlyph>
    <TTGlyph name="Lslash" xMin="19" yMin="0" xMax="593" yMax="700">
      <contour>
        <pt x="32" y="644" on="1"/>
        <pt x="32" y="700" on="1"/>
        <pt x="343" y="700" on="1"/>
        <pt x="343" y="644" on="1"/>
        <pt x="235" y="644" on="1"/>
        <pt x="235" y="404" on="1"/>
        <pt x="385" y="487" on="1"/>
        <pt x="385" y="410" on="1"/>
        <pt x="235" y="327" on="1"/>
        <pt x="235" y="56" on="1"/>
        <pt x="501" y="56" on="1"/>
        <pt x="521" y="78" on="1"/>
        <pt x="521" y="216" on="1"/>
        <pt x="593" y="216" on="1"/>
        <pt x="593" y="0" on="1"/>
        <pt x="32" y="0" on="1"/>
        <pt x="32" y="56" on="1"/>
        <pt x="123" y="56" on="1"/>
        <pt x="123" y="266" on="1"/>
        <pt x="19" y="209" on="1"/>
        <pt x="19" y="285" on="1"/>
        <pt x="123" y="342" on="1"/>
        <pt x="123" y="644" on="1"/>
      </contour>
    </TTGlyph>
    <TTGlyph name="M" xMin="32" yMin="0" xMax="952" yMax="700">
      <contour>
        <pt x="32" y="644" on="1"/>
        <pt x="32" y="700" on="1"/>
        <pt x="260" y="700" on="1"/>
        <pt x="496" y="252" on="1"/>
        <pt x="737" y="700" on="1"/>
        <pt x="952" y="700" on="1"/>
        <pt x="952" y="644" on="1"/>
        <pt x="861" y="644" on="1"/>
        <pt x="861" y="56" on="1"/>
        <pt x="952" y="56" on="1"/>
        <pt x="952" y="0" on="1"/>
        <pt x="662" y="0" on="1"/>
        <pt x="662" y="56" on="1"/>
        <pt x="753" y="56" on="1"/>
        <pt x="753" y="502" on="1"/>
        <pt x="754" y="507" on="0"/>
        <pt x="755" y="544" on="0"/>
        <pt x="756" y="565" on="1"/>
        <pt x="757" y="590" on="0"/>
        <pt x="758" y="619" on="1"/>
        <pt x="749" y="619" on="1"/>
        <pt x="706" y="512" on="1"/>
        <pt x="501" y="150" on="1"/>
        <pt x="440" y="150" on="1"/>
        <pt x="240" y="512" on="1"/>
        <pt x="196" y="629" on="1"/>
        <pt x="186" y="629" on="1"/>
        <pt x="186" y="567" on="1"/>
        <pt x="186" y="544" on="0"/>
        <pt x="187" y="503" on="0"/>
        <pt x="187" y="502" on="1"/>
        <pt x="187" y="56" on="1"/>
        <pt x="272" y="56" on="1"/>
        <pt x="272" y="0" on="1"/>
        <pt x="32" y="0" on="1"/>
        <pt x="32" y="56" on="1"/>
        <pt x="123" y="56" on="1"/>
        <pt x="123" y="644" on="1"/>
      </contour>
    </TTGlyph>
    <TTGlyph name="N" xMin="32" yMin="-12" xMax="788" yMax="700">
      <contour>
        <pt x="542" y="700" on="1"/>
        <pt x="788" y="700" on="1"/>
        <pt x="788" y="644" on="1"/>
        <pt x="697" y="644" on="1"/>
        <pt x="697" y="-12" on="1"/>
        <pt x="632" y="-12" on="1"/>
        <pt x="225" y="537" on="1"/>
        <pt x="181" y="614" on="1"/>
        <pt x="177" y="614" on="1"/>
        <pt x="187" y="536" on="1"/>
        <pt x="187" y="56" on="1"/>
        <pt x="278" y="56" on="1"/>
        <pt x="278" y="0" on="1"/>
        <pt x="32" y="0" on="1"/>
        <pt x="32" y="56" on="1"/>
        <pt x="123" y="56" on="1"/>
        <pt x="123" y="644" on="1"/>
        <pt x="32" y="644" on="1"/>
        <pt x="32" y="700" on="1"/>
        <pt x="232" y="700" on="1"/>
        <pt x="582" y="229" on="1"/>
        <pt x="634" y="143" on="1"/>
        <pt x="639" y="143" on="1"/>
        <pt x="633" y="229" on="1"/>
        <pt x="633" y="644" on="1"/>
        <pt x="542" y="644" on="1"/>
      </contour>
    </TTGlyph>
    <TTGlyph name="Nacute" xMin="32" yMin="-12" xMax="788" yMax="914">
      <component glyphName="N" x="0" y="0" flags="0x204"/>
      <component glyphName="uniF6C9" x="289" y="0" flags="0x4"/>
    </TTGlyph>
    <TTGlyph name="Ncaron" xMin="32" yMin="-12" xMax="788" yMax="919">
      <component glyphName="N" x="0" y="0" flags="0x204"/>
      <component glyphName="uniF6CA" x="197" y="0" flags="0x4"/>
    </TTGlyph>
    <TTGlyph name="Ncommaaccent" xMin="32" yMin="-280" xMax="788" yMax="700">
      <component glyphName="N" x="0" y="0" flags="0x204"/>
      <component glyphName="uniF409" x="257" y="0" flags="0x4"/>
    </TTGlyph>
    <TTGlyph name="Ntilde" xMin="32" yMin="-12" xMax="788" yMax="894">
      <component glyphName="N" x="0" y="0" flags="0x204"/>
      <component glyphName="uniF40D" x="175" y="0" flags="0x4"/>
    </TTGlyph>
    <TTGlyph name="O" xMin="57" yMin="-12" xMax="773" yMax="712">
      <contour>
        <pt x="57" y="350" on="1"/>
        <pt x="57" y="428" on="0"/>
        <pt x="105" y="561" on="0"/>
        <pt x="196" y="658" on="0"/>
        <pt x="329" y="712" on="0"/>
        <pt x="414" y="712" on="1"/>
        <pt x="499" y="712" on="0"/>
        <pt x="633" y="658" on="0"/>
        <pt x="725" y="561" on="0"/>
        <pt x="773" y="428" on="0"/>
        <pt x="773" y="350" on="1"/>
        <pt x="773" y="272" on="0"/>
        <pt x="725" y="139" on="0"/>
        <pt x="633" y="42" on="0"/>
        <pt x="499" y="-12" on="0"/>
        <pt x="414" y="-12" on="1"/>
        <pt x="329" y="-12" on="0"/>
        <pt x="196" y="42" on="0"/>
        <pt x="105" y="139" on="0"/>
        <pt x="57" y="272" on="0"/>
      </contour>
      <contour>
        <pt x="182" y="350" on="1"/>
        <pt x="182" y="286" on="0"/>
        <pt x="211" y="174" on="0"/>
        <pt x="271" y="92" on="0"/>
        <pt x="362" y="44" on="0"/>
        <pt x="424" y="44" on="1"/>
        <pt x="481" y="44" on="0"/>
        <pt x="565" y="92" on="0"/>
        <pt x="620" y="174" on="0"/>
        <pt x="648" y="286" on="0"/>
        <pt x="648" y="350" on="1"/>
        <pt x="648" y="414" on="0"/>
        <pt x="619" y="526" on="0"/>
        <pt x="559" y="608" on="0"/>
        <pt x="468" y="656" on="0"/>
        <pt x="405" y="656" on="1"/>
        <pt x="345" y="656" on="0"/>
        <pt x="260" y="608" on="0"/>
        <pt x="206" y="526" on="0"/>
        <pt x="182" y="414" on="0"/>
      </contour>
    </TTGlyph>
    <TTGlyph name="OE" xMin="57" yMin="-12" xMax="1000" yMax="712">
      <contour>
        <pt x="414" y="712" on="1"/>
        <pt x="440" y="712" on="0"/>
        <pt x="510" y="706" on="0"/>
        <pt x="542" y="700" on="1"/>
        <pt x="980" y="700" on="1"/>
        <pt x="980" y="536" on="1"/>
        <pt x="916" y="536" on="1"/>
        <pt x="916" y="622" on="1"/>
        <pt x="896" y="644" on="1"/>
        <pt x="654" y="644" on="1"/>
        <pt x="654" y="385" on="1"/>
        <pt x="823" y="385" on="1"/>
        <pt x="838" y="400" on="1"/>
        <pt x="838" y="442" on="1"/>
        <pt x="902" y="442" on="1"/>
        <pt x="902" y="271" on="1"/>
        <pt x="838" y="271" on="1"/>
        <pt x="838" y="313" on="1"/>
        <pt x="823" y="329" on="1"/>
        <pt x="654" y="329" on="1"/>
        <pt x="654" y="56" on="1"/>
        <pt x="916" y="56" on="1"/>
        <pt x="936" y="76" on="1"/>
        <pt x="936" y="174" on="1"/>
        <pt x="1000" y="174" on="1"/>
        <pt x="1000" y="0" on="1"/>
        <pt x="543" y="0" on="1"/>
        <pt x="514" y="-5" on="0"/>
        <pt x="445" y="-12" on="0"/>
        <pt x="414" y="-12" on="1"/>
        <pt x="329" y="-12" on="0"/>
        <pt x="196" y="42" on="0"/>
        <pt x="105" y="139" on="0"/>
        <pt x="57" y="272" on="0"/>
        <pt x="57" y="350" on="1"/>
        <pt x="57" y="428" on="0"/>
        <pt x="105" y="561" on="0"/>
        <pt x="196" y="658" on="0"/>
        <pt x="329" y="712" on="0"/>
      </contour>
      <contour>
        <pt x="424" y="42" on="1"/>
        <pt x="453" y="42" on="0"/>
        <pt x="514" y="51" on="0"/>
        <pt x="542" y="62" on="1"/>
        <pt x="542" y="633" on="1"/>
        <pt x="513" y="644" on="0"/>
        <pt x="443" y="658" on="0"/>
        <pt x="405" y="658" on="1"/>
        <pt x="345" y="658" on="0"/>
        <pt x="260" y="610" on="0"/>
        <pt x="206" y="526" on="0"/>
        <pt x="182" y="414" on="0"/>
        <pt x="182" y="350" on="1"/>
        <pt x="182" y="286" on="0"/>
        <pt x="211" y="174" on="0"/>
        <pt x="271" y="90" on="0"/>
        <pt x="362" y="42" on="0"/>
      </contour>
    </TTGlyph>
    <TTGlyph name="Oacute" xMin="57" yMin="-12" xMax="773" yMax="914">
      <component glyphName="O" x="0" y="0" flags="0x204"/>
      <component glyphName="uniF6C9" x="256" y="0" flags="0x4"/>
    </TTGlyph>
    <TTGlyph name="Ocircumflex" xMin="57" yMin="-12" xMax="773" yMax="914">
      <component glyphName="O" x="0" y="0" flags="0x204"/>
      <component glyphName="uniF408" x="197" y="0" flags="0x4"/>
    </TTGlyph>
    <TTGlyph name="Odieresis" xMin="57" yMin="-12" xMax="773" yMax="854">
      <component glyphName="O" x="0" y="0" flags="0x204"/>
      <component glyphName="uniF6CB" x="163" y="0" flags="0x4"/>
    </TTGlyph>
    <TTGlyph name="Ograve" xMin="57" yMin="-12" xMax="773" yMax="914">
      <component glyphName="O" x="0" y="0" flags="0x204"/>
      <component glyphName="uniF6CE" x="159" y="0" flags="0x4"/>
    </TTGlyph>
    <TTGlyph name="Ohungarumlaut" xMin="57" yMin="-12" xMax="773" yMax="908">
      <component glyphName="O" x="0" y="0" flags="0x204"/>
      <component glyphName="uniF6CF" x="224" y="0" flags="0x4"/>
    </TTGlyph>
    <TTGlyph name="Omacron" xMin="57" yMin="-12" xMax="773" yMax="851">
      <component glyphName="O" x="0" y="0" flags="0x204"/>
      <component glyphName="uniF6D0" x="185" y="0" flags="0x4"/>
    </TTGlyph>
    <TTGlyph name="Oslash" xMin="57" yMin="-57" xMax="773" yMax="743">
      <contour>
        <pt x="57" y="350" on="1"/>
        <pt x="57" y="428" on="0"/>
        <pt x="105" y="561" on="0"/>
        <pt x="196" y="658" on="0"/>
        <pt x="329" y="712" on="0"/>
        <pt x="414" y="712" on="1"/>
        <pt x="468" y="712" on="0"/>
        <pt x="561" y="689" on="0"/>
        <pt x="600" y="669" on="1"/>
        <pt x="652" y="743" on="1"/>
        <pt x="704" y="708" on="1"/>
        <pt x="652" y="634" on="1"/>
        <pt x="711" y="585" on="0"/>
        <pt x="773" y="439" on="0"/>
        <pt x="773" y="350" on="1"/>
        <pt x="773" y="272" on="0"/>
        <pt x="725" y="139" on="0"/>
        <pt x="633" y="42" on="0"/>
        <pt x="499" y="-12" on="0"/>
        <pt x="414" y="-12" on="1"/>
        <pt x="307" y="-12" on="0"/>
        <pt x="227" y="31" on="1"/>
        <pt x="165" y="-57" on="1"/>
        <pt x="115" y="-21" on="1"/>
        <pt x="176" y="66" on="1"/>
        <pt x="118" y="115" on="0"/>
        <pt x="57" y="260" on="0"/>
      </contour>
      <contour>
        <pt x="648" y="350" on="1"/>
        <pt x="648" y="410" on="0"/>
        <pt x="623" y="515" on="0"/>
        <pt x="597" y="556" on="1"/>
        <pt x="273" y="96" on="1"/>
        <pt x="302" y="70" on="0"/>
        <pt x="376" y="42" on="0"/>
        <pt x="424" y="42" on="1"/>
        <pt x="481" y="42" on="0"/>
        <pt x="565" y="90" on="0"/>
        <pt x="620" y="174" on="0"/>
        <pt x="648" y="286" on="0"/>
      </contour>
      <contour>
        <pt x="182" y="350" on="1"/>
        <pt x="182" y="290" on="0"/>
        <pt x="206" y="186" on="0"/>
        <pt x="232" y="145" on="1"/>
        <pt x="555" y="605" on="1"/>
        <pt x="526" y="630" on="0"/>
        <pt x="452" y="658" on="0"/>
        <pt x="405" y="658" on="1"/>
        <pt x="345" y="658" on="0"/>
        <pt x="260" y="610" on="0"/>
        <pt x="206" y="526" on="0"/>
        <pt x="182" y="414" on="0"/>
      </contour>
    </TTGlyph>
    <TTGlyph name="Otilde" xMin="57" yMin="-12" xMax="773" yMax="894">
      <component glyphName="O" x="0" y="0" flags="0x204"/>
      <component glyphName="uniF40D" x="175" y="0" flags="0x4"/>
    </TTGlyph>
    <TTGlyph name="P" xMin="32" yMin="0" xMax="629" yMax="708">
      <contour>
        <pt x="32" y="644" on="1"/>
        <pt x="32" y="700" on="1"/>
        <pt x="136" y="700" on="1"/>
        <pt x="181" y="700" on="0"/>
        <pt x="286" y="708" on="0"/>
        <pt x="335" y="708" on="1"/>
        <pt x="390" y="708" on="0"/>
        <pt x="496" y="687" on="0"/>
        <pt x="578" y="637" on="0"/>
        <pt x="629" y="554" on="0"/>
        <pt x="629" y="492" on="1"/>
        <pt x="629" y="433" on="0"/>
        <pt x="577" y="348" on="0"/>
        <pt x="492" y="294" on="0"/>
        <pt x="381" y="268" on="0"/>
        <pt x="322" y="268" on="1"/>
        <pt x="316" y="268" on="0"/>
        <pt x="292" y="268" on="0"/>
        <pt x="265" y="269" on="0"/>
        <pt x="241" y="271" on="0"/>
        <pt x="235" y="272" on="1"/>
        <pt x="235" y="56" on="1"/>
        <pt x="335" y="56" on="1"/>
        <pt x="335" y="0" on="1"/>
        <pt x="32" y="0" on="1"/>
        <pt x="32" y="56" on="1"/>
        <pt x="123" y="56" on="1"/>
        <pt x="123" y="644" on="1"/>
      </contour>
      <contour>
        <pt x="235" y="329" on="1"/>
        <pt x="240" y="327" on="0"/>
        <pt x="261" y="326" on="0"/>
        <pt x="285" y="324" on="0"/>
        <pt x="308" y="324" on="0"/>
        <pt x="314" y="324" on="1"/>
        <pt x="353" y="324" on="0"/>
        <pt x="422" y="343" on="0"/>
        <pt x="474" y="383" on="0"/>
        <pt x="504" y="447" on="0"/>
        <pt x="504" y="492" on="1"/>
        <pt x="504" y="574" on="0"/>
        <pt x="401" y="652" on="0"/>
        <pt x="312" y="652" on="1"/>
        <pt x="285" y="652" on="0"/>
        <pt x="249" y="649" on="0"/>
        <pt x="235" y="646" on="1"/>
      </contour>
    </TTGlyph>
    <TTGlyph name="Q" xMin="57" yMin="-202" xMax="859" yMax="712">
      <contour>
        <pt x="859" y="-131" on="1"/>
        <pt x="815" y="-168" on="0"/>
        <pt x="714" y="-202" on="0"/>
        <pt x="660" y="-202" on="1"/>
        <pt x="614" y="-202" on="0"/>
        <pt x="507" y="-168" on="0"/>
        <pt x="389" y="-125" on="0"/>
        <pt x="263" y="-84" on="0"/>
        <pt x="197" y="-77" on="1"/>
        <pt x="205" y="-37" on="1"/>
        <pt x="229" y="-34" on="0"/>
        <pt x="252" y="-34" on="1"/>
        <pt x="309" y="-34" on="0"/>
        <pt x="421" y="-59" on="0"/>
        <pt x="535" y="-89" on="0"/>
        <pt x="651" y="-114" on="0"/>
        <pt x="711" y="-114" on="1"/>
        <pt x="743" y="-114" on="0"/>
        <pt x="809" y="-104" on="0"/>
        <pt x="843" y="-93" on="1"/>
      </contour>
      <contour>
        <pt x="57" y="350" on="1"/>
        <pt x="57" y="428" on="0"/>
        <pt x="105" y="561" on="0"/>
        <pt x="196" y="658" on="0"/>
        <pt x="329" y="712" on="0"/>
        <pt x="414" y="712" on="1"/>
        <pt x="499" y="712" on="0"/>
        <pt x="633" y="658" on="0"/>
        <pt x="725" y="561" on="0"/>
        <pt x="773" y="428" on="0"/>
        <pt x="773" y="350" on="1"/>
        <pt x="773" y="272" on="0"/>
        <pt x="725" y="139" on="0"/>
        <pt x="633" y="42" on="0"/>
        <pt x="499" y="-12" on="0"/>
        <pt x="414" y="-12" on="1"/>
        <pt x="329" y="-12" on="0"/>
        <pt x="196" y="42" on="0"/>
        <pt x="105" y="139" on="0"/>
        <pt x="57" y="272" on="0"/>
      </contour>
      <contour>
        <pt x="182" y="350" on="1"/>
        <pt x="182" y="286" on="0"/>
        <pt x="211" y="174" on="0"/>
        <pt x="271" y="92" on="0"/>
        <pt x="362" y="44" on="0"/>
        <pt x="424" y="44" on="1"/>
        <pt x="481" y="44" on="0"/>
        <pt x="565" y="92" on="0"/>
        <pt x="620" y="174" on="0"/>
        <pt x="648" y="286" on="0"/>
        <pt x="648" y="350" on="1"/>
        <pt x="648" y="414" on="0"/>
        <pt x="619" y="526" on="0"/>
        <pt x="559" y="608" on="0"/>
        <pt x="468" y="656" on="0"/>
        <pt x="405" y="656" on="1"/>
        <pt x="345" y="656" on="0"/>
        <pt x="260" y="608" on="0"/>
        <pt x="206" y="526" on="0"/>
        <pt x="182" y="414" on="0"/>
      </contour>
    </TTGlyph>
    <TTGlyph name="R" xMin="32" yMin="0" xMax="698" yMax="708">
      <contour>
        <pt x="235" y="56" on="1"/>
        <pt x="321" y="56" on="1"/>
        <pt x="321" y="0" on="1"/>
        <pt x="32" y="0" on="1"/>
        <pt x="32" y="56" on="1"/>
        <pt x="123" y="56" on="1"/>
        <pt x="123" y="644" on="1"/>
        <pt x="32" y="644" on="1"/>
        <pt x="32" y="700" on="1"/>
        <pt x="133" y="700" on="1"/>
        <pt x="178" y="700" on="0"/>
        <pt x="284" y="708" on="0"/>
        <pt x="335" y="708" on="1"/>
        <pt x="390" y="708" on="0"/>
        <pt x="487" y="685" on="0"/>
        <pt x="557" y="637" on="0"/>
        <pt x="598" y="562" on="0"/>
        <pt x="598" y="510" on="1"/>
        <pt x="598" y="438" on="0"/>
        <pt x="509" y="337" on="0"/>
        <pt x="437" y="316" on="1"/>
        <pt x="636" y="56" on="1"/>
        <pt x="698" y="56" on="1"/>
        <pt x="698" y="0" on="1"/>
        <pt x="536" y="0" on="1"/>
        <pt x="337" y="302" on="1"/>
        <pt x="235" y="302" on="1"/>
      </contour>
      <contour>
        <pt x="314" y="354" on="1"/>
        <pt x="391" y="354" on="0"/>
        <pt x="478" y="438" on="0"/>
        <pt x="478" y="510" on="1"/>
        <pt x="478" y="584" on="0"/>
        <pt x="386" y="652" on="0"/>
        <pt x="310" y="652" on="1"/>
        <pt x="284" y="652" on="0"/>
        <pt x="249" y="648" on="0"/>
        <pt x="235" y="646" on="1"/>
        <pt x="235" y="354" on="1"/>
      </contour>
    </TTGlyph>
    <TTGlyph name="Racute" xMin="32" yMin="0" xMax="698" yMax="914">
      <component glyphName="R" x="0" y="0" flags="0x204"/>
      <component glyphName="uniF6C9" x="211" y="0" flags="0x4"/>
    </TTGlyph>
    <TTGlyph name="Rcaron" xMin="32" yMin="0" xMax="698" yMax="919">
      <component glyphName="R" x="0" y="0" flags="0x204"/>
      <component glyphName="uniF6CA" x="103" y="0" flags="0x4"/>
    </TTGlyph>
    <TTGlyph name="Rcommaaccent" xMin="32" yMin="-280" xMax="698" yMax="708">
      <component glyphName="R" x="0" y="0" flags="0x204"/>
      <component glyphName="uniF409" x="203" y="0" flags="0x4"/>
    </TTGlyph>
    <TTGlyph name="S" xMin="62" yMin="-12" xMax="541" yMax="712">
      <contour>
        <pt x="126" y="98" on="1"/>
        <pt x="144" y="74" on="1"/>
        <pt x="162" y="61" on="0"/>
        <pt x="225" y="44" on="0"/>
        <pt x="263" y="44" on="1"/>
        <pt x="299" y="44" on="0"/>
        <pt x="360" y="59" on="0"/>
        <pt x="406" y="89" on="0"/>
        <pt x="432" y="135" on="0"/>
        <pt x="432" y="167" on="1"/>
        <pt x="432" y="208" on="0"/>
        <pt x="377" y="262" on="0"/>
        <pt x="295" y="304" on="0"/>
        <pt x="199" y="344" on="0"/>
        <pt x="117" y="398" on="0"/>
        <pt x="62" y="474" on="0"/>
        <pt x="62" y="532" on="1"/>
        <pt x="62" y="617" on="0"/>
        <pt x="191" y="712" on="0"/>
        <pt x="301" y="712" on="1"/>
        <pt x="370" y="712" on="0"/>
        <pt x="470" y="694" on="0"/>
        <pt x="505" y="679" on="1"/>
        <pt x="505" y="507" on="1"/>
        <pt x="441" y="507" on="1"/>
        <pt x="441" y="615" on="1"/>
        <pt x="425" y="640" on="1"/>
        <pt x="406" y="648" on="0"/>
        <pt x="334" y="656" on="0"/>
        <pt x="299" y="656" on="1"/>
        <pt x="239" y="656" on="0"/>
        <pt x="171" y="601" on="0"/>
        <pt x="171" y="551" on="1"/>
        <pt x="171" y="510" on="0"/>
        <pt x="226" y="455" on="0"/>
        <pt x="308" y="411" on="0"/>
        <pt x="404" y="370" on="0"/>
        <pt x="486" y="317" on="0"/>
        <pt x="541" y="243" on="0"/>
        <pt x="541" y="188" on="1"/>
        <pt x="541" y="91" on="0"/>
        <pt x="391" y="-12" on="0"/>
        <pt x="261" y="-12" on="1"/>
        <pt x="190" y="-12" on="0"/>
        <pt x="86" y="18" on="0"/>
        <pt x="62" y="35" on="1"/>
        <pt x="62" y="217" on="1"/>
        <pt x="126" y="217" on="1"/>
      </contour>
    </TTGlyph>
    <TTGlyph name="Sacute" xMin="62" yMin="-12" xMax="541" yMax="914">
      <component glyphName="S" x="0" y="0" flags="0x204"/>
      <component glyphName="uniF6C9" x="189" y="0" flags="0x4"/>
    </TTGlyph>
    <TTGlyph name="Scaron" xMin="62" yMin="-12" xMax="541" yMax="919">
      <component glyphName="S" x="0" y="0" flags="0x204"/>
      <component glyphName="uniF6CA" x="89" y="0" flags="0x4"/>
    </TTGlyph>
    <TTGlyph name="Scedilla" xMin="62" yMin="-232" xMax="541" yMax="712">
      <contour>
        <pt x="126" y="98" on="1"/>
        <pt x="144" y="74" on="1"/>
        <pt x="162" y="61" on="0"/>
        <pt x="225" y="44" on="0"/>
        <pt x="263" y="44" on="1"/>
        <pt x="299" y="44" on="0"/>
        <pt x="360" y="59" on="0"/>
        <pt x="406" y="89" on="0"/>
        <pt x="432" y="135" on="0"/>
        <pt x="432" y="167" on="1"/>
        <pt x="432" y="208" on="0"/>
        <pt x="377" y="262" on="0"/>
        <pt x="295" y="304" on="0"/>
        <pt x="199" y="344" on="0"/>
        <pt x="117" y="398" on="0"/>
        <pt x="62" y="474" on="0"/>
        <pt x="62" y="532" on="1"/>
        <pt x="62" y="617" on="0"/>
        <pt x="191" y="712" on="0"/>
        <pt x="301" y="712" on="1"/>
        <pt x="370" y="712" on="0"/>
        <pt x="470" y="694" on="0"/>
        <pt x="505" y="679" on="1"/>
        <pt x="505" y="507" on="1"/>
        <pt x="441" y="507" on="1"/>
        <pt x="441" y="615" on="1"/>
        <pt x="425" y="640" on="1"/>
        <pt x="406" y="648" on="0"/>
        <pt x="334" y="656" on="0"/>
        <pt x="299" y="656" on="1"/>
        <pt x="239" y="656" on="0"/>
        <pt x="171" y="601" on="0"/>
        <pt x="171" y="551" on="1"/>
        <pt x="171" y="510" on="0"/>
        <pt x="226" y="455" on="0"/>
        <pt x="308" y="411" on="0"/>
        <pt x="404" y="370" on="0"/>
        <pt x="486" y="317" on="0"/>
        <pt x="541" y="243" on="0"/>
        <pt x="541" y="188" on="1"/>
        <pt x="541" y="100" on="0"/>
        <pt x="417" y="-2" on="0"/>
        <pt x="307" y="-10" on="1"/>
        <pt x="280" y="-64" on="1"/>
        <pt x="348" y="-66" on="0"/>
        <pt x="414" y="-99" on="0"/>
        <pt x="414" y="-135" on="1"/>
        <pt x="414" y="-165" on="0"/>
        <pt x="374" y="-203" on="0"/>
        <pt x="313" y="-224" on="0"/>
        <pt x="241" y="-232" on="0"/>
        <pt x="209" y="-232" on="1"/>
        <pt x="209" y="-199" on="1"/>
        <pt x="231" y="-198" on="0"/>
        <pt x="268" y="-193" on="0"/>
        <pt x="296" y="-183" on="0"/>
        <pt x="312" y="-166" on="0"/>
        <pt x="312" y="-152" on="1"/>
        <pt x="312" y="-125" on="0"/>
        <pt x="262" y="-109" on="0"/>
        <pt x="212" y="-107" on="1"/>
        <pt x="251" y="-12" on="1"/>
        <pt x="184" y="-10" on="0"/>
        <pt x="85" y="19" on="0"/>
        <pt x="62" y="35" on="1"/>
        <pt x="62" y="217" on="1"/>
        <pt x="126" y="217" on="1"/>
      </contour>
    </TTGlyph>
    <TTGlyph name="Scircumflex" xMin="62" yMin="-12" xMax="541" yMax="914">
      <component glyphName="S" x="0" y="0" flags="0x204"/>
      <component glyphName="uniF408" x="99" y="0" flags="0x4"/>
    </TTGlyph>
    <TTGlyph name="Scommaaccent" xMin="62" yMin="-280" xMax="541" yMax="712">
      <component glyphName="S" x="0" y="0" flags="0x204"/>
      <component glyphName="uniF409" x="142" y="0" flags="0x4"/>
    </TTGlyph>
    <TTGlyph name="T" xMin="22" yMin="0" xMax="676" yMax="700">
      <contour>
        <pt x="508" y="0" on="1"/>
        <pt x="190" y="0" on="1"/>
        <pt x="190" y="56" on="1"/>
        <pt x="293" y="56" on="1"/>
        <pt x="293" y="644" on="1"/>
        <pt x="114" y="644" on="1"/>
        <pt x="94" y="622" on="1"/>
        <pt x="94" y="493" on="1"/>
        <pt x="22" y="493" on="1"/>
        <pt x="22" y="700" on="1"/>
        <pt x="676" y="700" on="1"/>
        <pt x="676" y="493" on="1"/>
        <pt x="604" y="493" on="1"/>
        <pt x="604" y="622" on="1"/>
        <pt x="584" y="644" on="1"/>
        <pt x="405" y="644" on="1"/>
        <pt x="405" y="56" on="1"/>
        <pt x="508" y="56" on="1"/>
      </contour>
    </TTGlyph>
    <TTGlyph name="Tcaron" xMin="22" yMin="0" xMax="676" yMax="919">
      <component glyphName="T" x="0" y="0" flags="0x204"/>
      <component glyphName="uniF6CA" x="133" y="0" flags="0x4"/>
    </TTGlyph>
    <TTGlyph name="Tcedilla" xMin="22" yMin="-232" xMax="676" yMax="700">
      <contour>
        <pt x="508" y="0" on="1"/>
        <pt x="377" y="0" on="1"/>
        <pt x="344" y="-64" on="1"/>
        <pt x="412" y="-66" on="0"/>
        <pt x="478" y="-99" on="0"/>
        <pt x="478" y="-135" on="1"/>
        <pt x="478" y="-165" on="0"/>
        <pt x="438" y="-203" on="0"/>
        <pt x="377" y="-224" on="0"/>
        <pt x="305" y="-232" on="0"/>
        <pt x="273" y="-232" on="1"/>
        <pt x="273" y="-199" on="1"/>
        <pt x="295" y="-198" on="0"/>
        <pt x="332" y="-193" on="0"/>
        <pt x="360" y="-183" on="0"/>
        <pt x="376" y="-166" on="0"/>
        <pt x="376" y="-152" on="1"/>
        <pt x="376" y="-125" on="0"/>
        <pt x="326" y="-109" on="0"/>
        <pt x="276" y="-107" on="1"/>
        <pt x="320" y="0" on="1"/>
        <pt x="190" y="0" on="1"/>
        <pt x="190" y="56" on="1"/>
        <pt x="293" y="56" on="1"/>
        <pt x="293" y="644" on="1"/>
        <pt x="114" y="644" on="1"/>
        <pt x="94" y="622" on="1"/>
        <pt x="94" y="493" on="1"/>
        <pt x="22" y="493" on="1"/>
        <pt x="22" y="700" on="1"/>
        <pt x="676" y="700" on="1"/>
        <pt x="676" y="493" on="1"/>
        <pt x="604" y="493" on="1"/>
        <pt x="604" y="622" on="1"/>
        <pt x="584" y="644" on="1"/>
        <pt x="405" y="644" on="1"/>
        <pt x="405" y="56" on="1"/>
        <pt x="508" y="56" on="1"/>
      </contour>
    </TTGlyph>
    <TTGlyph name="Tcommaaccent" xMin="22" yMin="-280" xMax="676" yMax="700">
      <component glyphName="T" x="0" y="0" flags="0x204"/>
      <component glyphName="uniF409" x="203" y="0" flags="0x4"/>
    </TTGlyph>
    <TTGlyph name="Thorn" xMin="32" yMin="0" xMax="628" yMax="700">
      <contour>
        <pt x="32" y="644" on="1"/>
        <pt x="32" y="700" on="1"/>
        <pt x="324" y="700" on="1"/>
        <pt x="324" y="644" on="1"/>
        <pt x="235" y="644" on="1"/>
        <pt x="235" y="597" on="1"/>
        <pt x="260" y="599" on="0"/>
        <pt x="311" y="601" on="0"/>
        <pt x="336" y="601" on="1"/>
        <pt x="391" y="601" on="0"/>
        <pt x="496" y="580" on="0"/>
        <pt x="578" y="532" on="0"/>
        <pt x="628" y="451" on="0"/>
        <pt x="628" y="391" on="1"/>
        <pt x="628" y="334" on="0"/>
        <pt x="576" y="253" on="0"/>
        <pt x="491" y="200" on="0"/>
        <pt x="380" y="175" on="0"/>
        <pt x="321" y="175" on="1"/>
        <pt x="315" y="175" on="0"/>
        <pt x="291" y="175" on="0"/>
        <pt x="265" y="176" on="0"/>
        <pt x="241" y="177" on="0"/>
        <pt x="235" y="178" on="1"/>
        <pt x="235" y="56" on="1"/>
        <pt x="344" y="56" on="1"/>
        <pt x="344" y="0" on="1"/>
        <pt x="32" y="0" on="1"/>
        <pt x="32" y="56" on="1"/>
        <pt x="123" y="56" on="1"/>
        <pt x="123" y="644" on="1"/>
      </contour>
      <contour>
        <pt x="311" y="545" on="1"/>
        <pt x="284" y="545" on="0"/>
        <pt x="249" y="542" on="0"/>
        <pt x="235" y="539" on="1"/>
        <pt x="235" y="236" on="1"/>
        <pt x="240" y="234" on="0"/>
        <pt x="261" y="233" on="0"/>
        <pt x="285" y="231" on="0"/>
        <pt x="307" y="231" on="0"/>
        <pt x="313" y="231" on="1"/>
        <pt x="352" y="231" on="0"/>
        <pt x="421" y="249" on="0"/>
        <pt x="473" y="288" on="0"/>
        <pt x="503" y="348" on="0"/>
        <pt x="503" y="391" on="1"/>
        <pt x="503" y="469" on="0"/>
        <pt x="400" y="545" on="0"/>
      </contour>
    </TTGlyph>
    <TTGlyph name="U" xMin="12" yMin="-9" xMax="750" yMax="700">
      <contour>
        <pt x="659" y="239" on="1"/>
        <pt x="659" y="175" on="0"/>
        <pt x="621" y="82" on="0"/>
        <pt x="552" y="21" on="0"/>
        <pt x="454" y="-9" on="0"/>
        <pt x="394" y="-9" on="1"/>
        <pt x="252" y="-9" on="0"/>
        <pt x="103" y="104" on="0"/>
        <pt x="103" y="222" on="1"/>
        <pt x="103" y="644" on="1"/>
        <pt x="12" y="644" on="1"/>
        <pt x="12" y="700" on="1"/>
        <pt x="296" y="700" on="1"/>
        <pt x="296" y="644" on="1"/>
        <pt x="215" y="644" on="1"/>
        <pt x="215" y="243" on="1"/>
        <pt x="215" y="191" on="0"/>
        <pt x="241" y="120" on="0"/>
        <pt x="290" y="77" on="0"/>
        <pt x="362" y="58" on="0"/>
        <pt x="408" y="58" on="1"/>
        <pt x="496" y="58" on="0"/>
        <pt x="595" y="146" on="0"/>
        <pt x="595" y="246" on="1"/>
        <pt x="595" y="644" on="1"/>
        <pt x="514" y="644" on="1"/>
        <pt x="514" y="700" on="1"/>
        <pt x="750" y="700" on="1"/>
        <pt x="750" y="644" on="1"/>
        <pt x="659" y="644" on="1"/>
        <pt x="659" y="239" on="1"/>
      </contour>
    </TTGlyph>
    <TTGlyph name="Uacute" xMin="12" yMin="-9" xMax="750" yMax="914">
      <component glyphName="U" x="0" y="0" flags="0x204"/>
      <component glyphName="uniF6C9" x="309" y="0" flags="0x4"/>
    </TTGlyph>
    <TTGlyph name="Ubreve" xMin="12" yMin="-9" xMax="750" yMax="907">
      <component glyphName="U" x="0" y="0" flags="0x204"/>
      <component glyphName="uniF406" x="161" y="0" flags="0x4"/>
    </TTGlyph>
    <TTGlyph name="Ucircumflex" xMin="12" yMin="-9" xMax="750" yMax="914">
      <component glyphName="U" x="0" y="0" flags="0x204"/>
      <component glyphName="uniF408" x="186" y="0" flags="0x4"/>
    </TTGlyph>
    <TTGlyph name="Udieresis" xMin="12" yMin="-9" xMax="750" yMax="854">
      <component glyphName="U" x="0" y="0" flags="0x204"/>
      <component glyphName="uniF6CB" x="153" y="0" flags="0x4"/>
    </TTGlyph>
    <TTGlyph name="Ugrave" xMin="12" yMin="-9" xMax="750" yMax="914">
      <component glyphName="U" x="0" y="0" flags="0x204"/>
      <component glyphName="uniF6CE" x="119" y="0" flags="0x4"/>
    </TTGlyph>
    <TTGlyph name="Uhungarumlaut" xMin="12" yMin="-9" xMax="750" yMax="908">
      <component glyphName="U" x="0" y="0" flags="0x204"/>
      <component glyphName="uniF6CF" x="210" y="0" flags="0x4"/>
    </TTGlyph>
    <TTGlyph name="Umacron" xMin="12" yMin="-9" xMax="750" yMax="851">
      <component glyphName="U" x="0" y="0" flags="0x204"/>
      <component glyphName="uniF6D0" x="170" y="0" flags="0x4"/>
    </TTGlyph>
    <TTGlyph name="Uogonek" xMin="12" yMin="-211" xMax="750" yMax="700">
      <contour>
        <pt x="659" y="239" on="1"/>
        <pt x="659" y="137" on="0"/>
        <pt x="567" y="21" on="0"/>
        <pt x="486" y="1" on="1"/>
        <pt x="439" y="-17" on="0"/>
        <pt x="386" y="-68" on="0"/>
        <pt x="386" y="-110" on="1"/>
        <pt x="386" y="-137" on="0"/>
        <pt x="426" y="-158" on="0"/>
        <pt x="459" y="-158" on="1"/>
        <pt x="493" y="-158" on="0"/>
        <pt x="522" y="-152" on="1"/>
        <pt x="522" y="-183" on="1"/>
        <pt x="506" y="-194" on="0"/>
        <pt x="456" y="-211" on="0"/>
        <pt x="419" y="-211" on="1"/>
        <pt x="393" y="-211" on="0"/>
        <pt x="346" y="-201" on="0"/>
        <pt x="311" y="-181" on="0"/>
        <pt x="290" y="-150" on="0"/>
        <pt x="290" y="-128" on="1"/>
        <pt x="290" y="-87" on="0"/>
        <pt x="345" y="-29" on="0"/>
        <pt x="388" y="-9" on="1"/>
        <pt x="249" y="-7" on="0"/>
        <pt x="103" y="105" on="0"/>
        <pt x="103" y="222" on="1"/>
        <pt x="103" y="644" on="1"/>
        <pt x="12" y="644" on="1"/>
        <pt x="12" y="700" on="1"/>
        <pt x="296" y="700" on="1"/>
        <pt x="296" y="644" on="1"/>
        <pt x="215" y="644" on="1"/>
        <pt x="215" y="243" on="1"/>
        <pt x="215" y="191" on="0"/>
        <pt x="241" y="120" on="0"/>
        <pt x="290" y="77" on="0"/>
        <pt x="362" y="58" on="0"/>
        <pt x="408" y="58" on="1"/>
        <pt x="496" y="58" on="0"/>
        <pt x="595" y="146" on="0"/>
        <pt x="595" y="246" on="1"/>
        <pt x="595" y="644" on="1"/>
        <pt x="514" y="644" on="1"/>
        <pt x="514" y="700" on="1"/>
        <pt x="750" y="700" on="1"/>
        <pt x="750" y="644" on="1"/>
        <pt x="659" y="644" on="1"/>
        <pt x="659" y="239" on="1"/>
      </contour>
    </TTGlyph>
    <TTGlyph name="Uring" xMin="12" yMin="-9" xMax="750" yMax="874">
      <component glyphName="U" x="0" y="0" flags="0x204"/>
      <component glyphName="uniF40C" x="216" y="0" flags="0x4"/>
    </TTGlyph>
    <TTGlyph name="V" xMin="0" yMin="0" xMax="771" yMax="700">
      <contour>
        <pt x="614" y="644" on="1"/>
        <pt x="523" y="644" on="1"/>
        <pt x="523" y="700" on="1"/>
        <pt x="771" y="700" on="1"/>
        <pt x="771" y="644" on="1"/>
        <pt x="689" y="644" on="1"/>
        <pt x="457" y="0" on="1"/>
        <pt x="346" y="0" on="1"/>
        <pt x="86" y="644" on="1"/>
        <pt x="0" y="644" on="1"/>
        <pt x="0" y="700" on="1"/>
        <pt x="307" y="700" on="1"/>
        <pt x="307" y="644" on="1"/>
        <pt x="211" y="644" on="1"/>
        <pt x="391" y="177" on="1"/>
        <pt x="420" y="82" on="1"/>
        <pt x="424" y="82" on="1"/>
        <pt x="454" y="179" on="1"/>
      </contour>
    </TTGlyph>
    <TTGlyph name="W" xMin="0" yMin="0" xMax="1056" yMax="700">
      <contour>
        <pt x="897" y="644" on="1"/>
        <pt x="810" y="644" on="1"/>
        <pt x="810" y="700" on="1"/>
        <pt x="1056" y="700" on="1"/>
        <pt x="1056" y="644" on="1"/>
        <pt x="973" y="644" on="1"/>
        <pt x="806" y="0" on="1"/>
        <pt x="690" y="0" on="1"/>
        <pt x="534" y="554" on="1"/>
        <pt x="377" y="0" on="1"/>
        <pt x="261" y="0" on="1"/>
        <pt x="86" y="644" on="1"/>
        <pt x="0" y="644" on="1"/>
        <pt x="0" y="700" on="1"/>
        <pt x="299" y="700" on="1"/>
        <pt x="299" y="644" on="1"/>
        <pt x="204" y="644" on="1"/>
        <pt x="311" y="216" on="1"/>
        <pt x="337" y="83" on="1"/>
        <pt x="341" y="83" on="1"/>
        <pt x="380" y="218" on="1"/>
        <pt x="380" y="219" on="0"/>
        <pt x="392" y="262" on="0"/>
        <pt x="412" y="330" on="0"/>
        <pt x="436" y="417" on="0"/>
        <pt x="449" y="462" on="1"/>
        <pt x="479" y="568" on="0"/>
        <pt x="517" y="700" on="1"/>
        <pt x="591" y="700" on="1"/>
        <pt x="733" y="218" on="1"/>
        <pt x="764" y="85" on="1"/>
        <pt x="769" y="85" on="1"/>
        <pt x="799" y="220" on="1"/>
      </contour>
    </TTGlyph>
    <TTGlyph name="X" xMin="10" yMin="0" xMax="744" yMax="700">
      <contour>
        <pt x="449" y="700" on="1"/>
        <pt x="701" y="700" on="1"/>
        <pt x="701" y="644" on="1"/>
        <pt x="619" y="644" on="1"/>
        <pt x="423" y="375" on="1"/>
        <pt x="653" y="56" on="1"/>
        <pt x="744" y="56" on="1"/>
        <pt x="744" y="0" on="1"/>
        <pt x="453" y="0" on="1"/>
        <pt x="453" y="56" on="1"/>
        <pt x="526" y="56" on="1"/>
        <pt x="350" y="303" on="1"/>
        <pt x="184" y="56" on="1"/>
        <pt x="261" y="56" on="1"/>
        <pt x="261" y="0" on="1"/>
        <pt x="10" y="0" on="1"/>
        <pt x="10" y="56" on="1"/>
        <pt x="94" y="56" on="1"/>
        <pt x="313" y="352" on="1"/>
        <pt x="103" y="644" on="1"/>
        <pt x="14" y="644" on="1"/>
        <pt x="14" y="700" on="1"/>
        <pt x="312" y="700" on="1"/>
        <pt x="312" y="644" on="1"/>
        <pt x="232" y="644" on="1"/>
        <pt x="387" y="421" on="1"/>
        <pt x="537" y="644" on="1"/>
        <pt x="449" y="644" on="1"/>
      </contour>
    </TTGlyph>
    <TTGlyph name="Y" xMin="0" yMin="0" xMax="727" yMax="700">
      <contour>
        <pt x="478" y="700" on="1"/>
        <pt x="727" y="700" on="1"/>
        <pt x="727" y="644" on="1"/>
        <pt x="642" y="644" on="1"/>
        <pt x="429" y="297" on="1"/>
        <pt x="429" y="56" on="1"/>
        <pt x="520" y="56" on="1"/>
        <pt x="520" y="0" on="1"/>
        <pt x="226" y="0" on="1"/>
        <pt x="226" y="56" on="1"/>
        <pt x="317" y="56" on="1"/>
        <pt x="317" y="296" on="1"/>
        <pt x="91" y="644" on="1"/>
        <pt x="0" y="644" on="1"/>
        <pt x="0" y="700" on="1"/>
        <pt x="302" y="700" on="1"/>
        <pt x="302" y="644" on="1"/>
        <pt x="218" y="644" on="1"/>
        <pt x="399" y="353" on="1"/>
        <pt x="570" y="644" on="1"/>
        <pt x="478" y="644" on="1"/>
      </contour>
    </TTGlyph>
    <TTGlyph name="Yacute" xMin="0" yMin="0" xMax="727" yMax="914">
      <component glyphName="Y" x="0" y="0" flags="0x204"/>
      <component glyphName="uniF6C9" x="298" y="0" flags="0x4"/>
    </TTGlyph>
    <TTGlyph name="Ydieresis" xMin="0" yMin="0" xMax="727" yMax="854">
      <component glyphName="Y" x="0" y="0" flags="0x204"/>
      <component glyphName="uniF6CB" x="139" y="0" flags="0x4"/>
    </TTGlyph>
    <TTGlyph name="Z" xMin="40" yMin="0" xMax="632" yMax="700">
      <contour>
        <pt x="40" y="56" on="1"/>
        <pt x="498" y="644" on="1"/>
        <pt x="157" y="644" on="1"/>
        <pt x="137" y="622" on="1"/>
        <pt x="137" y="497" on="1"/>
        <pt x="65" y="497" on="1"/>
        <pt x="65" y="700" on="1"/>
        <pt x="626" y="700" on="1"/>
        <pt x="626" y="644" on="1"/>
        <pt x="168" y="56" on="1"/>
        <pt x="540" y="56" on="1"/>
        <pt x="560" y="78" on="1"/>
        <pt x="560" y="203" on="1"/>
        <pt x="632" y="203" on="1"/>
        <pt x="632" y="0" on="1"/>
        <pt x="40" y="0" on="1"/>
      </contour>
    </TTGlyph>
    <TTGlyph name="Zacute" xMin="40" yMin="0" xMax="632" yMax="914">
      <component glyphName="Z" x="0" y="0" flags="0x204"/>
      <component glyphName="uniF6C9" x="230" y="0" flags="0x4"/>
    </TTGlyph>
    <TTGlyph name="Zcaron" xMin="40" yMin="0" xMax="632" yMax="919">
      <component glyphName="Z" x="0" y="0" flags="0x204"/>
      <component glyphName="uniF6CA" x="123" y="0" flags="0x4"/>
    </TTGlyph>
    <TTGlyph name="Zdotaccent" xMin="40" yMin="0" xMax="632" yMax="880">
      <component glyphName="Z" x="0" y="0" flags="0x204"/>
      <component glyphName="uniF40B" x="193" y="0" flags="0x4"/>
    </TTGlyph>
    <TTGlyph name="a" xMin="43" yMin="-11" xMax="534" yMax="535">
      <contour>
        <pt x="464" y="139" on="1"/>
        <pt x="464" y="116" on="0"/>
        <pt x="466" y="69" on="0"/>
        <pt x="468" y="50" on="1"/>
        <pt x="534" y="50" on="1"/>
        <pt x="534" y="0" on="1"/>
        <pt x="377" y="0" on="1"/>
        <pt x="367" y="95" on="1"/>
        <pt x="362" y="95" on="1"/>
        <pt x="357" y="75" on="0"/>
        <pt x="330" y="37" on="0"/>
        <pt x="289" y="7" on="0"/>
        <pt x="233" y="-11" on="0"/>
        <pt x="199" y="-11" on="1"/>
        <pt x="165" y="-11" on="0"/>
        <pt x="108" y="9" on="0"/>
        <pt x="66" y="45" on="0"/>
        <pt x="43" y="96" on="0"/>
        <pt x="43" y="128" on="1"/>
        <pt x="43" y="177" on="0"/>
        <pt x="84" y="241" on="0"/>
        <pt x="164" y="278" on="0"/>
        <pt x="284" y="294" on="0"/>
        <pt x="364" y="295" on="1"/>
        <pt x="366" y="311" on="0"/>
        <pt x="366" y="340" on="0"/>
        <pt x="366" y="354" on="1"/>
        <pt x="366" y="416" on="0"/>
        <pt x="324" y="481" on="0"/>
        <pt x="270" y="481" on="1"/>
        <pt x="250" y="481" on="0"/>
        <pt x="204" y="477" on="0"/>
        <pt x="185" y="467" on="1"/>
        <pt x="185" y="375" on="1"/>
        <pt x="95" y="375" on="1"/>
        <pt x="95" y="486" on="1"/>
        <pt x="131" y="505" on="0"/>
        <pt x="229" y="535" on="0"/>
        <pt x="295" y="535" on="1"/>
        <pt x="352" y="535" on="0"/>
        <pt x="421" y="506" on="0"/>
        <pt x="458" y="459" on="0"/>
        <pt x="469" y="400" on="0"/>
        <pt x="469" y="371" on="1"/>
        <pt x="469" y="308" on="0"/>
        <pt x="464" y="193" on="0"/>
      </contour>
      <contour>
        <pt x="245" y="56" on="1"/>
        <pt x="269" y="56" on="0"/>
        <pt x="307" y="71" on="0"/>
        <pt x="336" y="94" on="0"/>
        <pt x="357" y="122" on="0"/>
        <pt x="364" y="135" on="1"/>
        <pt x="364" y="254" on="1"/>
        <pt x="299" y="254" on="0"/>
        <pt x="218" y="237" on="0"/>
        <pt x="172" y="209" on="0"/>
        <pt x="155" y="170" on="0"/>
        <pt x="155" y="148" on="1"/>
        <pt x="155" y="103" on="0"/>
        <pt x="203" y="56" on="0"/>
      </contour>
    </TTGlyph>
    <TTGlyph name="aacute" xMin="43" yMin="-11" xMax="534" yMax="750">
      <component glyphName="a" x="0" y="0" flags="0x204"/>
      <component glyphName="acute" x="164" y="0" flags="0x4"/>
    </TTGlyph>
    <TTGlyph name="abreve" xMin="43" yMin="-11" xMax="534" yMax="772">
      <component glyphName="a" x="0" y="0" flags="0x204"/>
      <component glyphName="breve" x="71" y="0" flags="0x4"/>
    </TTGlyph>
    <TTGlyph name="acircumflex" xMin="43" yMin="-11" xMax="534" yMax="832">
      <component glyphName="a" x="0" y="0" flags="0x204"/>
      <component glyphName="circumflex" x="86" y="0" flags="0x4"/>
    </TTGlyph>
    <TTGlyph name="acute" xMin="60" yMin="592" xMax="284" yMax="750">
      <contour>
        <pt x="158" y="750" on="1"/>
        <pt x="284" y="750" on="1"/>
        <pt x="284" y="709" on="1"/>
        <pt x="88" y="592" on="1"/>
        <pt x="60" y="615" on="1"/>
      </contour>
    </TTGlyph>
    <TTGlyph name="acutecomb" xMin="-325" yMin="592" xMax="-101" yMax="750">
      <component glyphName="acute" x="-385" y="0" flags="0x4"/>
    </TTGlyph>
    <TTGlyph name="adieresis" xMin="43" yMin="-11" xMax="534" yMax="752">
      <component glyphName="a" x="0" y="0" flags="0x204"/>
      <component glyphName="dieresis" x="25" y="0" flags="0x4"/>
    </TTGlyph>
    <TTGlyph name="ae" xMin="43" yMin="-11" xMax="823" yMax="535">
      <component glyphName="uni04D5" x="0" y="0" flags="0x204"/>
    </TTGlyph>
    <TTGlyph name="afii10017" xMin="0" yMin="0" xMax="755" yMax="700">
      <component glyphName="A" x="0" y="0" flags="0x204"/>
    </TTGlyph>
    <TTGlyph name="afii10018" xMin="32" yMin="-3" xMax="617" yMax="700">
      <contour>
        <pt x="235" y="407" on="1"/>
        <pt x="255" y="409" on="0"/>
        <pt x="314" y="414" on="0"/>
        <pt x="337" y="414" on="1"/>
        <pt x="392" y="414" on="0"/>
        <pt x="493" y="393" on="0"/>
        <pt x="571" y="345" on="0"/>
        <pt x="617" y="266" on="0"/>
        <pt x="617" y="208" on="1"/>
        <pt x="617" y="153" on="0"/>
        <pt x="569" y="74" on="0"/>
        <pt x="487" y="22" on="0"/>
        <pt x="380" y="-3" on="0"/>
        <pt x="320" y="-3" on="1"/>
        <pt x="314" y="-3" on="0"/>
        <pt x="280" y="-2" on="0"/>
        <pt x="237" y="-1" on="0"/>
        <pt x="191" y="0" on="0"/>
        <pt x="174" y="0" on="1"/>
        <pt x="32" y="0" on="1"/>
        <pt x="32" y="56" on="1"/>
        <pt x="123" y="56" on="1"/>
        <pt x="123" y="644" on="1"/>
        <pt x="32" y="644" on="1"/>
        <pt x="32" y="700" on="1"/>
        <pt x="569" y="700" on="1"/>
        <pt x="569" y="517" on="1"/>
        <pt x="497" y="517" on="1"/>
        <pt x="497" y="622" on="1"/>
        <pt x="477" y="644" on="1"/>
        <pt x="235" y="644" on="1"/>
      </contour>
      <contour>
        <pt x="311" y="358" on="1"/>
        <pt x="285" y="358" on="0"/>
        <pt x="249" y="356" on="0"/>
        <pt x="235" y="352" on="1"/>
        <pt x="235" y="58" on="1"/>
        <pt x="240" y="56" on="0"/>
        <pt x="262" y="55" on="0"/>
        <pt x="286" y="53" on="0"/>
        <pt x="308" y="53" on="0"/>
        <pt x="314" y="53" on="1"/>
        <pt x="353" y="53" on="0"/>
        <pt x="418" y="71" on="0"/>
        <pt x="465" y="110" on="0"/>
        <pt x="492" y="168" on="0"/>
        <pt x="492" y="209" on="1"/>
        <pt x="492" y="282" on="0"/>
        <pt x="402" y="358" on="0"/>
      </contour>
    </TTGlyph>
    <TTGlyph name="afii10019" xMin="32" yMin="-6" xMax="635" yMax="706">
      <component glyphName="B" x="0" y="0" flags="0x204"/>
    </TTGlyph>
    <TTGlyph name="afii10020" xMin="32" yMin="0" xMax="545" yMax="700">
      <contour>
        <pt x="32" y="644" on="1"/>
        <pt x="32" y="700" on="1"/>
        <pt x="545" y="700" on="1"/>
        <pt x="545" y="493" on="1"/>
        <pt x="473" y="493" on="1"/>
        <pt x="473" y="622" on="1"/>
        <pt x="453" y="644" on="1"/>
        <pt x="235" y="644" on="1"/>
        <pt x="235" y="56" on="1"/>
        <pt x="343" y="56" on="1"/>
        <pt x="343" y="0" on="1"/>
        <pt x="32" y="0" on="1"/>
        <pt x="32" y="56" on="1"/>
        <pt x="123" y="56" on="1"/>
        <pt x="123" y="644" on="1"/>
      </contour>
    </TTGlyph>
    <TTGlyph name="afii10021" xMin="10" yMin="-162" xMax="742" yMax="700">
      <contour>
        <pt x="729" y="644" on="1"/>
        <pt x="638" y="644" on="1"/>
        <pt x="638" y="56" on="1"/>
        <pt x="742" y="56" on="1"/>
        <pt x="742" y="-162" on="1"/>
        <pt x="667" y="-162" on="1"/>
        <pt x="667" y="-22" on="1"/>
        <pt x="647" y="0" on="1"/>
        <pt x="105" y="0" on="1"/>
        <pt x="85" y="-22" on="1"/>
        <pt x="85" y="-162" on="1"/>
        <pt x="10" y="-162" on="1"/>
        <pt x="10" y="56" on="1"/>
        <pt x="108" y="56" on="1"/>
        <pt x="136" y="98" on="0"/>
        <pt x="186" y="230" on="0"/>
        <pt x="223" y="387" on="0"/>
        <pt x="245" y="560" on="0"/>
        <pt x="245" y="644" on="1"/>
        <pt x="137" y="644" on="1"/>
        <pt x="137" y="700" on="1"/>
        <pt x="729" y="700" on="1"/>
      </contour>
      <contour>
        <pt x="526" y="56" on="1"/>
        <pt x="526" y="644" on="1"/>
        <pt x="314" y="644" on="1"/>
        <pt x="308" y="521" on="0"/>
        <pt x="279" y="330" on="0"/>
        <pt x="242" y="186" on="0"/>
        <pt x="201" y="87" on="0"/>
        <pt x="185" y="56" on="1"/>
      </contour>
    </TTGlyph>
    <TTGlyph name="afii10022" xMin="32" yMin="0" xMax="581" yMax="700">
      <component glyphName="E" x="0" y="0" flags="0x204"/>
    </TTGlyph>
    <TTGlyph name="afii10023" xMin="32" yMin="0" xMax="581" yMax="854">
      <component glyphName="E" x="0" y="0" flags="0x204"/>
      <component glyphName="uniF6CB" x="73" y="0" flags="0x4"/>
    </TTGlyph>
    <TTGlyph name="afii10024" xMin="0" yMin="0" xMax="1053" yMax="700">
      <contour>
        <pt x="403" y="332" on="1"/>
        <pt x="153" y="0" on="1"/>
        <pt x="0" y="0" on="1"/>
        <pt x="0" y="56" on="1"/>
        <pt x="60" y="56" on="1"/>
        <pt x="134" y="143" on="0"/>
        <pt x="193" y="212" on="1"/>
        <pt x="218" y="241" on="0"/>
        <pt x="265" y="297" on="0"/>
        <pt x="303" y="341" on="0"/>
        <pt x="326" y="368" on="0"/>
        <pt x="326" y="368" on="1"/>
        <pt x="103" y="644" on="1"/>
        <pt x="25" y="644" on="1"/>
        <pt x="25" y="700" on="1"/>
        <pt x="274" y="700" on="1"/>
        <pt x="274" y="644" on="1"/>
        <pt x="199" y="644" on="1"/>
        <pt x="394" y="382" on="1"/>
        <pt x="469" y="382" on="1"/>
        <pt x="469" y="644" on="1"/>
        <pt x="392" y="644" on="1"/>
        <pt x="392" y="700" on="1"/>
        <pt x="654" y="700" on="1"/>
        <pt x="654" y="644" on="1"/>
        <pt x="577" y="644" on="1"/>
        <pt x="577" y="382" on="1"/>
        <pt x="656" y="382" on="1"/>
        <pt x="852" y="644" on="1"/>
        <pt x="772" y="644" on="1"/>
        <pt x="772" y="700" on="1"/>
        <pt x="1021" y="700" on="1"/>
        <pt x="1021" y="644" on="1"/>
        <pt x="936" y="644" on="1"/>
        <pt x="721" y="376" on="1"/>
        <pt x="993" y="56" on="1"/>
        <pt x="1053" y="56" on="1"/>
        <pt x="1053" y="0" on="1"/>
        <pt x="900" y="0" on="1"/>
        <pt x="645" y="332" on="1"/>
        <pt x="577" y="332" on="1"/>
        <pt x="577" y="56" on="1"/>
        <pt x="654" y="56" on="1"/>
        <pt x="654" y="0" on="1"/>
        <pt x="392" y="0" on="1"/>
        <pt x="392" y="56" on="1"/>
        <pt x="469" y="56" on="1"/>
        <pt x="469" y="332" on="1"/>
      </contour>
    </TTGlyph>
    <TTGlyph name="afii10025" xMin="55" yMin="-12" xMax="555" yMax="712">
      <contour>
        <pt x="261" y="-12" on="1"/>
        <pt x="199" y="-12" on="0"/>
        <pt x="93" y="10" on="0"/>
        <pt x="55" y="27" on="1"/>
        <pt x="55" y="194" on="1"/>
        <pt x="119" y="194" on="1"/>
        <pt x="119" y="82" on="1"/>
        <pt x="134" y="63" on="1"/>
        <pt x="143" y="58" on="0"/>
        <pt x="174" y="51" on="0"/>
        <pt x="209" y="46" on="0"/>
        <pt x="245" y="44" on="0"/>
        <pt x="259" y="44" on="1"/>
        <pt x="300" y="44" on="0"/>
        <pt x="367" y="66" on="0"/>
        <pt x="414" y="106" on="0"/>
        <pt x="440" y="161" on="0"/>
        <pt x="440" y="194" on="1"/>
        <pt x="440" y="233" on="0"/>
        <pt x="413" y="285" on="0"/>
        <pt x="368" y="316" on="0"/>
        <pt x="308" y="328" on="0"/>
        <pt x="275" y="328" on="1"/>
        <pt x="188" y="328" on="1"/>
        <pt x="188" y="392" on="1"/>
        <pt x="315" y="392" on="1"/>
        <pt x="366" y="408" on="0"/>
        <pt x="420" y="474" on="0"/>
        <pt x="420" y="522" on="1"/>
        <pt x="420" y="587" on="0"/>
        <pt x="339" y="656" on="0"/>
        <pt x="265" y="656" on="1"/>
        <pt x="232" y="656" on="0"/>
        <pt x="169" y="644" on="0"/>
        <pt x="156" y="636" on="1"/>
        <pt x="143" y="617" on="1"/>
        <pt x="143" y="518" on="1"/>
        <pt x="79" y="518" on="1"/>
        <pt x="79" y="671" on="1"/>
        <pt x="97" y="683" on="0"/>
        <pt x="143" y="698" on="0"/>
        <pt x="194" y="708" on="0"/>
        <pt x="246" y="712" on="0"/>
        <pt x="270" y="712" on="1"/>
        <pt x="316" y="712" on="0"/>
        <pt x="409" y="698" on="0"/>
        <pt x="484" y="659" on="0"/>
        <pt x="532" y="592" on="0"/>
        <pt x="532" y="540" on="1"/>
        <pt x="532" y="489" on="0"/>
        <pt x="465" y="399" on="0"/>
        <pt x="393" y="375" on="1"/>
        <pt x="393" y="371" on="1"/>
        <pt x="427" y="366" on="0"/>
        <pt x="486" y="341" on="0"/>
        <pt x="530" y="300" on="0"/>
        <pt x="555" y="240" on="0"/>
        <pt x="555" y="199" on="1"/>
        <pt x="555" y="145" on="0"/>
        <pt x="507" y="65" on="0"/>
        <pt x="426" y="13" on="0"/>
        <pt x="320" y="-12" on="0"/>
      </contour>
    </TTGlyph>
    <TTGlyph name="afii10026" xMin="32" yMin="0" xMax="801" yMax="700">
      <contour>
        <pt x="318" y="0" on="1"/>
        <pt x="32" y="0" on="1"/>
        <pt x="32" y="56" on="1"/>
        <pt x="123" y="56" on="1"/>
        <pt x="123" y="644" on="1"/>
        <pt x="32" y="644" on="1"/>
        <pt x="32" y="700" on="1"/>
        <pt x="318" y="700" on="1"/>
        <pt x="318" y="644" on="1"/>
        <pt x="235" y="644" on="1"/>
        <pt x="235" y="215" on="1"/>
        <pt x="223" y="140" on="1"/>
        <pt x="277" y="219" on="1"/>
        <pt x="604" y="622" on="1"/>
        <pt x="604" y="644" on="1"/>
        <pt x="513" y="644" on="1"/>
        <pt x="513" y="700" on="1"/>
        <pt x="801" y="700" on="1"/>
        <pt x="801" y="644" on="1"/>
        <pt x="710" y="644" on="1"/>
        <pt x="710" y="56" on="1"/>
        <pt x="801" y="56" on="1"/>
        <pt x="801" y="0" on="1"/>
        <pt x="513" y="0" on="1"/>
        <pt x="513" y="56" on="1"/>
        <pt x="598" y="56" on="1"/>
        <pt x="598" y="484" on="1"/>
        <pt x="609" y="559" on="1"/>
        <pt x="560" y="484" on="1"/>
        <pt x="228" y="76" on="1"/>
        <pt x="228" y="56" on="1"/>
        <pt x="318" y="56" on="1"/>
      </contour>
    </TTGlyph>
    <TTGlyph name="afii10027" xMin="32" yMin="0" xMax="801" yMax="881">
      <component glyphName="afii10026" x="0" y="0" flags="0x204"/>
      <component glyphName="uniF6D1" x="161" y="0" flags="0x4"/>
    </TTGlyph>
    <TTGlyph name="afii10028" xMin="32" yMin="0" xMax="712" yMax="700">
      <component glyphName="K" x="0" y="0" flags="0x204"/>
    </TTGlyph>
    <TTGlyph name="afii10029" xMin="25" yMin="0" xMax="707" yMax="700">
      <contour>
        <pt x="295" y="644" on="1"/>
        <pt x="290" y="503" on="0"/>
        <pt x="269" y="314" on="0"/>
        <pt x="242" y="185" on="0"/>
        <pt x="208" y="102" on="0"/>
        <pt x="190" y="68" on="1"/>
        <pt x="181" y="51" on="0"/>
        <pt x="155" y="17" on="0"/>
        <pt x="141" y="0" on="1"/>
        <pt x="25" y="0" on="1"/>
        <pt x="25" y="126" on="1"/>
        <pt x="141" y="126" on="1"/>
        <pt x="156" y="151" on="0"/>
        <pt x="187" y="234" on="0"/>
        <pt x="211" y="359" on="0"/>
        <pt x="226" y="531" on="0"/>
        <pt x="226" y="644" on="1"/>
        <pt x="122" y="644" on="1"/>
        <pt x="122" y="700" on="1"/>
        <pt x="707" y="700" on="1"/>
        <pt x="707" y="644" on="1"/>
        <pt x="616" y="644" on="1"/>
        <pt x="616" y="56" on="1"/>
        <pt x="707" y="56" on="1"/>
        <pt x="707" y="0" on="1"/>
        <pt x="418" y="0" on="1"/>
        <pt x="418" y="56" on="1"/>
        <pt x="504" y="56" on="1"/>
        <pt x="504" y="644" on="1"/>
      </contour>
    </TTGlyph>
    <TTGlyph name="afii10030" xMin="32" yMin="0" xMax="952" yMax="700">
      <component glyphName="M" x="0" y="0" flags="0x204"/>
    </TTGlyph>
    <TTGlyph name="afii10031" xMin="32" yMin="0" xMax="788" yMax="700">
      <component glyphName="H" x="0" y="0" flags="0x204"/>
    </TTGlyph>
    <TTGlyph name="afii10032" xMin="57" yMin="-12" xMax="773" yMax="712">
      <component glyphName="O" x="0" y="0" flags="0x204"/>
    </TTGlyph>
    <TTGlyph name="afii10033" xMin="32" yMin="0" xMax="776" yMax="700">
      <contour>
        <pt x="235" y="644" on="1"/>
        <pt x="235" y="56" on="1"/>
        <pt x="318" y="56" on="1"/>
        <pt x="318" y="0" on="1"/>
        <pt x="32" y="0" on="1"/>
        <pt x="32" y="56" on="1"/>
        <pt x="123" y="56" on="1"/>
        <pt x="123" y="644" on="1"/>
        <pt x="32" y="644" on="1"/>
        <pt x="32" y="700" on="1"/>
        <pt x="776" y="700" on="1"/>
        <pt x="776" y="644" on="1"/>
        <pt x="685" y="644" on="1"/>
        <pt x="685" y="56" on="1"/>
        <pt x="776" y="56" on="1"/>
        <pt x="776" y="0" on="1"/>
        <pt x="490" y="0" on="1"/>
        <pt x="490" y="56" on="1"/>
        <pt x="573" y="56" on="1"/>
        <pt x="573" y="644" on="1"/>
      </contour>
    </TTGlyph>
    <TTGlyph name="afii10034" xMin="32" yMin="0" xMax="629" yMax="708">
      <component glyphName="P" x="0" y="0" flags="0x204"/>
    </TTGlyph>
    <TTGlyph name="afii10035" xMin="57" yMin="-12" xMax="633" yMax="712">
      <component glyphName="C" x="0" y="0" flags="0x4"/>
    </TTGlyph>
    <TTGlyph name="afii10036" xMin="22" yMin="0" xMax="676" yMax="700">
      <component glyphName="T" x="0" y="0" flags="0x204"/>
    </TTGlyph>
    <TTGlyph name="afii10037" xMin="0" yMin="0" xMax="742" yMax="700">
      <contour>
        <pt x="584" y="644" on="1"/>
        <pt x="491" y="644" on="1"/>
        <pt x="491" y="700" on="1"/>
        <pt x="742" y="700" on="1"/>
        <pt x="742" y="644" on="1"/>
        <pt x="661" y="644" on="1"/>
        <pt x="446" y="201" on="1"/>
        <pt x="415" y="138" on="0"/>
        <pt x="356" y="35" on="0"/>
        <pt x="326" y="0" on="1"/>
        <pt x="231" y="0" on="1"/>
        <pt x="231" y="123" on="1"/>
        <pt x="342" y="123" on="1"/>
        <pt x="358" y="147" on="0"/>
        <pt x="365" y="169" on="1"/>
        <pt x="85" y="644" on="1"/>
        <pt x="0" y="644" on="1"/>
        <pt x="0" y="700" on="1"/>
        <pt x="300" y="700" on="1"/>
        <pt x="300" y="644" on="1"/>
        <pt x="210" y="644" on="1"/>
        <pt x="393" y="318" on="1"/>
        <pt x="416" y="254" on="1"/>
        <pt x="418" y="254" on="1"/>
        <pt x="441" y="320" on="1"/>
      </contour>
    </TTGlyph>
    <TTGlyph name="afii10038" xMin="38" yMin="0" xMax="847" yMax="700">
      <contour>
        <pt x="317" y="603" on="1"/>
        <pt x="332" y="603" on="0"/>
        <pt x="377" y="601" on="0"/>
        <pt x="391" y="599" on="1"/>
        <pt x="391" y="644" on="1"/>
        <pt x="313" y="644" on="1"/>
        <pt x="313" y="700" on="1"/>
        <pt x="572" y="700" on="1"/>
        <pt x="572" y="644" on="1"/>
        <pt x="494" y="644" on="1"/>
        <pt x="494" y="596" on="1"/>
        <pt x="514" y="600" on="0"/>
        <pt x="571" y="603" on="0"/>
        <pt x="590" y="603" on="1"/>
        <pt x="644" y="603" on="0"/>
        <pt x="738" y="573" on="0"/>
        <pt x="807" y="514" on="0"/>
        <pt x="847" y="427" on="0"/>
        <pt x="847" y="370" on="1"/>
        <pt x="847" y="306" on="0"/>
        <pt x="798" y="208" on="0"/>
        <pt x="719" y="142" on="0"/>
        <pt x="620" y="108" on="0"/>
        <pt x="570" y="108" on="1"/>
        <pt x="564" y="108" on="0"/>
        <pt x="544" y="109" on="0"/>
        <pt x="522" y="110" on="0"/>
        <pt x="501" y="113" on="0"/>
        <pt x="494" y="115" on="1"/>
        <pt x="494" y="56" on="1"/>
        <pt x="572" y="56" on="1"/>
        <pt x="572" y="0" on="1"/>
        <pt x="313" y="0" on="1"/>
        <pt x="313" y="56" on="1"/>
        <pt x="391" y="56" on="1"/>
        <pt x="391" y="113" on="1"/>
        <pt x="369" y="110" on="0"/>
        <pt x="317" y="108" on="0"/>
        <pt x="295" y="108" on="1"/>
        <pt x="250" y="108" on="0"/>
        <pt x="158" y="138" on="0"/>
        <pt x="84" y="200" on="0"/>
        <pt x="38" y="295" on="0"/>
        <pt x="38" y="360" on="1"/>
        <pt x="38" y="420" on="0"/>
        <pt x="84" y="511" on="0"/>
        <pt x="161" y="572" on="0"/>
        <pt x="262" y="603" on="0"/>
      </contour>
      <contour>
        <pt x="553" y="549" on="1"/>
        <pt x="536" y="549" on="0"/>
        <pt x="508" y="547" on="0"/>
        <pt x="493" y="543" on="1"/>
        <pt x="493" y="165" on="1"/>
        <pt x="504" y="163" on="0"/>
        <pt x="536" y="162" on="0"/>
        <pt x="546" y="162" on="1"/>
        <pt x="582" y="162" on="0"/>
        <pt x="648" y="187" on="0"/>
        <pt x="697" y="238" on="0"/>
        <pt x="727" y="316" on="0"/>
        <pt x="727" y="370" on="1"/>
        <pt x="727" y="461" on="0"/>
        <pt x="638" y="549" on="0"/>
      </contour>
      <contour>
        <pt x="338" y="162" on="1"/>
        <pt x="352" y="162" on="0"/>
        <pt x="376" y="164" on="0"/>
        <pt x="392" y="167" on="1"/>
        <pt x="392" y="546" on="1"/>
        <pt x="363" y="549" on="0"/>
        <pt x="338" y="549" on="1"/>
        <pt x="303" y="549" on="0"/>
        <pt x="239" y="530" on="0"/>
        <pt x="188" y="486" on="0"/>
        <pt x="158" y="413" on="0"/>
        <pt x="158" y="360" on="1"/>
        <pt x="158" y="313" on="0"/>
        <pt x="184" y="240" on="0"/>
        <pt x="232" y="189" on="0"/>
        <pt x="298" y="162" on="0"/>
      </contour>
    </TTGlyph>
    <TTGlyph name="afii10039" xMin="10" yMin="0" xMax="744" yMax="700">
      <component glyphName="X" x="0" y="0" flags="0x204"/>
    </TTGlyph>
    <TTGlyph name="afii10040" xMin="32" yMin="-162" xMax="792" yMax="700">
      <contour>
        <pt x="569" y="56" on="1"/>
        <pt x="569" y="644" on="1"/>
        <pt x="486" y="644" on="1"/>
        <pt x="486" y="700" on="1"/>
        <pt x="772" y="700" on="1"/>
        <pt x="772" y="644" on="1"/>
        <pt x="681" y="644" on="1"/>
        <pt x="681" y="56" on="1"/>
        <pt x="792" y="56" on="1"/>
        <pt x="792" y="-162" on="1"/>
        <pt x="723" y="-162" on="1"/>
        <pt x="723" y="-22" on="1"/>
        <pt x="703" y="0" on="1"/>
        <pt x="32" y="0" on="1"/>
        <pt x="32" y="56" on="1"/>
        <pt x="123" y="56" on="1"/>
        <pt x="123" y="644" on="1"/>
        <pt x="32" y="644" on="1"/>
        <pt x="32" y="700" on="1"/>
        <pt x="318" y="700" on="1"/>
        <pt x="318" y="644" on="1"/>
        <pt x="235" y="644" on="1"/>
        <pt x="235" y="56" on="1"/>
      </contour>
    </TTGlyph>
    <TTGlyph name="afii10041" xMin="12" yMin="0" xMax="716" yMax="700">
      <contour>
        <pt x="625" y="56" on="1"/>
        <pt x="716" y="56" on="1"/>
        <pt x="716" y="0" on="1"/>
        <pt x="409" y="0" on="1"/>
        <pt x="409" y="56" on="1"/>
        <pt x="513" y="56" on="1"/>
        <pt x="513" y="310" on="1"/>
        <pt x="482" y="294" on="0"/>
        <pt x="382" y="265" on="0"/>
        <pt x="317" y="265" on="1"/>
        <pt x="270" y="265" on="0"/>
        <pt x="192" y="281" on="0"/>
        <pt x="135" y="323" on="0"/>
        <pt x="103" y="395" on="0"/>
        <pt x="103" y="451" on="1"/>
        <pt x="103" y="644" on="1"/>
        <pt x="12" y="644" on="1"/>
        <pt x="12" y="700" on="1"/>
        <pt x="288" y="700" on="1"/>
        <pt x="288" y="644" on="1"/>
        <pt x="215" y="644" on="1"/>
        <pt x="215" y="474" on="1"/>
        <pt x="215" y="404" on="0"/>
        <pt x="277" y="321" on="0"/>
        <pt x="351" y="321" on="1"/>
        <pt x="398" y="321" on="0"/>
        <pt x="482" y="345" on="0"/>
        <pt x="513" y="362" on="1"/>
        <pt x="513" y="644" on="1"/>
        <pt x="430" y="644" on="1"/>
        <pt x="430" y="700" on="1"/>
        <pt x="716" y="700" on="1"/>
        <pt x="716" y="644" on="1"/>
        <pt x="625" y="644" on="1"/>
      </contour>
    </TTGlyph>
    <TTGlyph name="afii10042" xMin="32" yMin="0" xMax="1042" yMax="700">
      <contour>
        <pt x="32" y="644" on="1"/>
        <pt x="32" y="700" on="1"/>
        <pt x="307" y="700" on="1"/>
        <pt x="307" y="644" on="1"/>
        <pt x="235" y="644" on="1"/>
        <pt x="235" y="56" on="1"/>
        <pt x="481" y="56" on="1"/>
        <pt x="481" y="644" on="1"/>
        <pt x="409" y="644" on="1"/>
        <pt x="409" y="700" on="1"/>
        <pt x="665" y="700" on="1"/>
        <pt x="665" y="644" on="1"/>
        <pt x="593" y="644" on="1"/>
        <pt x="593" y="56" on="1"/>
        <pt x="839" y="56" on="1"/>
        <pt x="839" y="644" on="1"/>
        <pt x="767" y="644" on="1"/>
        <pt x="767" y="700" on="1"/>
        <pt x="1042" y="700" on="1"/>
        <pt x="1042" y="644" on="1"/>
        <pt x="951" y="644" on="1"/>
        <pt x="951" y="56" on="1"/>
        <pt x="1042" y="56" on="1"/>
        <pt x="1042" y="0" on="1"/>
        <pt x="32" y="0" on="1"/>
        <pt x="32" y="56" on="1"/>
        <pt x="123" y="56" on="1"/>
        <pt x="123" y="644" on="1"/>
      </contour>
    </TTGlyph>
    <TTGlyph name="afii10043" xMin="32" yMin="-162" xMax="1063" yMax="700">
      <contour>
        <pt x="32" y="644" on="1"/>
        <pt x="32" y="700" on="1"/>
        <pt x="307" y="700" on="1"/>
        <pt x="307" y="644" on="1"/>
        <pt x="235" y="644" on="1"/>
        <pt x="235" y="56" on="1"/>
        <pt x="481" y="56" on="1"/>
        <pt x="481" y="644" on="1"/>
        <pt x="409" y="644" on="1"/>
        <pt x="409" y="700" on="1"/>
        <pt x="665" y="700" on="1"/>
        <pt x="665" y="644" on="1"/>
        <pt x="593" y="644" on="1"/>
        <pt x="593" y="56" on="1"/>
        <pt x="839" y="56" on="1"/>
        <pt x="839" y="644" on="1"/>
        <pt x="767" y="644" on="1"/>
        <pt x="767" y="700" on="1"/>
        <pt x="1042" y="700" on="1"/>
        <pt x="1042" y="644" on="1"/>
        <pt x="951" y="644" on="1"/>
        <pt x="951" y="56" on="1"/>
        <pt x="1063" y="56" on="1"/>
        <pt x="1063" y="-162" on="1"/>
        <pt x="994" y="-162" on="1"/>
        <pt x="994" y="-22" on="1"/>
        <pt x="974" y="0" on="1"/>
        <pt x="32" y="0" on="1"/>
        <pt x="32" y="56" on="1"/>
        <pt x="123" y="56" on="1"/>
        <pt x="123" y="644" on="1"/>
      </contour>
    </TTGlyph>
    <TTGlyph name="afii10044" xMin="20" yMin="-3" xMax="765" yMax="700">
      <contour>
        <pt x="371" y="417" on="1"/>
        <pt x="391" y="420" on="0"/>
        <pt x="449" y="424" on="0"/>
        <pt x="472" y="424" on="1"/>
        <pt x="528" y="424" on="0"/>
        <pt x="634" y="406" on="0"/>
        <pt x="716" y="359" on="0"/>
        <pt x="765" y="279" on="0"/>
        <pt x="765" y="218" on="1"/>
        <pt x="765" y="159" on="0"/>
        <pt x="713" y="76" on="0"/>
        <pt x="627" y="22" on="0"/>
        <pt x="515" y="-3" on="0"/>
        <pt x="454" y="-3" on="1"/>
        <pt x="449" y="-3" on="0"/>
        <pt x="416" y="-2" on="0"/>
        <pt x="374" y="-1" on="0"/>
        <pt x="329" y="0" on="0"/>
        <pt x="312" y="0" on="1"/>
        <pt x="168" y="0" on="1"/>
        <pt x="168" y="56" on="1"/>
        <pt x="259" y="56" on="1"/>
        <pt x="259" y="644" on="1"/>
        <pt x="104" y="644" on="1"/>
        <pt x="84" y="622" on="1"/>
        <pt x="84" y="493" on="1"/>
        <pt x="20" y="493" on="1"/>
        <pt x="20" y="700" on="1"/>
        <pt x="471" y="700" on="1"/>
        <pt x="471" y="644" on="1"/>
        <pt x="371" y="644" on="1"/>
      </contour>
      <contour>
        <pt x="447" y="368" on="1"/>
        <pt x="420" y="368" on="0"/>
        <pt x="385" y="365" on="0"/>
        <pt x="371" y="362" on="1"/>
        <pt x="371" y="58" on="1"/>
        <pt x="377" y="56" on="0"/>
        <pt x="398" y="55" on="0"/>
        <pt x="422" y="53" on="0"/>
        <pt x="444" y="53" on="0"/>
        <pt x="450" y="53" on="1"/>
        <pt x="488" y="53" on="0"/>
        <pt x="557" y="71" on="0"/>
        <pt x="609" y="111" on="0"/>
        <pt x="640" y="174" on="0"/>
        <pt x="640" y="219" on="1"/>
        <pt x="640" y="259" on="0"/>
        <pt x="613" y="316" on="0"/>
        <pt x="563" y="352" on="0"/>
        <pt x="491" y="368" on="0"/>
      </contour>
    </TTGlyph>
    <TTGlyph name="afii10045" xMin="32" yMin="-3" xMax="921" yMax="700">
      <contour>
        <pt x="32" y="644" on="1"/>
        <pt x="32" y="700" on="1"/>
        <pt x="334" y="700" on="1"/>
        <pt x="334" y="644" on="1"/>
        <pt x="235" y="644" on="1"/>
        <pt x="235" y="417" on="1"/>
        <pt x="257" y="420" on="0"/>
        <pt x="313" y="424" on="0"/>
        <pt x="336" y="424" on="1"/>
        <pt x="391" y="424" on="0"/>
        <pt x="492" y="406" on="0"/>
        <pt x="569" y="360" on="0"/>
        <pt x="615" y="280" on="0"/>
        <pt x="615" y="218" on="1"/>
        <pt x="615" y="159" on="0"/>
        <pt x="564" y="76" on="0"/>
        <pt x="480" y="22" on="0"/>
        <pt x="373" y="-3" on="0"/>
        <pt x="318" y="-3" on="1"/>
        <pt x="313" y="-3" on="0"/>
        <pt x="281" y="-2" on="0"/>
        <pt x="239" y="-1" on="0"/>
        <pt x="195" y="0" on="0"/>
        <pt x="178" y="0" on="1"/>
        <pt x="32" y="0" on="1"/>
        <pt x="32" y="56" on="1"/>
        <pt x="123" y="56" on="1"/>
        <pt x="123" y="644" on="1"/>
      </contour>
      <contour>
        <pt x="631" y="644" on="1"/>
        <pt x="631" y="700" on="1"/>
        <pt x="921" y="700" on="1"/>
        <pt x="921" y="644" on="1"/>
        <pt x="830" y="644" on="1"/>
        <pt x="830" y="56" on="1"/>
        <pt x="921" y="56" on="1"/>
        <pt x="921" y="0" on="1"/>
        <pt x="631" y="0" on="1"/>
        <pt x="631" y="56" on="1"/>
        <pt x="718" y="56" on="1"/>
        <pt x="718" y="644" on="1"/>
      </contour>
      <contour>
        <pt x="310" y="368" on="1"/>
        <pt x="284" y="368" on="0"/>
        <pt x="249" y="365" on="0"/>
        <pt x="235" y="362" on="1"/>
        <pt x="235" y="58" on="1"/>
        <pt x="240" y="56" on="0"/>
        <pt x="261" y="55" on="0"/>
        <pt x="285" y="53" on="0"/>
        <pt x="307" y="53" on="0"/>
        <pt x="313" y="53" on="1"/>
        <pt x="352" y="53" on="0"/>
        <pt x="417" y="73" on="0"/>
        <pt x="464" y="114" on="0"/>
        <pt x="490" y="177" on="0"/>
        <pt x="490" y="219" on="1"/>
        <pt x="490" y="368" on="0"/>
      </contour>
    </TTGlyph>
    <TTGlyph name="afii10046" xMin="32" yMin="-3" xMax="629" yMax="700">
      <contour>
        <pt x="235" y="417" on="1"/>
        <pt x="255" y="420" on="0"/>
        <pt x="313" y="424" on="0"/>
        <pt x="336" y="424" on="1"/>
        <pt x="392" y="424" on="0"/>
        <pt x="498" y="406" on="0"/>
        <pt x="580" y="359" on="0"/>
        <pt x="629" y="279" on="0"/>
        <pt x="629" y="218" on="1"/>
        <pt x="629" y="159" on="0"/>
        <pt x="577" y="76" on="0"/>
        <pt x="491" y="22" on="0"/>
        <pt x="379" y="-3" on="0"/>
        <pt x="318" y="-3" on="1"/>
        <pt x="313" y="-3" on="0"/>
        <pt x="280" y="-2" on="0"/>
        <pt x="238" y="-1" on="0"/>
        <pt x="193" y="0" on="0"/>
        <pt x="176" y="0" on="1"/>
        <pt x="32" y="0" on="1"/>
        <pt x="32" y="56" on="1"/>
        <pt x="123" y="56" on="1"/>
        <pt x="123" y="644" on="1"/>
        <pt x="32" y="644" on="1"/>
        <pt x="32" y="700" on="1"/>
        <pt x="335" y="700" on="1"/>
        <pt x="335" y="644" on="1"/>
        <pt x="235" y="644" on="1"/>
      </contour>
      <contour>
        <pt x="311" y="368" on="1"/>
        <pt x="284" y="368" on="0"/>
        <pt x="249" y="365" on="0"/>
        <pt x="235" y="362" on="1"/>
        <pt x="235" y="58" on="1"/>
        <pt x="241" y="56" on="0"/>
        <pt x="262" y="55" on="0"/>
        <pt x="286" y="53" on="0"/>
        <pt x="308" y="53" on="0"/>
        <pt x="314" y="53" on="1"/>
        <pt x="352" y="53" on="0"/>
        <pt x="421" y="71" on="0"/>
        <pt x="473" y="111" on="0"/>
        <pt x="504" y="174" on="0"/>
        <pt x="504" y="219" on="1"/>
        <pt x="504" y="259" on="0"/>
        <pt x="477" y="316" on="0"/>
        <pt x="427" y="352" on="0"/>
        <pt x="355" y="368" on="0"/>
      </contour>
    </TTGlyph>
    <TTGlyph name="afii10047" xMin="65" yMin="-12" xMax="629" yMax="712">
      <contour>
        <pt x="202" y="328" on="1"/>
        <pt x="202" y="392" on="1"/>
        <pt x="507" y="392" on="1"/>
        <pt x="489" y="648" on="0"/>
        <pt x="243" y="648" on="1"/>
        <pt x="210" y="648" on="0"/>
        <pt x="162" y="636" on="0"/>
        <pt x="151" y="629" on="1"/>
        <pt x="137" y="609" on="1"/>
        <pt x="137" y="517" on="1"/>
        <pt x="73" y="517" on="1"/>
        <pt x="73" y="671" on="1"/>
        <pt x="109" y="694" on="0"/>
        <pt x="208" y="712" on="0"/>
        <pt x="256" y="712" on="1"/>
        <pt x="344" y="712" on="0"/>
        <pt x="482" y="671" on="0"/>
        <pt x="578" y="584" on="0"/>
        <pt x="629" y="450" on="0"/>
        <pt x="629" y="358" on="1"/>
        <pt x="629" y="263" on="0"/>
        <pt x="570" y="124" on="0"/>
        <pt x="471" y="32" on="0"/>
        <pt x="339" y="-12" on="0"/>
        <pt x="267" y="-12" on="1"/>
        <pt x="231" y="-12" on="0"/>
        <pt x="172" y="-8" on="0"/>
        <pt x="124" y="1" on="0"/>
        <pt x="84" y="14" on="0"/>
        <pt x="65" y="23" on="1"/>
        <pt x="65" y="196" on="1"/>
        <pt x="129" y="196" on="1"/>
        <pt x="129" y="91" on="1"/>
        <pt x="144" y="70" on="1"/>
        <pt x="158" y="63" on="0"/>
        <pt x="215" y="52" on="0"/>
        <pt x="242" y="52" on="1"/>
        <pt x="292" y="52" on="0"/>
        <pt x="387" y="82" on="0"/>
        <pt x="461" y="148" on="0"/>
        <pt x="506" y="253" on="0"/>
        <pt x="507" y="328" on="1"/>
      </contour>
    </TTGlyph>
    <TTGlyph name="afii10048" xMin="32" yMin="-12" xMax="1031" yMax="712">
      <contour>
        <pt x="32" y="644" on="1"/>
        <pt x="32" y="700" on="1"/>
        <pt x="320" y="700" on="1"/>
        <pt x="320" y="644" on="1"/>
        <pt x="235" y="644" on="1"/>
        <pt x="235" y="387" on="1"/>
        <pt x="367" y="387" on="1"/>
        <pt x="371" y="456" on="0"/>
        <pt x="417" y="575" on="0"/>
        <pt x="500" y="662" on="0"/>
        <pt x="619" y="712" on="0"/>
        <pt x="696" y="712" on="1"/>
        <pt x="780" y="712" on="0"/>
        <pt x="906" y="658" on="0"/>
        <pt x="989" y="561" on="0"/>
        <pt x="1031" y="428" on="0"/>
        <pt x="1031" y="350" on="1"/>
        <pt x="1031" y="273" on="0"/>
        <pt x="989" y="140" on="0"/>
        <pt x="905" y="43" on="0"/>
        <pt x="779" y="-12" on="0"/>
        <pt x="696" y="-12" on="1"/>
        <pt x="613" y="-12" on="0"/>
        <pt x="491" y="39" on="0"/>
        <pt x="410" y="130" on="0"/>
        <pt x="368" y="256" on="0"/>
        <pt x="366" y="331" on="1"/>
        <pt x="235" y="331" on="1"/>
        <pt x="235" y="56" on="1"/>
        <pt x="320" y="56" on="1"/>
        <pt x="320" y="0" on="1"/>
        <pt x="32" y="0" on="1"/>
        <pt x="32" y="56" on="1"/>
        <pt x="123" y="56" on="1"/>
        <pt x="123" y="644" on="1"/>
      </contour>
      <contour>
        <pt x="487" y="350" on="1"/>
        <pt x="487" y="285" on="0"/>
        <pt x="510" y="173" on="0"/>
        <pt x="562" y="91" on="0"/>
        <pt x="646" y="44" on="0"/>
        <pt x="706" y="44" on="1"/>
        <pt x="762" y="44" on="0"/>
        <pt x="839" y="92" on="0"/>
        <pt x="886" y="174" on="0"/>
        <pt x="906" y="286" on="0"/>
        <pt x="906" y="350" on="1"/>
        <pt x="906" y="414" on="0"/>
        <pt x="884" y="526" on="0"/>
        <pt x="833" y="608" on="0"/>
        <pt x="749" y="656" on="0"/>
        <pt x="686" y="656" on="1"/>
        <pt x="626" y="656" on="0"/>
        <pt x="549" y="608" on="0"/>
        <pt x="504" y="526" on="0"/>
        <pt x="487" y="414" on="0"/>
      </contour>
    </TTGlyph>
    <TTGlyph name="afii10049" xMin="10" yMin="0" xMax="678" yMax="703">
      <contour>
        <pt x="678" y="700" on="1"/>
        <pt x="678" y="644" on="1"/>
        <pt x="587" y="644" on="1"/>
        <pt x="587" y="56" on="1"/>
        <pt x="678" y="56" on="1"/>
        <pt x="678" y="0" on="1"/>
        <pt x="378" y="0" on="1"/>
        <pt x="378" y="56" on="1"/>
        <pt x="475" y="56" on="1"/>
        <pt x="475" y="292" on="1"/>
        <pt x="363" y="292" on="1"/>
        <pt x="172" y="0" on="1"/>
        <pt x="10" y="0" on="1"/>
        <pt x="10" y="56" on="1"/>
        <pt x="72" y="56" on="1"/>
        <pt x="262" y="299" on="1"/>
        <pt x="227" y="307" on="0"/>
        <pt x="167" y="339" on="0"/>
        <pt x="122" y="388" on="0"/>
        <pt x="96" y="454" on="0"/>
        <pt x="96" y="496" on="1"/>
        <pt x="96" y="551" on="0"/>
        <pt x="148" y="630" on="0"/>
        <pt x="235" y="680" on="0"/>
        <pt x="348" y="703" on="0"/>
        <pt x="408" y="703" on="1"/>
        <pt x="431" y="703" on="0"/>
        <pt x="498" y="700" on="0"/>
        <pt x="533" y="700" on="1"/>
      </contour>
      <contour>
        <pt x="398" y="344" on="1"/>
        <pt x="418" y="344" on="0"/>
        <pt x="461" y="347" on="0"/>
        <pt x="475" y="350" on="1"/>
        <pt x="475" y="642" on="1"/>
        <pt x="464" y="644" on="0"/>
        <pt x="424" y="647" on="0"/>
        <pt x="407" y="647" on="1"/>
        <pt x="322" y="647" on="0"/>
        <pt x="221" y="578" on="0"/>
        <pt x="221" y="496" on="1"/>
        <pt x="221" y="421" on="0"/>
        <pt x="308" y="344" on="0"/>
      </contour>
    </TTGlyph>
    <TTGlyph name="afii10050" xMin="32" yMin="0" xMax="530" yMax="837">
      <contour>
        <pt x="32" y="644" on="1"/>
        <pt x="32" y="700" on="1"/>
        <pt x="446" y="700" on="1"/>
        <pt x="466" y="722" on="1"/>
        <pt x="466" y="837" on="1"/>
        <pt x="530" y="837" on="1"/>
        <pt x="530" y="644" on="1"/>
        <pt x="235" y="644" on="1"/>
        <pt x="235" y="56" on="1"/>
        <pt x="343" y="56" on="1"/>
        <pt x="343" y="0" on="1"/>
        <pt x="32" y="0" on="1"/>
        <pt x="32" y="56" on="1"/>
        <pt x="123" y="56" on="1"/>
        <pt x="123" y="644" on="1"/>
      </contour>
    </TTGlyph>
    <TTGlyph name="afii10051" xMin="12" yMin="-3" xMax="804" yMax="700">
      <contour>
        <pt x="473" y="0" on="1"/>
        <pt x="178" y="0" on="1"/>
        <pt x="178" y="56" on="1"/>
        <pt x="283" y="56" on="1"/>
        <pt x="283" y="644" on="1"/>
        <pt x="104" y="644" on="1"/>
        <pt x="84" y="622" on="1"/>
        <pt x="84" y="493" on="1"/>
        <pt x="12" y="493" on="1"/>
        <pt x="12" y="700" on="1"/>
        <pt x="666" y="700" on="1"/>
        <pt x="666" y="493" on="1"/>
        <pt x="594" y="493" on="1"/>
        <pt x="594" y="622" on="1"/>
        <pt x="574" y="644" on="1"/>
        <pt x="395" y="644" on="1"/>
        <pt x="395" y="389" on="1"/>
        <pt x="426" y="404" on="0"/>
        <pt x="526" y="434" on="0"/>
        <pt x="591" y="434" on="1"/>
        <pt x="637" y="434" on="0"/>
        <pt x="716" y="417" on="0"/>
        <pt x="772" y="373" on="0"/>
        <pt x="804" y="297" on="0"/>
        <pt x="804" y="237" on="1"/>
        <pt x="804" y="162" on="0"/>
        <pt x="769" y="69" on="0"/>
        <pt x="707" y="16" on="0"/>
        <pt x="620" y="-3" on="0"/>
        <pt x="569" y="-3" on="1"/>
        <pt x="565" y="34" on="1"/>
        <pt x="592" y="39" on="0"/>
        <pt x="638" y="61" on="0"/>
        <pt x="673" y="105" on="0"/>
        <pt x="692" y="174" on="0"/>
        <pt x="692" y="227" on="1"/>
        <pt x="692" y="297" on="0"/>
        <pt x="630" y="380" on="0"/>
        <pt x="557" y="380" on="1"/>
        <pt x="510" y="380" on="0"/>
        <pt x="426" y="357" on="0"/>
        <pt x="395" y="340" on="1"/>
        <pt x="395" y="56" on="1"/>
        <pt x="473" y="56" on="1"/>
      </contour>
    </TTGlyph>
    <TTGlyph name="afii10052" xMin="32" yMin="0" xMax="545" yMax="914">
      <component glyphName="afii10020" x="0" y="0" flags="0x204"/>
      <component glyphName="uniF6C9" x="198" y="0" flags="0x4"/>
    </TTGlyph>
    <TTGlyph name="afii10053" xMin="57" yMin="-12" xMax="633" yMax="712">
      <contour>
        <pt x="569" y="184" on="1"/>
        <pt x="633" y="184" on="1"/>
        <pt x="633" y="27" on="1"/>
        <pt x="602" y="10" on="0"/>
        <pt x="500" y="-12" on="0"/>
        <pt x="450" y="-12" on="1"/>
        <pt x="358" y="-12" on="0"/>
        <pt x="212" y="30" on="0"/>
        <pt x="111" y="119" on="0"/>
        <pt x="57" y="255" on="0"/>
        <pt x="57" y="350" on="1"/>
        <pt x="57" y="448" on="0"/>
        <pt x="117" y="585" on="0"/>
        <pt x="219" y="672" on="0"/>
        <pt x="353" y="712" on="0"/>
        <pt x="427" y="712" on="1"/>
        <pt x="463" y="712" on="0"/>
        <pt x="521" y="707" on="0"/>
        <pt x="568" y="697" on="0"/>
        <pt x="608" y="683" on="0"/>
        <pt x="627" y="675" on="1"/>
        <pt x="627" y="504" on="1"/>
        <pt x="563" y="504" on="1"/>
        <pt x="563" y="609" on="1"/>
        <pt x="549" y="629" on="1"/>
        <pt x="538" y="634" on="0"/>
        <pt x="491" y="648" on="0"/>
        <pt x="439" y="648" on="1"/>
        <pt x="389" y="648" on="0"/>
        <pt x="300" y="619" on="0"/>
        <pt x="233" y="557" on="0"/>
        <pt x="189" y="460" on="0"/>
        <pt x="184" y="392" on="1"/>
        <pt x="520" y="392" on="1"/>
        <pt x="520" y="328" on="1"/>
        <pt x="182" y="328" on="1"/>
        <pt x="188" y="195" on="0"/>
        <pt x="333" y="52" on="0"/>
        <pt x="458" y="52" on="1"/>
        <pt x="494" y="52" on="0"/>
        <pt x="543" y="63" on="0"/>
        <pt x="555" y="72" on="1"/>
        <pt x="569" y="91" on="1"/>
      </contour>
    </TTGlyph>
    <TTGlyph name="afii10054" xMin="62" yMin="-12" xMax="541" yMax="712">
      <component glyphName="S" x="0" y="0" flags="0x204"/>
    </TTGlyph>
    <TTGlyph name="afii10055" xMin="52" yMin="0" xMax="346" yMax="700">
      <component glyphName="I" x="0" y="0" flags="0x204"/>
    </TTGlyph>
    <TTGlyph name="afii10055.alt" xMin="52" yMin="0" xMax="346" yMax="880">
      <component glyphName="I" x="0" y="0" flags="0x204"/>
      <component glyphName="uniF40B" x="59" y="0" flags="0x4"/>
    </TTGlyph>
    <TTGlyph name="afii10056" xMin="32" yMin="0" xMax="365" yMax="839">
      <contour>
        <pt x="32" y="789" on="1"/>
        <pt x="32" y="814" on="0"/>
        <pt x="69" y="839" on="0"/>
        <pt x="97" y="839" on="1"/>
        <pt x="126" y="839" on="0"/>
        <pt x="164" y="814" on="0"/>
        <pt x="164" y="789" on="1"/>
        <pt x="164" y="766" on="0"/>
        <pt x="126" y="742" on="0"/>
        <pt x="97" y="742" on="1"/>
        <pt x="69" y="742" on="0"/>
        <pt x="32" y="766" on="0"/>
      </contour>
      <contour>
        <pt x="233" y="789" on="1"/>
        <pt x="233" y="814" on="0"/>
        <pt x="271" y="839" on="0"/>
        <pt x="298" y="839" on="1"/>
        <pt x="327" y="839" on="0"/>
        <pt x="365" y="814" on="0"/>
        <pt x="365" y="789" on="1"/>
        <pt x="365" y="766" on="0"/>
        <pt x="327" y="742" on="0"/>
        <pt x="298" y="742" on="1"/>
        <pt x="271" y="742" on="0"/>
        <pt x="233" y="766" on="0"/>
      </contour>
      <contour>
        <pt x="346" y="0" on="1"/>
        <pt x="52" y="0" on="1"/>
        <pt x="52" y="56" on="1"/>
        <pt x="143" y="56" on="1"/>
        <pt x="143" y="644" on="1"/>
        <pt x="52" y="644" on="1"/>
        <pt x="52" y="700" on="1"/>
        <pt x="346" y="700" on="1"/>
        <pt x="346" y="644" on="1"/>
        <pt x="255" y="644" on="1"/>
        <pt x="255" y="56" on="1"/>
        <pt x="346" y="56" on="1"/>
      </contour>
    </TTGlyph>
    <TTGlyph name="afii10057" xMin="36" yMin="-160" xMax="328" yMax="700">
      <component glyphName="J" x="0" y="0" flags="0x204"/>
    </TTGlyph>
    <TTGlyph name="afii10058" xMin="25" yMin="-3" xMax="995" yMax="700">
      <contour>
        <pt x="616" y="417" on="1"/>
        <pt x="636" y="420" on="0"/>
        <pt x="694" y="424" on="0"/>
        <pt x="717" y="424" on="1"/>
        <pt x="773" y="424" on="0"/>
        <pt x="874" y="406" on="0"/>
        <pt x="950" y="359" on="0"/>
        <pt x="995" y="279" on="0"/>
        <pt x="995" y="218" on="1"/>
        <pt x="995" y="159" on="0"/>
        <pt x="948" y="76" on="0"/>
        <pt x="867" y="22" on="0"/>
        <pt x="760" y="-3" on="0"/>
        <pt x="699" y="-3" on="1"/>
        <pt x="694" y="-3" on="0"/>
        <pt x="670" y="-2" on="0"/>
        <pt x="638" y="-1" on="0"/>
        <pt x="601" y="0" on="0"/>
        <pt x="584" y="0" on="1"/>
        <pt x="413" y="0" on="1"/>
        <pt x="413" y="56" on="1"/>
        <pt x="504" y="56" on="1"/>
        <pt x="504" y="644" on="1"/>
        <pt x="295" y="644" on="1"/>
        <pt x="290" y="503" on="0"/>
        <pt x="269" y="314" on="0"/>
        <pt x="242" y="185" on="0"/>
        <pt x="208" y="102" on="0"/>
        <pt x="190" y="68" on="1"/>
        <pt x="181" y="51" on="0"/>
        <pt x="155" y="17" on="0"/>
        <pt x="141" y="0" on="1"/>
        <pt x="25" y="0" on="1"/>
        <pt x="25" y="126" on="1"/>
        <pt x="141" y="126" on="1"/>
        <pt x="156" y="151" on="0"/>
        <pt x="187" y="234" on="0"/>
        <pt x="211" y="359" on="0"/>
        <pt x="226" y="531" on="0"/>
        <pt x="226" y="644" on="1"/>
        <pt x="122" y="644" on="1"/>
        <pt x="122" y="700" on="1"/>
        <pt x="716" y="700" on="1"/>
        <pt x="716" y="644" on="1"/>
        <pt x="616" y="644" on="1"/>
      </contour>
      <contour>
        <pt x="692" y="368" on="1"/>
        <pt x="665" y="368" on="0"/>
        <pt x="630" y="365" on="0"/>
        <pt x="616" y="362" on="1"/>
        <pt x="616" y="58" on="1"/>
        <pt x="622" y="56" on="0"/>
        <pt x="643" y="55" on="0"/>
        <pt x="667" y="53" on="0"/>
        <pt x="689" y="53" on="0"/>
        <pt x="695" y="53" on="1"/>
        <pt x="733" y="53" on="0"/>
        <pt x="797" y="71" on="0"/>
        <pt x="844" y="111" on="0"/>
        <pt x="870" y="174" on="0"/>
        <pt x="870" y="219" on="1"/>
        <pt x="870" y="300" on="0"/>
        <pt x="781" y="368" on="0"/>
      </contour>
    </TTGlyph>
    <TTGlyph name="afii10059" xMin="32" yMin="-3" xMax="1077" yMax="700">
      <contour>
        <pt x="697" y="397" on="1"/>
        <pt x="717" y="400" on="0"/>
        <pt x="775" y="404" on="0"/>
        <pt x="798" y="404" on="1"/>
        <pt x="853" y="404" on="0"/>
        <pt x="954" y="386" on="0"/>
        <pt x="1031" y="341" on="0"/>
        <pt x="1077" y="264" on="0"/>
        <pt x="1077" y="205" on="1"/>
        <pt x="1077" y="148" on="0"/>
        <pt x="1026" y="68" on="0"/>
        <pt x="942" y="19" on="0"/>
        <pt x="836" y="-3" on="0"/>
        <pt x="781" y="-3" on="1"/>
        <pt x="775" y="-3" on="0"/>
        <pt x="743" y="-2" on="0"/>
        <pt x="701" y="-1" on="0"/>
        <pt x="657" y="0" on="0"/>
        <pt x="640" y="0" on="1"/>
        <pt x="502" y="0" on="1"/>
        <pt x="502" y="56" on="1"/>
        <pt x="585" y="56" on="1"/>
        <pt x="585" y="331" on="1"/>
        <pt x="235" y="331" on="1"/>
        <pt x="235" y="56" on="1"/>
        <pt x="318" y="56" on="1"/>
        <pt x="318" y="0" on="1"/>
        <pt x="32" y="0" on="1"/>
        <pt x="32" y="56" on="1"/>
        <pt x="123" y="56" on="1"/>
        <pt x="123" y="644" on="1"/>
        <pt x="32" y="644" on="1"/>
        <pt x="32" y="700" on="1"/>
        <pt x="318" y="700" on="1"/>
        <pt x="318" y="644" on="1"/>
        <pt x="235" y="644" on="1"/>
        <pt x="235" y="387" on="1"/>
        <pt x="585" y="387" on="1"/>
        <pt x="585" y="644" on="1"/>
        <pt x="502" y="644" on="1"/>
        <pt x="502" y="700" on="1"/>
        <pt x="798" y="700" on="1"/>
        <pt x="798" y="644" on="1"/>
        <pt x="697" y="644" on="1"/>
      </contour>
      <contour>
        <pt x="772" y="348" on="1"/>
        <pt x="746" y="348" on="0"/>
        <pt x="711" y="346" on="0"/>
        <pt x="697" y="342" on="1"/>
        <pt x="697" y="58" on="1"/>
        <pt x="702" y="56" on="0"/>
        <pt x="723" y="55" on="0"/>
        <pt x="747" y="53" on="0"/>
        <pt x="769" y="53" on="0"/>
        <pt x="775" y="53" on="1"/>
        <pt x="813" y="53" on="0"/>
        <pt x="878" y="70" on="0"/>
        <pt x="925" y="106" on="0"/>
        <pt x="952" y="164" on="0"/>
        <pt x="952" y="206" on="1"/>
        <pt x="952" y="275" on="0"/>
        <pt x="863" y="348" on="0"/>
      </contour>
    </TTGlyph>
    <TTGlyph name="afii10060" xMin="12" yMin="0" xMax="874" yMax="700">
      <contour>
        <pt x="473" y="0" on="1"/>
        <pt x="178" y="0" on="1"/>
        <pt x="178" y="56" on="1"/>
        <pt x="283" y="56" on="1"/>
        <pt x="283" y="644" on="1"/>
        <pt x="104" y="644" on="1"/>
        <pt x="84" y="622" on="1"/>
        <pt x="84" y="493" on="1"/>
        <pt x="12" y="493" on="1"/>
        <pt x="12" y="700" on="1"/>
        <pt x="666" y="700" on="1"/>
        <pt x="666" y="493" on="1"/>
        <pt x="594" y="493" on="1"/>
        <pt x="594" y="622" on="1"/>
        <pt x="574" y="644" on="1"/>
        <pt x="395" y="644" on="1"/>
        <pt x="395" y="388" on="1"/>
        <pt x="426" y="404" on="0"/>
        <pt x="516" y="433" on="0"/>
        <pt x="579" y="433" on="1"/>
        <pt x="626" y="433" on="0"/>
        <pt x="702" y="417" on="0"/>
        <pt x="755" y="375" on="0"/>
        <pt x="783" y="303" on="0"/>
        <pt x="783" y="247" on="1"/>
        <pt x="783" y="56" on="1"/>
        <pt x="874" y="56" on="1"/>
        <pt x="874" y="0" on="1"/>
        <pt x="671" y="0" on="1"/>
        <pt x="671" y="224" on="1"/>
        <pt x="671" y="259" on="0"/>
        <pt x="660" y="315" on="0"/>
        <pt x="631" y="355" on="0"/>
        <pt x="583" y="377" on="0"/>
        <pt x="547" y="377" on="1"/>
        <pt x="499" y="377" on="0"/>
        <pt x="426" y="353" on="0"/>
        <pt x="395" y="336" on="1"/>
        <pt x="395" y="56" on="1"/>
        <pt x="473" y="56" on="1"/>
      </contour>
    </TTGlyph>
    <TTGlyph name="afii10061" xMin="32" yMin="0" xMax="712" yMax="914">
      <component glyphName="K" x="0" y="0" flags="0x204"/>
      <component glyphName="uniF6C9" x="253" y="0" flags="0x4"/>
    </TTGlyph>
    <TTGlyph name="afii10062" xMin="0" yMin="0" xMax="742" yMax="881">
      <component glyphName="afii10037" x="0" y="0" flags="0x204"/>
      <component glyphName="uniF6D1" x="136" y="0" flags="0x4"/>
    </TTGlyph>
    <TTGlyph name="afii10065" xMin="43" yMin="-11" xMax="534" yMax="535">
      <component glyphName="a" x="0" y="0" flags="0x204"/>
    </TTGlyph>
    <TTGlyph name="afii10066" xMin="45" yMin="-10" xMax="563" yMax="760">
      <contour>
        <pt x="45" y="276" on="1"/>
        <pt x="45" y="410" on="0"/>
        <pt x="98" y="584" on="0"/>
        <pt x="201" y="685" on="0"/>
        <pt x="353" y="724" on="0"/>
        <pt x="452" y="724" on="1"/>
        <pt x="452" y="760" on="1"/>
        <pt x="516" y="760" on="1"/>
        <pt x="516" y="628" on="1"/>
        <pt x="379" y="628" on="1"/>
        <pt x="323" y="628" on="0"/>
        <pt x="227" y="607" on="0"/>
        <pt x="155" y="552" on="0"/>
        <pt x="109" y="457" on="0"/>
        <pt x="105" y="383" on="1"/>
        <pt x="111" y="383" on="1"/>
        <pt x="138" y="438" on="0"/>
        <pt x="256" y="512" on="0"/>
        <pt x="336" y="512" on="1"/>
        <pt x="441" y="512" on="0"/>
        <pt x="563" y="387" on="0"/>
        <pt x="563" y="265" on="1"/>
        <pt x="563" y="204" on="0"/>
        <pt x="527" y="103" on="0"/>
        <pt x="458" y="30" on="0"/>
        <pt x="359" y="-10" on="0"/>
        <pt x="296" y="-10" on="1"/>
        <pt x="240" y="-10" on="0"/>
        <pt x="147" y="28" on="0"/>
        <pt x="81" y="101" on="0"/>
        <pt x="45" y="208" on="0"/>
      </contour>
      <contour>
        <pt x="158" y="275" on="1"/>
        <pt x="158" y="209" on="0"/>
        <pt x="182" y="119" on="0"/>
        <pt x="225" y="62" on="0"/>
        <pt x="282" y="37" on="0"/>
        <pt x="315" y="37" on="1"/>
        <pt x="381" y="37" on="0"/>
        <pt x="450" y="147" on="0"/>
        <pt x="450" y="252" on="1"/>
        <pt x="450" y="304" on="0"/>
        <pt x="427" y="378" on="0"/>
        <pt x="388" y="426" on="0"/>
        <pt x="336" y="448" on="0"/>
        <pt x="306" y="448" on="1"/>
        <pt x="255" y="448" on="0"/>
        <pt x="187" y="417" on="0"/>
        <pt x="169" y="397" on="1"/>
        <pt x="163" y="370" on="0"/>
        <pt x="158" y="312" on="0"/>
      </contour>
    </TTGlyph>
    <TTGlyph name="afii10067" xMin="43" yMin="-4" xMax="542" yMax="529">
      <contour>
        <pt x="542" y="153" on="1"/>
        <pt x="542" y="111" on="0"/>
        <pt x="502" y="52" on="0"/>
        <pt x="435" y="14" on="0"/>
        <pt x="345" y="-4" on="0"/>
        <pt x="296" y="-4" on="1"/>
        <pt x="260" y="-4" on="0"/>
        <pt x="216" y="-3" on="0"/>
        <pt x="187" y="-1" on="0"/>
        <pt x="166" y="0" on="0"/>
        <pt x="153" y="0" on="1"/>
        <pt x="43" y="0" on="1"/>
        <pt x="43" y="50" on="1"/>
        <pt x="117" y="50" on="1"/>
        <pt x="117" y="475" on="1"/>
        <pt x="43" y="475" on="1"/>
        <pt x="43" y="525" on="1"/>
        <pt x="147" y="525" on="1"/>
        <pt x="173" y="525" on="0"/>
        <pt x="212" y="526" on="0"/>
        <pt x="247" y="528" on="0"/>
        <pt x="280" y="529" on="0"/>
        <pt x="301" y="529" on="1"/>
        <pt x="399" y="529" on="0"/>
        <pt x="511" y="474" on="0"/>
        <pt x="511" y="404" on="1"/>
        <pt x="511" y="379" on="0"/>
        <pt x="488" y="338" on="0"/>
        <pt x="451" y="308" on="0"/>
        <pt x="406" y="288" on="0"/>
        <pt x="385" y="284" on="1"/>
        <pt x="416" y="281" on="0"/>
        <pt x="473" y="263" on="0"/>
        <pt x="517" y="231" on="0"/>
        <pt x="542" y="184" on="0"/>
      </contour>
      <contour>
        <pt x="222" y="47" on="1"/>
        <pt x="238" y="44" on="0"/>
        <pt x="284" y="43" on="0"/>
        <pt x="300" y="43" on="1"/>
        <pt x="365" y="43" on="0"/>
        <pt x="429" y="97" on="0"/>
        <pt x="429" y="146" on="1"/>
        <pt x="429" y="197" on="0"/>
        <pt x="352" y="247" on="0"/>
        <pt x="291" y="247" on="1"/>
        <pt x="222" y="247" on="1"/>
      </contour>
      <contour>
        <pt x="222" y="288" on="1"/>
        <pt x="345" y="288" on="1"/>
        <pt x="355" y="292" on="0"/>
        <pt x="376" y="311" on="0"/>
        <pt x="394" y="337" on="0"/>
        <pt x="406" y="372" on="0"/>
        <pt x="406" y="393" on="1"/>
        <pt x="406" y="444" on="0"/>
        <pt x="341" y="482" on="0"/>
        <pt x="278" y="482" on="1"/>
        <pt x="266" y="482" on="0"/>
        <pt x="233" y="481" on="0"/>
        <pt x="222" y="478" on="1"/>
      </contour>
    </TTGlyph>
    <TTGlyph name="afii10068" xMin="43" yMin="0" xMax="461" yMax="525">
      <contour>
        <pt x="461" y="525" on="1"/>
        <pt x="461" y="350" on="1"/>
        <pt x="397" y="350" on="1"/>
        <pt x="397" y="455" on="1"/>
        <pt x="377" y="475" on="1"/>
        <pt x="222" y="475" on="1"/>
        <pt x="222" y="50" on="1"/>
        <pt x="323" y="50" on="1"/>
        <pt x="323" y="0" on="1"/>
        <pt x="43" y="0" on="1"/>
        <pt x="43" y="50" on="1"/>
        <pt x="117" y="50" on="1"/>
        <pt x="117" y="475" on="1"/>
        <pt x="43" y="475" on="1"/>
        <pt x="43" y="525" on="1"/>
      </contour>
    </TTGlyph>
    <TTGlyph name="afii10069" xMin="19" yMin="-150" xMax="603" yMax="525">
      <contour>
        <pt x="111" y="0" on="1"/>
        <pt x="91" y="-20" on="1"/>
        <pt x="91" y="-150" on="1"/>
        <pt x="19" y="-150" on="1"/>
        <pt x="19" y="50" on="1"/>
        <pt x="86" y="50" on="1"/>
        <pt x="99" y="65" on="0"/>
        <pt x="133" y="123" on="0"/>
        <pt x="163" y="223" on="0"/>
        <pt x="184" y="371" on="0"/>
        <pt x="184" y="475" on="1"/>
        <pt x="106" y="475" on="1"/>
        <pt x="106" y="525" on="1"/>
        <pt x="587" y="525" on="1"/>
        <pt x="587" y="475" on="1"/>
        <pt x="513" y="475" on="1"/>
        <pt x="513" y="50" on="1"/>
        <pt x="603" y="50" on="1"/>
        <pt x="603" y="-150" on="1"/>
        <pt x="531" y="-150" on="1"/>
        <pt x="531" y="-20" on="1"/>
        <pt x="511" y="0" on="1"/>
      </contour>
      <contour>
        <pt x="248" y="472" on="1"/>
        <pt x="247" y="377" on="0"/>
        <pt x="227" y="237" on="0"/>
        <pt x="199" y="136" on="0"/>
        <pt x="168" y="70" on="0"/>
        <pt x="156" y="50" on="1"/>
        <pt x="408" y="50" on="1"/>
        <pt x="408" y="472" on="1"/>
      </contour>
    </TTGlyph>
    <TTGlyph name="afii10070" xMin="45" yMin="-11" xMax="514" yMax="535">
      <component glyphName="e" x="0" y="0" flags="0x204"/>
    </TTGlyph>
    <TTGlyph name="afii10071" xMin="45" yMin="-11" xMax="514" yMax="752">
      <component glyphName="e" x="0" y="0" flags="0x204"/>
      <component glyphName="dieresis" x="46" y="0" flags="0x4"/>
    </TTGlyph>
    <TTGlyph name="afii10072" xMin="0" yMin="0" xMax="814" yMax="525">
      <contour>
        <pt x="594" y="525" on="1"/>
        <pt x="793" y="525" on="1"/>
        <pt x="793" y="475" on="1"/>
        <pt x="730" y="475" on="1"/>
        <pt x="584" y="292" on="1"/>
        <pt x="767" y="50" on="1"/>
        <pt x="814" y="50" on="1"/>
        <pt x="814" y="0" on="1"/>
        <pt x="678" y="0" on="1"/>
        <pt x="511" y="244" on="1"/>
        <pt x="457" y="244" on="1"/>
        <pt x="457" y="50" on="1"/>
        <pt x="516" y="50" on="1"/>
        <pt x="516" y="0" on="1"/>
        <pt x="298" y="0" on="1"/>
        <pt x="298" y="50" on="1"/>
        <pt x="357" y="50" on="1"/>
        <pt x="357" y="244" on="1"/>
        <pt x="298" y="244" on="1"/>
        <pt x="137" y="0" on="1"/>
        <pt x="0" y="0" on="1"/>
        <pt x="0" y="50" on="1"/>
        <pt x="52" y="50" on="1"/>
        <pt x="228" y="288" on="1"/>
        <pt x="74" y="475" on="1"/>
        <pt x="22" y="475" on="1"/>
        <pt x="22" y="525" on="1"/>
        <pt x="218" y="525" on="1"/>
        <pt x="218" y="475" on="1"/>
        <pt x="159" y="475" on="1"/>
        <pt x="301" y="284" on="1"/>
        <pt x="357" y="284" on="1"/>
        <pt x="357" y="475" on="1"/>
        <pt x="298" y="475" on="1"/>
        <pt x="298" y="525" on="1"/>
        <pt x="516" y="525" on="1"/>
        <pt x="516" y="475" on="1"/>
        <pt x="457" y="475" on="1"/>
        <pt x="457" y="284" on="1"/>
        <pt x="513" y="284" on="1"/>
        <pt x="653" y="475" on="1"/>
        <pt x="594" y="475" on="1"/>
      </contour>
    </TTGlyph>
    <TTGlyph name="afii10073" xMin="70" yMin="-10" xMax="475" yMax="535">
      <contour>
        <pt x="244" y="44" on="1"/>
        <pt x="273" y="44" on="0"/>
        <pt x="317" y="62" on="0"/>
        <pt x="347" y="92" on="0"/>
        <pt x="362" y="130" on="0"/>
        <pt x="362" y="149" on="1"/>
        <pt x="362" y="195" on="0"/>
        <pt x="316" y="232" on="0"/>
        <pt x="276" y="238" on="1"/>
        <pt x="171" y="238" on="1"/>
        <pt x="171" y="292" on="1"/>
        <pt x="284" y="292" on="1"/>
        <pt x="294" y="296" on="0"/>
        <pt x="316" y="313" on="0"/>
        <pt x="335" y="339" on="0"/>
        <pt x="347" y="373" on="0"/>
        <pt x="347" y="395" on="1"/>
        <pt x="347" y="445" on="0"/>
        <pt x="289" y="481" on="0"/>
        <pt x="240" y="481" on="1"/>
        <pt x="215" y="481" on="0"/>
        <pt x="177" y="477" on="0"/>
        <pt x="171" y="474" on="1"/>
        <pt x="152" y="452" on="1"/>
        <pt x="152" y="365" on="1"/>
        <pt x="88" y="365" on="1"/>
        <pt x="88" y="499" on="1"/>
        <pt x="111" y="511" on="0"/>
        <pt x="188" y="535" on="0"/>
        <pt x="259" y="535" on="1"/>
        <pt x="352" y="535" on="0"/>
        <pt x="452" y="476" on="0"/>
        <pt x="452" y="415" on="1"/>
        <pt x="452" y="389" on="0"/>
        <pt x="430" y="347" on="0"/>
        <pt x="394" y="314" on="0"/>
        <pt x="350" y="291" on="0"/>
        <pt x="328" y="285" on="1"/>
        <pt x="359" y="282" on="0"/>
        <pt x="412" y="263" on="0"/>
        <pt x="452" y="231" on="0"/>
        <pt x="475" y="185" on="0"/>
        <pt x="475" y="156" on="1"/>
        <pt x="475" y="114" on="0"/>
        <pt x="442" y="52" on="0"/>
        <pt x="382" y="11" on="0"/>
        <pt x="298" y="-10" on="0"/>
        <pt x="246" y="-10" on="1"/>
        <pt x="188" y="-10" on="0"/>
        <pt x="99" y="27" on="0"/>
        <pt x="70" y="53" on="1"/>
        <pt x="70" y="153" on="1"/>
        <pt x="134" y="153" on="1"/>
        <pt x="134" y="84" on="1"/>
        <pt x="151" y="62" on="1"/>
        <pt x="162" y="55" on="0"/>
        <pt x="206" y="44" on="0"/>
      </contour>
    </TTGlyph>
    <TTGlyph name="afii10074" xMin="43" yMin="0" xMax="648" yMax="525">
      <contour>
        <pt x="43" y="525" on="1"/>
        <pt x="283" y="525" on="1"/>
        <pt x="283" y="475" on="1"/>
        <pt x="217" y="475" on="1"/>
        <pt x="217" y="167" on="1"/>
        <pt x="211" y="59" on="1"/>
        <pt x="217" y="59" on="1"/>
        <pt x="255" y="148" on="1"/>
        <pt x="453" y="525" on="1"/>
        <pt x="648" y="525" on="1"/>
        <pt x="648" y="475" on="1"/>
        <pt x="574" y="475" on="1"/>
        <pt x="574" y="50" on="1"/>
        <pt x="648" y="50" on="1"/>
        <pt x="648" y="0" on="1"/>
        <pt x="408" y="0" on="1"/>
        <pt x="408" y="50" on="1"/>
        <pt x="474" y="50" on="1"/>
        <pt x="474" y="370" on="1"/>
        <pt x="485" y="473" on="1"/>
        <pt x="479" y="473" on="1"/>
        <pt x="437" y="374" on="1"/>
        <pt x="236" y="0" on="1"/>
        <pt x="43" y="0" on="1"/>
        <pt x="43" y="50" on="1"/>
        <pt x="117" y="50" on="1"/>
        <pt x="117" y="475" on="1"/>
        <pt x="43" y="475" on="1"/>
      </contour>
    </TTGlyph>
    <TTGlyph name="afii10075" xMin="43" yMin="0" xMax="648" yMax="728">
      <component glyphName="afii10074" x="0" y="0" flags="0x204"/>
      <component glyphName="uniF6D4" x="109" y="0" flags="0x4"/>
    </TTGlyph>
    <TTGlyph name="afii10076" xMin="43" yMin="0" xMax="609" yMax="525">
      <contour>
        <pt x="367" y="525" on="1"/>
        <pt x="574" y="525" on="1"/>
        <pt x="574" y="475" on="1"/>
        <pt x="510" y="475" on="1"/>
        <pt x="355" y="296" on="1"/>
        <pt x="559" y="50" on="1"/>
        <pt x="609" y="50" on="1"/>
        <pt x="609" y="0" on="1"/>
        <pt x="465" y="0" on="1"/>
        <pt x="279" y="248" on="1"/>
        <pt x="222" y="248" on="1"/>
        <pt x="222" y="50" on="1"/>
        <pt x="294" y="50" on="1"/>
        <pt x="294" y="0" on="1"/>
        <pt x="43" y="0" on="1"/>
        <pt x="43" y="50" on="1"/>
        <pt x="117" y="50" on="1"/>
        <pt x="117" y="475" on="1"/>
        <pt x="43" y="475" on="1"/>
        <pt x="43" y="525" on="1"/>
        <pt x="278" y="525" on="1"/>
        <pt x="278" y="475" on="1"/>
        <pt x="222" y="475" on="1"/>
        <pt x="222" y="289" on="1"/>
        <pt x="274" y="289" on="1"/>
        <pt x="430" y="475" on="1"/>
        <pt x="367" y="475" on="1"/>
      </contour>
    </TTGlyph>
    <TTGlyph name="afii10077" xMin="22" yMin="0" xMax="569" yMax="525">
      <contour>
        <pt x="116" y="107" on="1"/>
        <pt x="135" y="132" on="0"/>
        <pt x="161" y="215" on="0"/>
        <pt x="177" y="315" on="0"/>
        <pt x="184" y="424" on="0"/>
        <pt x="184" y="475" on="1"/>
        <pt x="106" y="475" on="1"/>
        <pt x="106" y="525" on="1"/>
        <pt x="569" y="525" on="1"/>
        <pt x="569" y="475" on="1"/>
        <pt x="495" y="475" on="1"/>
        <pt x="495" y="50" on="1"/>
        <pt x="569" y="50" on="1"/>
        <pt x="569" y="0" on="1"/>
        <pt x="324" y="0" on="1"/>
        <pt x="324" y="50" on="1"/>
        <pt x="390" y="50" on="1"/>
        <pt x="390" y="475" on="1"/>
        <pt x="244" y="475" on="1"/>
        <pt x="243" y="381" on="0"/>
        <pt x="222" y="225" on="0"/>
        <pt x="186" y="104" on="0"/>
        <pt x="139" y="21" on="0"/>
        <pt x="112" y="0" on="1"/>
        <pt x="22" y="0" on="1"/>
        <pt x="22" y="107" on="1"/>
      </contour>
    </TTGlyph>
    <TTGlyph name="afii10078" xMin="39" yMin="0" xMax="779" yMax="525">
      <contour>
        <pt x="239" y="0" on="1"/>
        <pt x="39" y="0" on="1"/>
        <pt x="39" y="50" on="1"/>
        <pt x="113" y="50" on="1"/>
        <pt x="113" y="475" on="1"/>
        <pt x="42" y="475" on="1"/>
        <pt x="42" y="525" on="1"/>
        <pt x="264" y="525" on="1"/>
        <pt x="409" y="203" on="1"/>
        <pt x="412" y="203" on="1"/>
        <pt x="562" y="525" on="1"/>
        <pt x="779" y="525" on="1"/>
        <pt x="779" y="475" on="1"/>
        <pt x="705" y="475" on="1"/>
        <pt x="705" y="50" on="1"/>
        <pt x="779" y="50" on="1"/>
        <pt x="779" y="0" on="1"/>
        <pt x="539" y="0" on="1"/>
        <pt x="539" y="50" on="1"/>
        <pt x="605" y="50" on="1"/>
        <pt x="605" y="475" on="1"/>
        <pt x="596" y="475" on="1"/>
        <pt x="404" y="70" on="1"/>
        <pt x="373" y="70" on="1"/>
        <pt x="182" y="475" on="1"/>
        <pt x="173" y="475" on="1"/>
        <pt x="173" y="50" on="1"/>
        <pt x="239" y="50" on="1"/>
      </contour>
    </TTGlyph>
    <TTGlyph name="afii10079" xMin="43" yMin="0" xMax="646" yMax="525">
      <contour>
        <pt x="288" y="0" on="1"/>
        <pt x="43" y="0" on="1"/>
        <pt x="43" y="50" on="1"/>
        <pt x="117" y="50" on="1"/>
        <pt x="117" y="475" on="1"/>
        <pt x="43" y="475" on="1"/>
        <pt x="43" y="525" on="1"/>
        <pt x="288" y="525" on="1"/>
        <pt x="288" y="475" on="1"/>
        <pt x="222" y="475" on="1"/>
        <pt x="222" y="293" on="1"/>
        <pt x="467" y="293" on="1"/>
        <pt x="467" y="475" on="1"/>
        <pt x="401" y="475" on="1"/>
        <pt x="401" y="525" on="1"/>
        <pt x="646" y="525" on="1"/>
        <pt x="646" y="475" on="1"/>
        <pt x="572" y="475" on="1"/>
        <pt x="572" y="50" on="1"/>
        <pt x="646" y="50" on="1"/>
        <pt x="646" y="0" on="1"/>
        <pt x="401" y="0" on="1"/>
        <pt x="401" y="50" on="1"/>
        <pt x="467" y="50" on="1"/>
        <pt x="467" y="239" on="1"/>
        <pt x="222" y="239" on="1"/>
        <pt x="222" y="50" on="1"/>
        <pt x="288" y="50" on="1"/>
      </contour>
    </TTGlyph>
    <TTGlyph name="afii10080" xMin="45" yMin="-10" xMax="577" yMax="535">
      <component glyphName="o" x="0" y="0" flags="0x204"/>
    </TTGlyph>
    <TTGlyph name="afii10081" xMin="43" yMin="0" xMax="645" yMax="525">
      <contour>
        <pt x="288" y="0" on="1"/>
        <pt x="43" y="0" on="1"/>
        <pt x="43" y="50" on="1"/>
        <pt x="117" y="50" on="1"/>
        <pt x="117" y="475" on="1"/>
        <pt x="43" y="475" on="1"/>
        <pt x="43" y="525" on="1"/>
        <pt x="645" y="525" on="1"/>
        <pt x="645" y="475" on="1"/>
        <pt x="571" y="475" on="1"/>
        <pt x="571" y="50" on="1"/>
        <pt x="645" y="50" on="1"/>
        <pt x="645" y="0" on="1"/>
        <pt x="400" y="0" on="1"/>
        <pt x="400" y="50" on="1"/>
        <pt x="466" y="50" on="1"/>
        <pt x="466" y="475" on="1"/>
        <pt x="222" y="475" on="1"/>
        <pt x="222" y="50" on="1"/>
        <pt x="288" y="50" on="1"/>
      </contour>
    </TTGlyph>
    <TTGlyph name="afii10082" xMin="34" yMin="-200" xMax="591" yMax="535">
      <component glyphName="p" x="0" y="0" flags="0x204"/>
    </TTGlyph>
    <TTGlyph name="afii10083" xMin="45" yMin="-11" xMax="482" yMax="535">
      <component glyphName="c" x="0" y="0" flags="0x204"/>
    </TTGlyph>
    <TTGlyph name="afii10084" xMin="41" yMin="0" xMax="518" yMax="525">
      <contour>
        <pt x="406" y="0" on="1"/>
        <pt x="153" y="0" on="1"/>
        <pt x="153" y="50" on="1"/>
        <pt x="227" y="50" on="1"/>
        <pt x="227" y="475" on="1"/>
        <pt x="125" y="475" on="1"/>
        <pt x="105" y="455" on="1"/>
        <pt x="105" y="350" on="1"/>
        <pt x="41" y="350" on="1"/>
        <pt x="41" y="525" on="1"/>
        <pt x="518" y="525" on="1"/>
        <pt x="518" y="350" on="1"/>
        <pt x="454" y="350" on="1"/>
        <pt x="454" y="455" on="1"/>
        <pt x="434" y="475" on="1"/>
        <pt x="332" y="475" on="1"/>
        <pt x="332" y="50" on="1"/>
        <pt x="406" y="50" on="1"/>
      </contour>
    </TTGlyph>
    <TTGlyph name="afii10085" xMin="-12" yMin="-200" xMax="580" yMax="525">
      <component glyphName="y" x="0" y="0" flags="0x204"/>
    </TTGlyph>
    <TTGlyph name="afii10086" xMin="45" yMin="-200" xMax="771" yMax="750">
      <contour>
        <pt x="532" y="-200" on="1"/>
        <pt x="284" y="-200" on="1"/>
        <pt x="284" y="-150" on="1"/>
        <pt x="358" y="-150" on="1"/>
        <pt x="358" y="28" on="1"/>
        <pt x="341" y="10" on="0"/>
        <pt x="292" y="-11" on="0"/>
        <pt x="260" y="-11" on="1"/>
        <pt x="212" y="-11" on="0"/>
        <pt x="133" y="19" on="0"/>
        <pt x="76" y="81" on="0"/>
        <pt x="45" y="177" on="0"/>
        <pt x="45" y="244" on="1"/>
        <pt x="45" y="319" on="0"/>
        <pt x="77" y="429" on="0"/>
        <pt x="136" y="500" on="0"/>
        <pt x="220" y="535" on="0"/>
        <pt x="272" y="535" on="1"/>
        <pt x="300" y="535" on="0"/>
        <pt x="347" y="513" on="0"/>
        <pt x="358" y="502" on="1"/>
        <pt x="358" y="700" on="1"/>
        <pt x="272" y="700" on="1"/>
        <pt x="272" y="750" on="1"/>
        <pt x="458" y="750" on="1"/>
        <pt x="458" y="496" on="1"/>
        <pt x="475" y="513" on="0"/>
        <pt x="531" y="535" on="0"/>
        <pt x="562" y="535" on="1"/>
        <pt x="609" y="535" on="0"/>
        <pt x="686" y="506" on="0"/>
        <pt x="741" y="447" on="0"/>
        <pt x="771" y="356" on="0"/>
        <pt x="771" y="294" on="1"/>
        <pt x="771" y="214" on="0"/>
        <pt x="737" y="99" on="0"/>
        <pt x="678" y="24" on="0"/>
        <pt x="596" y="-11" on="0"/>
        <pt x="548" y="-11" on="1"/>
        <pt x="521" y="-11" on="0"/>
        <pt x="472" y="7" on="0"/>
        <pt x="458" y="21" on="1"/>
        <pt x="458" y="-150" on="1"/>
        <pt x="532" y="-150" on="1"/>
      </contour>
      <contour>
        <pt x="286" y="43" on="1"/>
        <pt x="304" y="43" on="0"/>
        <pt x="344" y="53" on="0"/>
        <pt x="359" y="67" on="1"/>
        <pt x="359" y="463" on="1"/>
        <pt x="345" y="472" on="0"/>
        <pt x="313" y="481" on="0"/>
        <pt x="284" y="481" on="1"/>
        <pt x="256" y="481" on="0"/>
        <pt x="209" y="459" on="0"/>
        <pt x="174" y="412" on="0"/>
        <pt x="155" y="338" on="0"/>
        <pt x="155" y="285" on="1"/>
        <pt x="155" y="214" on="0"/>
        <pt x="175" y="121" on="0"/>
        <pt x="210" y="65" on="0"/>
        <pt x="258" y="43" on="0"/>
      </contour>
      <contour>
        <pt x="534" y="481" on="1"/>
        <pt x="511" y="481" on="0"/>
        <pt x="472" y="472" on="0"/>
        <pt x="457" y="459" on="1"/>
        <pt x="457" y="62" on="1"/>
        <pt x="471" y="51" on="0"/>
        <pt x="504" y="43" on="0"/>
        <pt x="531" y="43" on="1"/>
        <pt x="556" y="43" on="0"/>
        <pt x="603" y="65" on="0"/>
        <pt x="639" y="116" on="0"/>
        <pt x="661" y="198" on="0"/>
        <pt x="661" y="257" on="1"/>
        <pt x="661" y="321" on="0"/>
        <pt x="645" y="408" on="0"/>
        <pt x="613" y="459" on="0"/>
        <pt x="565" y="481" on="0"/>
      </contour>
    </TTGlyph>
    <TTGlyph name="afii10087" xMin="11" yMin="0" xMax="573" yMax="525">
      <component glyphName="x" x="-1" y="0" flags="0x4"/>
    </TTGlyph>
    <TTGlyph name="afii10088" xMin="43" yMin="-150" xMax="657" yMax="525">
      <contour>
        <pt x="43" y="0" on="1"/>
        <pt x="43" y="50" on="1"/>
        <pt x="117" y="50" on="1"/>
        <pt x="117" y="475" on="1"/>
        <pt x="43" y="475" on="1"/>
        <pt x="43" y="525" on="1"/>
        <pt x="288" y="525" on="1"/>
        <pt x="288" y="475" on="1"/>
        <pt x="222" y="475" on="1"/>
        <pt x="222" y="50" on="1"/>
        <pt x="455" y="50" on="1"/>
        <pt x="455" y="475" on="1"/>
        <pt x="389" y="475" on="1"/>
        <pt x="389" y="525" on="1"/>
        <pt x="634" y="525" on="1"/>
        <pt x="634" y="475" on="1"/>
        <pt x="560" y="475" on="1"/>
        <pt x="560" y="50" on="1"/>
        <pt x="657" y="50" on="1"/>
        <pt x="657" y="-150" on="1"/>
        <pt x="593" y="-150" on="1"/>
        <pt x="593" y="-20" on="1"/>
        <pt x="573" y="0" on="1"/>
      </contour>
    </TTGlyph>
    <TTGlyph name="afii10089" xMin="16" yMin="0" xMax="586" yMax="525">
      <contour>
        <pt x="16" y="525" on="1"/>
        <pt x="260" y="525" on="1"/>
        <pt x="260" y="475" on="1"/>
        <pt x="195" y="475" on="1"/>
        <pt x="195" y="345" on="1"/>
        <pt x="195" y="297" on="0"/>
        <pt x="239" y="238" on="0"/>
        <pt x="291" y="238" on="1"/>
        <pt x="322" y="238" on="0"/>
        <pt x="381" y="258" on="0"/>
        <pt x="407" y="273" on="1"/>
        <pt x="407" y="475" on="1"/>
        <pt x="342" y="475" on="1"/>
        <pt x="342" y="525" on="1"/>
        <pt x="586" y="525" on="1"/>
        <pt x="586" y="475" on="1"/>
        <pt x="512" y="475" on="1"/>
        <pt x="512" y="50" on="1"/>
        <pt x="586" y="50" on="1"/>
        <pt x="586" y="0" on="1"/>
        <pt x="317" y="0" on="1"/>
        <pt x="317" y="50" on="1"/>
        <pt x="407" y="50" on="1"/>
        <pt x="407" y="238" on="1"/>
        <pt x="380" y="211" on="0"/>
        <pt x="305" y="176" on="0"/>
        <pt x="250" y="176" on="1"/>
        <pt x="174" y="176" on="0"/>
        <pt x="90" y="256" on="0"/>
        <pt x="90" y="324" on="1"/>
        <pt x="90" y="475" on="1"/>
        <pt x="16" y="475" on="1"/>
      </contour>
    </TTGlyph>
    <TTGlyph name="afii10090" xMin="43" yMin="0" xMax="896" yMax="525">
      <contour>
        <pt x="717" y="50" on="1"/>
        <pt x="717" y="475" on="1"/>
        <pt x="656" y="475" on="1"/>
        <pt x="656" y="525" on="1"/>
        <pt x="896" y="525" on="1"/>
        <pt x="896" y="475" on="1"/>
        <pt x="822" y="475" on="1"/>
        <pt x="822" y="50" on="1"/>
        <pt x="896" y="50" on="1"/>
        <pt x="896" y="0" on="1"/>
        <pt x="43" y="0" on="1"/>
        <pt x="43" y="50" on="1"/>
        <pt x="117" y="50" on="1"/>
        <pt x="117" y="475" on="1"/>
        <pt x="43" y="475" on="1"/>
        <pt x="43" y="525" on="1"/>
        <pt x="281" y="525" on="1"/>
        <pt x="281" y="475" on="1"/>
        <pt x="222" y="475" on="1"/>
        <pt x="222" y="50" on="1"/>
        <pt x="417" y="50" on="1"/>
        <pt x="417" y="475" on="1"/>
        <pt x="358" y="475" on="1"/>
        <pt x="358" y="525" on="1"/>
        <pt x="581" y="525" on="1"/>
        <pt x="581" y="475" on="1"/>
        <pt x="522" y="475" on="1"/>
        <pt x="522" y="50" on="1"/>
      </contour>
    </TTGlyph>
    <TTGlyph name="afii10091" xMin="43" yMin="-150" xMax="919" yMax="525">
      <contour>
        <pt x="43" y="0" on="1"/>
        <pt x="43" y="50" on="1"/>
        <pt x="117" y="50" on="1"/>
        <pt x="117" y="475" on="1"/>
        <pt x="43" y="475" on="1"/>
        <pt x="43" y="525" on="1"/>
        <pt x="281" y="525" on="1"/>
        <pt x="281" y="475" on="1"/>
        <pt x="222" y="475" on="1"/>
        <pt x="222" y="50" on="1"/>
        <pt x="417" y="50" on="1"/>
        <pt x="417" y="475" on="1"/>
        <pt x="358" y="475" on="1"/>
        <pt x="358" y="525" on="1"/>
        <pt x="581" y="525" on="1"/>
        <pt x="581" y="475" on="1"/>
        <pt x="522" y="475" on="1"/>
        <pt x="522" y="50" on="1"/>
        <pt x="717" y="50" on="1"/>
        <pt x="717" y="475" on="1"/>
        <pt x="656" y="475" on="1"/>
        <pt x="656" y="525" on="1"/>
        <pt x="896" y="525" on="1"/>
        <pt x="896" y="475" on="1"/>
        <pt x="822" y="475" on="1"/>
        <pt x="822" y="50" on="1"/>
        <pt x="919" y="50" on="1"/>
        <pt x="919" y="-150" on="1"/>
        <pt x="855" y="-150" on="1"/>
        <pt x="855" y="-22" on="1"/>
        <pt x="835" y="0" on="1"/>
      </contour>
    </TTGlyph>
    <TTGlyph name="afii10092" xMin="19" yMin="-4" xMax="609" yMax="525">
      <contour>
        <pt x="300" y="47" on="1"/>
        <pt x="314" y="46" on="0"/>
        <pt x="343" y="43" on="0"/>
        <pt x="358" y="43" on="1"/>
        <pt x="423" y="43" on="0"/>
        <pt x="496" y="103" on="0"/>
        <pt x="496" y="168" on="1"/>
        <pt x="496" y="198" on="0"/>
        <pt x="476" y="238" on="0"/>
        <pt x="442" y="263" on="0"/>
        <pt x="397" y="273" on="0"/>
        <pt x="372" y="273" on="1"/>
        <pt x="353" y="273" on="0"/>
        <pt x="317" y="271" on="0"/>
        <pt x="300" y="268" on="1"/>
      </contour>
      <contour>
        <pt x="367" y="525" on="1"/>
        <pt x="367" y="475" on="1"/>
        <pt x="300" y="475" on="1"/>
        <pt x="300" y="312" on="1"/>
        <pt x="319" y="314" on="0"/>
        <pt x="367" y="320" on="0"/>
        <pt x="412" y="320" on="1"/>
        <pt x="504" y="320" on="0"/>
        <pt x="609" y="246" on="0"/>
        <pt x="609" y="167" on="1"/>
        <pt x="609" y="125" on="0"/>
        <pt x="575" y="62" on="0"/>
        <pt x="514" y="18" on="0"/>
        <pt x="429" y="-4" on="0"/>
        <pt x="379" y="-4" on="1"/>
        <pt x="348" y="-4" on="0"/>
        <pt x="270" y="0" on="0"/>
        <pt x="227" y="0" on="1"/>
        <pt x="121" y="0" on="1"/>
        <pt x="121" y="50" on="1"/>
        <pt x="195" y="50" on="1"/>
        <pt x="195" y="475" on="1"/>
        <pt x="103" y="475" on="1"/>
        <pt x="83" y="455" on="1"/>
        <pt x="83" y="351" on="1"/>
        <pt x="19" y="351" on="1"/>
        <pt x="19" y="525" on="1"/>
      </contour>
    </TTGlyph>
    <TTGlyph name="afii10093" xMin="43" yMin="-4" xMax="799" yMax="525">
      <contour>
        <pt x="222" y="312" on="1"/>
        <pt x="240" y="314" on="0"/>
        <pt x="288" y="320" on="0"/>
        <pt x="333" y="320" on="1"/>
        <pt x="418" y="320" on="0"/>
        <pt x="519" y="246" on="0"/>
        <pt x="519" y="167" on="1"/>
        <pt x="519" y="125" on="0"/>
        <pt x="487" y="62" on="0"/>
        <pt x="429" y="18" on="0"/>
        <pt x="348" y="-4" on="0"/>
        <pt x="299" y="-4" on="1"/>
        <pt x="269" y="-4" on="0"/>
        <pt x="190" y="0" on="0"/>
        <pt x="147" y="0" on="1"/>
        <pt x="43" y="0" on="1"/>
        <pt x="43" y="50" on="1"/>
        <pt x="117" y="50" on="1"/>
        <pt x="117" y="475" on="1"/>
        <pt x="43" y="475" on="1"/>
        <pt x="43" y="525" on="1"/>
        <pt x="289" y="525" on="1"/>
        <pt x="289" y="475" on="1"/>
        <pt x="222" y="475" on="1"/>
      </contour>
      <contour>
        <pt x="222" y="47" on="1"/>
        <pt x="236" y="46" on="0"/>
        <pt x="266" y="43" on="0"/>
        <pt x="280" y="43" on="1"/>
        <pt x="406" y="43" on="0"/>
        <pt x="406" y="168" on="1"/>
        <pt x="406" y="198" on="0"/>
        <pt x="386" y="238" on="0"/>
        <pt x="354" y="262" on="0"/>
        <pt x="311" y="273" on="0"/>
        <pt x="289" y="273" on="1"/>
        <pt x="274" y="273" on="0"/>
        <pt x="239" y="271" on="0"/>
        <pt x="222" y="268" on="1"/>
      </contour>
      <contour>
        <pt x="799" y="0" on="1"/>
        <pt x="554" y="0" on="1"/>
        <pt x="554" y="50" on="1"/>
        <pt x="620" y="50" on="1"/>
        <pt x="620" y="475" on="1"/>
        <pt x="553" y="475" on="1"/>
        <pt x="553" y="525" on="1"/>
        <pt x="799" y="525" on="1"/>
        <pt x="799" y="475" on="1"/>
        <pt x="725" y="475" on="1"/>
        <pt x="725" y="50" on="1"/>
        <pt x="799" y="50" on="1"/>
      </contour>
    </TTGlyph>
    <TTGlyph name="afii10094" xMin="43" yMin="-4" xMax="530" yMax="525">
      <contour>
        <pt x="222" y="312" on="1"/>
        <pt x="240" y="314" on="0"/>
        <pt x="289" y="320" on="0"/>
        <pt x="334" y="320" on="1"/>
        <pt x="426" y="320" on="0"/>
        <pt x="530" y="246" on="0"/>
        <pt x="530" y="167" on="1"/>
        <pt x="530" y="125" on="0"/>
        <pt x="496" y="62" on="0"/>
        <pt x="435" y="18" on="0"/>
        <pt x="351" y="-4" on="0"/>
        <pt x="300" y="-4" on="1"/>
        <pt x="270" y="-4" on="0"/>
        <pt x="190" y="0" on="0"/>
        <pt x="147" y="0" on="1"/>
        <pt x="43" y="0" on="1"/>
        <pt x="43" y="50" on="1"/>
        <pt x="117" y="50" on="1"/>
        <pt x="117" y="475" on="1"/>
        <pt x="43" y="475" on="1"/>
        <pt x="43" y="525" on="1"/>
        <pt x="289" y="525" on="1"/>
        <pt x="289" y="475" on="1"/>
        <pt x="222" y="475" on="1"/>
      </contour>
      <contour>
        <pt x="222" y="47" on="1"/>
        <pt x="236" y="46" on="0"/>
        <pt x="266" y="43" on="0"/>
        <pt x="280" y="43" on="1"/>
        <pt x="344" y="43" on="0"/>
        <pt x="417" y="103" on="0"/>
        <pt x="417" y="168" on="1"/>
        <pt x="417" y="198" on="0"/>
        <pt x="397" y="238" on="0"/>
        <pt x="363" y="262" on="0"/>
        <pt x="317" y="273" on="0"/>
        <pt x="292" y="273" on="1"/>
        <pt x="275" y="273" on="0"/>
        <pt x="239" y="271" on="0"/>
        <pt x="222" y="268" on="1"/>
      </contour>
    </TTGlyph>
    <TTGlyph name="afii10095" xMin="70" yMin="-10" xMax="507" yMax="538">
      <contour>
        <pt x="241" y="-10" on="1"/>
        <pt x="183" y="-10" on="0"/>
        <pt x="99" y="27" on="0"/>
        <pt x="70" y="53" on="1"/>
        <pt x="70" y="153" on="1"/>
        <pt x="134" y="153" on="1"/>
        <pt x="134" y="85" on="1"/>
        <pt x="149" y="65" on="1"/>
        <pt x="160" y="59" on="0"/>
        <pt x="203" y="44" on="0"/>
        <pt x="238" y="44" on="1"/>
        <pt x="313" y="44" on="0"/>
        <pt x="394" y="147" on="0"/>
        <pt x="394" y="237" on="1"/>
        <pt x="170" y="237" on="1"/>
        <pt x="170" y="291" on="1"/>
        <pt x="393" y="291" on="1"/>
        <pt x="391" y="347" on="0"/>
        <pt x="367" y="421" on="0"/>
        <pt x="325" y="466" on="0"/>
        <pt x="267" y="484" on="0"/>
        <pt x="233" y="484" on="1"/>
        <pt x="199" y="484" on="0"/>
        <pt x="167" y="476" on="0"/>
        <pt x="158" y="472" on="1"/>
        <pt x="141" y="452" on="1"/>
        <pt x="141" y="355" on="1"/>
        <pt x="77" y="355" on="1"/>
        <pt x="77" y="498" on="1"/>
        <pt x="92" y="506" on="0"/>
        <pt x="124" y="520" on="0"/>
        <pt x="165" y="531" on="0"/>
        <pt x="217" y="538" on="0"/>
        <pt x="253" y="538" on="1"/>
        <pt x="307" y="538" on="0"/>
        <pt x="399" y="510" on="0"/>
        <pt x="468" y="448" on="0"/>
        <pt x="507" y="346" on="0"/>
        <pt x="507" y="273" on="1"/>
        <pt x="507" y="198" on="0"/>
        <pt x="461" y="91" on="0"/>
        <pt x="386" y="22" on="0"/>
        <pt x="291" y="-10" on="0"/>
      </contour>
    </TTGlyph>
    <TTGlyph name="afii10096" xMin="43" yMin="-11" xMax="841" yMax="535">
      <contour>
        <pt x="288" y="0" on="1"/>
        <pt x="43" y="0" on="1"/>
        <pt x="43" y="50" on="1"/>
        <pt x="117" y="50" on="1"/>
        <pt x="117" y="475" on="1"/>
        <pt x="43" y="475" on="1"/>
        <pt x="43" y="525" on="1"/>
        <pt x="288" y="525" on="1"/>
        <pt x="288" y="475" on="1"/>
        <pt x="222" y="475" on="1"/>
        <pt x="222" y="293" on="1"/>
        <pt x="332" y="293" on="1"/>
        <pt x="335" y="351" on="0"/>
        <pt x="373" y="442" on="0"/>
        <pt x="439" y="503" on="0"/>
        <pt x="530" y="535" on="0"/>
        <pt x="585" y="535" on="1"/>
        <pt x="712" y="535" on="0"/>
        <pt x="841" y="396" on="0"/>
        <pt x="841" y="259" on="1"/>
        <pt x="841" y="132" on="0"/>
        <pt x="709" y="-11" on="0"/>
        <pt x="585" y="-11" on="1"/>
        <pt x="531" y="-11" on="0"/>
        <pt x="440" y="18" on="0"/>
        <pt x="373" y="79" on="0"/>
        <pt x="334" y="173" on="0"/>
        <pt x="332" y="239" on="1"/>
        <pt x="222" y="239" on="1"/>
        <pt x="222" y="50" on="1"/>
        <pt x="288" y="50" on="1"/>
      </contour>
      <contour>
        <pt x="442" y="262" on="1"/>
        <pt x="442" y="206" on="0"/>
        <pt x="466" y="121" on="0"/>
        <pt x="507" y="64" on="0"/>
        <pt x="562" y="36" on="0"/>
        <pt x="592" y="36" on="1"/>
        <pt x="664" y="36" on="0"/>
        <pt x="728" y="154" on="0"/>
        <pt x="728" y="262" on="1"/>
        <pt x="728" y="377" on="0"/>
        <pt x="657" y="488" on="0"/>
        <pt x="580" y="488" on="1"/>
        <pt x="514" y="488" on="0"/>
        <pt x="442" y="369" on="0"/>
      </contour>
    </TTGlyph>
    <TTGlyph name="afii10097" xMin="0" yMin="0" xMax="554" yMax="531">
      <contour>
        <pt x="71" y="371" on="1"/>
        <pt x="71" y="406" on="0"/>
        <pt x="96" y="465" on="0"/>
        <pt x="148" y="507" on="0"/>
        <pt x="231" y="531" on="0"/>
        <pt x="289" y="531" on="1"/>
        <pt x="302" y="531" on="0"/>
        <pt x="351" y="529" on="0"/>
        <pt x="405" y="527" on="0"/>
        <pt x="455" y="525" on="0"/>
        <pt x="470" y="525" on="1"/>
        <pt x="554" y="525" on="1"/>
        <pt x="554" y="475" on="1"/>
        <pt x="480" y="475" on="1"/>
        <pt x="480" y="50" on="1"/>
        <pt x="554" y="50" on="1"/>
        <pt x="554" y="0" on="1"/>
        <pt x="309" y="0" on="1"/>
        <pt x="309" y="50" on="1"/>
        <pt x="375" y="50" on="1"/>
        <pt x="375" y="216" on="1"/>
        <pt x="305" y="216" on="1"/>
        <pt x="154" y="0" on="1"/>
        <pt x="0" y="0" on="1"/>
        <pt x="0" y="50" on="1"/>
        <pt x="56" y="50" on="1"/>
        <pt x="204" y="221" on="1"/>
        <pt x="181" y="225" on="0"/>
        <pt x="134" y="248" on="0"/>
        <pt x="96" y="286" on="0"/>
        <pt x="71" y="338" on="0"/>
      </contour>
      <contour>
        <pt x="375" y="478" on="1"/>
        <pt x="361" y="480" on="0"/>
        <pt x="315" y="484" on="0"/>
        <pt x="301" y="484" on="1"/>
        <pt x="267" y="484" on="0"/>
        <pt x="221" y="468" on="0"/>
        <pt x="193" y="439" on="0"/>
        <pt x="181" y="398" on="0"/>
        <pt x="181" y="373" on="1"/>
        <pt x="181" y="322" on="0"/>
        <pt x="261" y="257" on="0"/>
        <pt x="346" y="257" on="1"/>
        <pt x="375" y="257" on="1"/>
      </contour>
    </TTGlyph>
    <TTGlyph name="afii10098" xMin="43" yMin="0" xMax="450" yMax="650">
      <contour>
        <pt x="366" y="525" on="1"/>
        <pt x="386" y="545" on="1"/>
        <pt x="386" y="650" on="1"/>
        <pt x="450" y="650" on="1"/>
        <pt x="450" y="475" on="1"/>
        <pt x="222" y="475" on="1"/>
        <pt x="222" y="50" on="1"/>
        <pt x="323" y="50" on="1"/>
        <pt x="323" y="0" on="1"/>
        <pt x="43" y="0" on="1"/>
        <pt x="43" y="50" on="1"/>
        <pt x="117" y="50" on="1"/>
        <pt x="117" y="475" on="1"/>
        <pt x="43" y="475" on="1"/>
        <pt x="43" y="525" on="1"/>
      </contour>
    </TTGlyph>
    <TTGlyph name="afii10099" xMin="15" yMin="-206" xMax="568" yMax="750">
      <contour>
        <pt x="25" y="633" on="1"/>
        <pt x="100" y="633" on="1"/>
        <pt x="100" y="700" on="1"/>
        <pt x="15" y="700" on="1"/>
        <pt x="15" y="750" on="1"/>
        <pt x="205" y="750" on="1"/>
        <pt x="205" y="633" on="1"/>
        <pt x="401" y="633" on="1"/>
        <pt x="401" y="578" on="1"/>
        <pt x="205" y="578" on="1"/>
        <pt x="205" y="383" on="1"/>
        <pt x="206" y="383" on="1"/>
        <pt x="229" y="432" on="0"/>
        <pt x="328" y="499" on="0"/>
        <pt x="397" y="499" on="1"/>
        <pt x="436" y="499" on="0"/>
        <pt x="500" y="480" on="0"/>
        <pt x="544" y="430" on="0"/>
        <pt x="568" y="346" on="0"/>
        <pt x="568" y="281" on="1"/>
        <pt x="568" y="50" on="1"/>
        <pt x="566" y="-21" on="0"/>
        <pt x="524" y="-115" on="0"/>
        <pt x="469" y="-173" on="0"/>
        <pt x="414" y="-201" on="0"/>
        <pt x="398" y="-206" on="1"/>
        <pt x="369" y="-159" on="1"/>
        <pt x="382" y="-153" on="0"/>
        <pt x="415" y="-129" on="0"/>
        <pt x="443" y="-84" on="0"/>
        <pt x="463" y="-13" on="0"/>
        <pt x="463" y="42" on="1"/>
        <pt x="463" y="260" on="1"/>
        <pt x="463" y="343" on="0"/>
        <pt x="419" y="432" on="0"/>
        <pt x="363" y="432" on="1"/>
        <pt x="333" y="432" on="0"/>
        <pt x="281" y="412" on="0"/>
        <pt x="241" y="380" on="0"/>
        <pt x="212" y="341" on="0"/>
        <pt x="205" y="322" on="1"/>
        <pt x="205" y="50" on="1"/>
        <pt x="271" y="50" on="1"/>
        <pt x="271" y="0" on="1"/>
        <pt x="26" y="0" on="1"/>
        <pt x="26" y="50" on="1"/>
        <pt x="100" y="50" on="1"/>
        <pt x="100" y="578" on="1"/>
        <pt x="25" y="578" on="1"/>
      </contour>
    </TTGlyph>
    <TTGlyph name="afii10100" xMin="43" yMin="0" xMax="461" yMax="750">
      <component glyphName="afii10068" x="0" y="0" flags="0x204"/>
      <component glyphName="acute" x="156" y="0" flags="0x4"/>
    </TTGlyph>
    <TTGlyph name="afii10101" xMin="45" yMin="-11" xMax="492" yMax="535">
      <contour>
        <pt x="363" y="237" on="1"/>
        <pt x="159" y="237" on="1"/>
        <pt x="163" y="201" on="0"/>
        <pt x="191" y="138" on="0"/>
        <pt x="239" y="91" on="0"/>
        <pt x="304" y="64" on="0"/>
        <pt x="346" y="64" on="1"/>
        <pt x="370" y="64" on="0"/>
        <pt x="407" y="71" on="0"/>
        <pt x="435" y="82" on="0"/>
        <pt x="457" y="96" on="0"/>
        <pt x="467" y="104" on="1"/>
        <pt x="492" y="64" on="1"/>
        <pt x="471" y="35" on="0"/>
        <pt x="380" y="-11" on="0"/>
        <pt x="318" y="-11" on="1"/>
        <pt x="252" y="-11" on="0"/>
        <pt x="150" y="28" on="0"/>
        <pt x="81" y="99" on="0"/>
        <pt x="45" y="200" on="0"/>
        <pt x="45" y="262" on="1"/>
        <pt x="45" y="328" on="0"/>
        <pt x="85" y="430" on="0"/>
        <pt x="157" y="499" on="0"/>
        <pt x="257" y="535" on="0"/>
        <pt x="317" y="535" on="1"/>
        <pt x="372" y="535" on="0"/>
        <pt x="444" y="521" on="0"/>
        <pt x="474" y="506" on="1"/>
        <pt x="474" y="376" on="1"/>
        <pt x="410" y="376" on="1"/>
        <pt x="410" y="457" on="1"/>
        <pt x="398" y="472" on="1"/>
        <pt x="390" y="477" on="0"/>
        <pt x="347" y="481" on="0"/>
        <pt x="324" y="481" on="1"/>
        <pt x="288" y="481" on="0"/>
        <pt x="229" y="462" on="0"/>
        <pt x="186" y="417" on="0"/>
        <pt x="161" y="345" on="0"/>
        <pt x="158" y="291" on="1"/>
        <pt x="363" y="291" on="1"/>
      </contour>
    </TTGlyph>
    <TTGlyph name="afii10102" xMin="60" yMin="-10" xMax="435" yMax="535">
      <component glyphName="s" x="0" y="0" flags="0x204"/>
    </TTGlyph>
    <TTGlyph name="afii10103" xMin="45" yMin="0" xMax="298" yMax="750">
      <component glyphName="i" x="0" y="0" flags="0x204"/>
    </TTGlyph>
    <TTGlyph name="afii10103.alt" xMin="45" yMin="0" xMax="298" yMax="525">
      <component glyphName="dotlessi" x="0" y="0" flags="0x204"/>
    </TTGlyph>
    <TTGlyph name="afii10104" xMin="40" yMin="0" xMax="344" yMax="750">
      <contour>
        <pt x="40" y="688" on="1"/>
        <pt x="40" y="717" on="0"/>
        <pt x="72" y="750" on="0"/>
        <pt x="100" y="750" on="1"/>
        <pt x="128" y="750" on="0"/>
        <pt x="162" y="717" on="0"/>
        <pt x="162" y="688" on="1"/>
        <pt x="162" y="662" on="0"/>
        <pt x="128" y="628" on="0"/>
        <pt x="100" y="628" on="1"/>
        <pt x="72" y="628" on="0"/>
        <pt x="40" y="662" on="0"/>
      </contour>
      <contour>
        <pt x="222" y="688" on="1"/>
        <pt x="222" y="717" on="0"/>
        <pt x="255" y="750" on="0"/>
        <pt x="283" y="750" on="1"/>
        <pt x="311" y="750" on="0"/>
        <pt x="344" y="717" on="0"/>
        <pt x="344" y="688" on="1"/>
        <pt x="344" y="662" on="0"/>
        <pt x="311" y="628" on="0"/>
        <pt x="283" y="628" on="1"/>
        <pt x="255" y="628" on="0"/>
        <pt x="222" y="662" on="0"/>
      </contour>
      <contour>
        <pt x="321" y="0" on="1"/>
        <pt x="68" y="0" on="1"/>
        <pt x="68" y="50" on="1"/>
        <pt x="142" y="50" on="1"/>
        <pt x="142" y="475" on="1"/>
        <pt x="68" y="475" on="1"/>
        <pt x="68" y="525" on="1"/>
        <pt x="247" y="525" on="1"/>
        <pt x="247" y="50" on="1"/>
        <pt x="321" y="50" on="1"/>
      </contour>
    </TTGlyph>
    <TTGlyph name="afii10105" xMin="27" yMin="-206" xMax="242" yMax="750">
      <component glyphName="j" x="0" y="0" flags="0x204"/>
    </TTGlyph>
    <TTGlyph name="afii10106" xMin="22" yMin="-4" xMax="792" yMax="525">
      <contour>
        <pt x="495" y="47" on="1"/>
        <pt x="509" y="46" on="0"/>
        <pt x="539" y="43" on="0"/>
        <pt x="553" y="43" on="1"/>
        <pt x="679" y="43" on="0"/>
        <pt x="679" y="168" on="1"/>
        <pt x="679" y="198" on="0"/>
        <pt x="660" y="238" on="0"/>
        <pt x="628" y="262" on="0"/>
        <pt x="585" y="273" on="0"/>
        <pt x="562" y="273" on="1"/>
        <pt x="548" y="273" on="0"/>
        <pt x="512" y="271" on="0"/>
        <pt x="495" y="268" on="1"/>
      </contour>
      <contour>
        <pt x="495" y="312" on="1"/>
        <pt x="514" y="314" on="0"/>
        <pt x="562" y="320" on="0"/>
        <pt x="607" y="320" on="1"/>
        <pt x="692" y="320" on="0"/>
        <pt x="792" y="246" on="0"/>
        <pt x="792" y="167" on="1"/>
        <pt x="792" y="125" on="0"/>
        <pt x="760" y="62" on="0"/>
        <pt x="702" y="18" on="0"/>
        <pt x="621" y="-4" on="0"/>
        <pt x="573" y="-4" on="1"/>
        <pt x="543" y="-4" on="0"/>
        <pt x="463" y="0" on="0"/>
        <pt x="420" y="0" on="1"/>
        <pt x="324" y="0" on="1"/>
        <pt x="324" y="50" on="1"/>
        <pt x="390" y="50" on="1"/>
        <pt x="390" y="475" on="1"/>
        <pt x="244" y="475" on="1"/>
        <pt x="243" y="381" on="0"/>
        <pt x="222" y="225" on="0"/>
        <pt x="186" y="104" on="0"/>
        <pt x="139" y="21" on="0"/>
        <pt x="112" y="0" on="1"/>
        <pt x="22" y="0" on="1"/>
        <pt x="22" y="107" on="1"/>
        <pt x="116" y="107" on="1"/>
        <pt x="135" y="132" on="0"/>
        <pt x="161" y="215" on="0"/>
        <pt x="177" y="315" on="0"/>
        <pt x="184" y="424" on="0"/>
        <pt x="184" y="475" on="1"/>
        <pt x="106" y="475" on="1"/>
        <pt x="106" y="525" on="1"/>
        <pt x="569" y="525" on="1"/>
        <pt x="569" y="475" on="1"/>
        <pt x="495" y="475" on="1"/>
      </contour>
    </TTGlyph>
    <TTGlyph name="afii10107" xMin="43" yMin="-4" xMax="870" yMax="525">
      <contour>
        <pt x="573" y="47" on="1"/>
        <pt x="587" y="46" on="0"/>
        <pt x="617" y="43" on="0"/>
        <pt x="631" y="43" on="1"/>
        <pt x="757" y="43" on="0"/>
        <pt x="757" y="168" on="1"/>
        <pt x="757" y="198" on="0"/>
        <pt x="738" y="238" on="0"/>
        <pt x="706" y="262" on="0"/>
        <pt x="663" y="273" on="0"/>
        <pt x="640" y="273" on="1"/>
        <pt x="626" y="273" on="0"/>
        <pt x="590" y="271" on="0"/>
        <pt x="573" y="268" on="1"/>
      </contour>
      <contour>
        <pt x="573" y="312" on="1"/>
        <pt x="592" y="314" on="0"/>
        <pt x="640" y="320" on="0"/>
        <pt x="685" y="320" on="1"/>
        <pt x="770" y="320" on="0"/>
        <pt x="870" y="246" on="0"/>
        <pt x="870" y="167" on="1"/>
        <pt x="870" y="125" on="0"/>
        <pt x="838" y="62" on="0"/>
        <pt x="780" y="18" on="0"/>
        <pt x="699" y="-4" on="0"/>
        <pt x="651" y="-4" on="1"/>
        <pt x="621" y="-4" on="0"/>
        <pt x="541" y="0" on="0"/>
        <pt x="498" y="0" on="1"/>
        <pt x="402" y="0" on="1"/>
        <pt x="402" y="50" on="1"/>
        <pt x="468" y="50" on="1"/>
        <pt x="468" y="239" on="1"/>
        <pt x="222" y="239" on="1"/>
        <pt x="222" y="50" on="1"/>
        <pt x="288" y="50" on="1"/>
        <pt x="288" y="0" on="1"/>
        <pt x="43" y="0" on="1"/>
        <pt x="43" y="50" on="1"/>
        <pt x="117" y="50" on="1"/>
        <pt x="117" y="475" on="1"/>
        <pt x="43" y="475" on="1"/>
        <pt x="43" y="525" on="1"/>
        <pt x="288" y="525" on="1"/>
        <pt x="288" y="475" on="1"/>
        <pt x="222" y="475" on="1"/>
        <pt x="222" y="293" on="1"/>
        <pt x="468" y="293" on="1"/>
        <pt x="468" y="475" on="1"/>
        <pt x="401" y="475" on="1"/>
        <pt x="401" y="525" on="1"/>
        <pt x="646" y="525" on="1"/>
        <pt x="646" y="475" on="1"/>
        <pt x="572" y="475" on="1"/>
      </contour>
    </TTGlyph>
    <TTGlyph name="afii10108" xMin="15" yMin="0" xMax="642" yMax="750">
      <contour>
        <pt x="25" y="633" on="1"/>
        <pt x="100" y="633" on="1"/>
        <pt x="100" y="700" on="1"/>
        <pt x="15" y="700" on="1"/>
        <pt x="15" y="750" on="1"/>
        <pt x="205" y="750" on="1"/>
        <pt x="205" y="633" on="1"/>
        <pt x="401" y="633" on="1"/>
        <pt x="401" y="578" on="1"/>
        <pt x="205" y="578" on="1"/>
        <pt x="205" y="383" on="1"/>
        <pt x="206" y="383" on="1"/>
        <pt x="229" y="432" on="0"/>
        <pt x="328" y="499" on="0"/>
        <pt x="397" y="499" on="1"/>
        <pt x="436" y="499" on="0"/>
        <pt x="500" y="480" on="0"/>
        <pt x="544" y="430" on="0"/>
        <pt x="568" y="346" on="0"/>
        <pt x="568" y="281" on="1"/>
        <pt x="568" y="50" on="1"/>
        <pt x="642" y="50" on="1"/>
        <pt x="642" y="0" on="1"/>
        <pt x="463" y="0" on="1"/>
        <pt x="463" y="260" on="1"/>
        <pt x="463" y="343" on="0"/>
        <pt x="419" y="432" on="0"/>
        <pt x="363" y="432" on="1"/>
        <pt x="333" y="432" on="0"/>
        <pt x="281" y="412" on="0"/>
        <pt x="241" y="380" on="0"/>
        <pt x="212" y="341" on="0"/>
        <pt x="205" y="322" on="1"/>
        <pt x="205" y="50" on="1"/>
        <pt x="271" y="50" on="1"/>
        <pt x="271" y="0" on="1"/>
        <pt x="26" y="0" on="1"/>
        <pt x="26" y="50" on="1"/>
        <pt x="100" y="50" on="1"/>
        <pt x="100" y="578" on="1"/>
        <pt x="25" y="578" on="1"/>
      </contour>
    </TTGlyph>
    <TTGlyph name="afii10109" xMin="43" yMin="0" xMax="609" yMax="750">
      <component glyphName="afii10076" x="0" y="0" flags="0x204"/>
      <component glyphName="acute" x="205" y="0" flags="0x4"/>
    </TTGlyph>
    <TTGlyph name="afii10110" xMin="-12" yMin="-200" xMax="580" yMax="728">
      <component glyphName="y" x="0" y="0" flags="0x204"/>
      <component glyphName="uniF6D4" x="57" y="0" flags="0x4"/>
    </TTGlyph>
    <TTGlyph name="afii10145" xMin="32" yMin="-200" xMax="776" yMax="700">
      <contour>
        <pt x="573" y="56" on="1"/>
        <pt x="573" y="644" on="1"/>
        <pt x="490" y="644" on="1"/>
        <pt x="490" y="700" on="1"/>
        <pt x="776" y="700" on="1"/>
        <pt x="776" y="644" on="1"/>
        <pt x="685" y="644" on="1"/>
        <pt x="685" y="56" on="1"/>
        <pt x="776" y="56" on="1"/>
        <pt x="776" y="0" on="1"/>
        <pt x="444" y="0" on="1"/>
        <pt x="444" y="-200" on="1"/>
        <pt x="364" y="-200" on="1"/>
        <pt x="364" y="0" on="1"/>
        <pt x="32" y="0" on="1"/>
        <pt x="32" y="56" on="1"/>
        <pt x="123" y="56" on="1"/>
        <pt x="123" y="644" on="1"/>
        <pt x="32" y="644" on="1"/>
        <pt x="32" y="700" on="1"/>
        <pt x="318" y="700" on="1"/>
        <pt x="318" y="644" on="1"/>
        <pt x="235" y="644" on="1"/>
        <pt x="235" y="56" on="1"/>
      </contour>
    </TTGlyph>
    <TTGlyph name="afii10146" xMin="12" yMin="-3" xMax="759" yMax="721">
      <contour>
        <pt x="96" y="561" on="1"/>
        <pt x="76" y="539" on="1"/>
        <pt x="76" y="421" on="1"/>
        <pt x="12" y="421" on="1"/>
        <pt x="12" y="617" on="1"/>
        <pt x="252" y="617" on="1"/>
        <pt x="252" y="665" on="1"/>
        <pt x="161" y="665" on="1"/>
        <pt x="161" y="721" on="1"/>
        <pt x="464" y="721" on="1"/>
        <pt x="464" y="665" on="1"/>
        <pt x="364" y="665" on="1"/>
        <pt x="364" y="617" on="1"/>
        <pt x="646" y="617" on="1"/>
        <pt x="646" y="455" on="1"/>
        <pt x="582" y="455" on="1"/>
        <pt x="582" y="539" on="1"/>
        <pt x="562" y="561" on="1"/>
        <pt x="364" y="561" on="1"/>
        <pt x="364" y="396" on="1"/>
        <pt x="384" y="399" on="0"/>
        <pt x="443" y="403" on="0"/>
        <pt x="466" y="403" on="1"/>
        <pt x="522" y="403" on="0"/>
        <pt x="627" y="388" on="0"/>
        <pt x="709" y="345" on="0"/>
        <pt x="759" y="268" on="0"/>
        <pt x="759" y="207" on="1"/>
        <pt x="759" y="148" on="0"/>
        <pt x="708" y="68" on="0"/>
        <pt x="622" y="19" on="0"/>
        <pt x="509" y="-3" on="0"/>
        <pt x="448" y="-3" on="1"/>
        <pt x="443" y="-3" on="0"/>
        <pt x="419" y="-2" on="0"/>
        <pt x="387" y="-1" on="0"/>
        <pt x="350" y="0" on="0"/>
        <pt x="332" y="0" on="1"/>
        <pt x="161" y="0" on="1"/>
        <pt x="161" y="56" on="1"/>
        <pt x="252" y="56" on="1"/>
        <pt x="252" y="561" on="1"/>
      </contour>
      <contour>
        <pt x="441" y="347" on="1"/>
        <pt x="413" y="347" on="0"/>
        <pt x="380" y="344" on="0"/>
        <pt x="364" y="341" on="1"/>
        <pt x="364" y="58" on="1"/>
        <pt x="378" y="55" on="0"/>
        <pt x="430" y="53" on="0"/>
        <pt x="444" y="53" on="1"/>
        <pt x="482" y="53" on="0"/>
        <pt x="551" y="68" on="0"/>
        <pt x="603" y="103" on="0"/>
        <pt x="634" y="163" on="0"/>
        <pt x="634" y="208" on="1"/>
        <pt x="634" y="248" on="0"/>
        <pt x="607" y="302" on="0"/>
        <pt x="557" y="334" on="0"/>
        <pt x="486" y="347" on="0"/>
      </contour>
    </TTGlyph>
    <TTGlyph name="afii10147" xMin="57" yMin="-12" xMax="773" yMax="712">
      <contour>
        <pt x="57" y="350" on="1"/>
        <pt x="57" y="428" on="0"/>
        <pt x="105" y="561" on="0"/>
        <pt x="196" y="658" on="0"/>
        <pt x="329" y="712" on="0"/>
        <pt x="414" y="712" on="1"/>
        <pt x="499" y="712" on="0"/>
        <pt x="633" y="658" on="0"/>
        <pt x="725" y="561" on="0"/>
        <pt x="773" y="428" on="0"/>
        <pt x="773" y="350" on="1"/>
        <pt x="773" y="272" on="0"/>
        <pt x="725" y="139" on="0"/>
        <pt x="633" y="42" on="0"/>
        <pt x="499" y="-12" on="0"/>
        <pt x="414" y="-12" on="1"/>
        <pt x="329" y="-12" on="0"/>
        <pt x="196" y="42" on="0"/>
        <pt x="105" y="139" on="0"/>
        <pt x="57" y="272" on="0"/>
      </contour>
      <contour>
        <pt x="182" y="349" on="1"/>
        <pt x="208" y="376" on="0"/>
        <pt x="262" y="409" on="0"/>
        <pt x="288" y="417" on="1"/>
        <pt x="310" y="424" on="0"/>
        <pt x="335" y="424" on="1"/>
        <pt x="364" y="423" on="0"/>
        <pt x="418" y="402" on="0"/>
        <pt x="471" y="377" on="0"/>
        <pt x="524" y="356" on="0"/>
        <pt x="553" y="356" on="1"/>
        <pt x="570" y="356" on="0"/>
        <pt x="625" y="360" on="0"/>
        <pt x="648" y="374" on="1"/>
        <pt x="645" y="434" on="0"/>
        <pt x="613" y="537" on="0"/>
        <pt x="553" y="613" on="0"/>
        <pt x="465" y="656" on="0"/>
        <pt x="405" y="656" on="1"/>
        <pt x="345" y="656" on="0"/>
        <pt x="260" y="609" on="0"/>
        <pt x="206" y="526" on="0"/>
        <pt x="182" y="416" on="0"/>
        <pt x="182" y="353" on="1"/>
      </contour>
      <contour>
        <pt x="299" y="344" on="1"/>
        <pt x="275" y="344" on="0"/>
        <pt x="211" y="331" on="0"/>
        <pt x="184" y="305" on="1"/>
        <pt x="188" y="249" on="0"/>
        <pt x="222" y="153" on="0"/>
        <pt x="282" y="83" on="0"/>
        <pt x="368" y="44" on="0"/>
        <pt x="424" y="44" on="1"/>
        <pt x="478" y="44" on="0"/>
        <pt x="560" y="87" on="0"/>
        <pt x="616" y="164" on="0"/>
        <pt x="646" y="268" on="0"/>
        <pt x="648" y="328" on="1"/>
        <pt x="618" y="300" on="0"/>
        <pt x="551" y="276" on="0"/>
        <pt x="525" y="276" on="1"/>
        <pt x="495" y="276" on="0"/>
        <pt x="438" y="297" on="0"/>
        <pt x="383" y="323" on="0"/>
        <pt x="327" y="344" on="0"/>
      </contour>
    </TTGlyph>
    <TTGlyph name="afii10148" xMin="0" yMin="0" xMax="773" yMax="700">
      <contour>
        <pt x="629" y="700" on="1"/>
        <pt x="773" y="700" on="1"/>
        <pt x="773" y="574" on="1"/>
        <pt x="661" y="574" on="1"/>
        <pt x="457" y="0" on="1"/>
        <pt x="346" y="0" on="1"/>
        <pt x="86" y="644" on="1"/>
        <pt x="0" y="644" on="1"/>
        <pt x="0" y="700" on="1"/>
        <pt x="307" y="700" on="1"/>
        <pt x="307" y="644" on="1"/>
        <pt x="211" y="644" on="1"/>
        <pt x="391" y="177" on="1"/>
        <pt x="420" y="82" on="1"/>
        <pt x="424" y="82" on="1"/>
        <pt x="454" y="179" on="1"/>
      </contour>
    </TTGlyph>
    <TTGlyph name="afii10193" xMin="43" yMin="-199" xMax="635" yMax="525">
      <contour>
        <pt x="390" y="525" on="1"/>
        <pt x="635" y="525" on="1"/>
        <pt x="635" y="475" on="1"/>
        <pt x="561" y="475" on="1"/>
        <pt x="561" y="50" on="1"/>
        <pt x="635" y="50" on="1"/>
        <pt x="635" y="0" on="1"/>
        <pt x="379" y="0" on="1"/>
        <pt x="379" y="-199" on="1"/>
        <pt x="299" y="-199" on="1"/>
        <pt x="299" y="0" on="1"/>
        <pt x="43" y="0" on="1"/>
        <pt x="43" y="50" on="1"/>
        <pt x="117" y="50" on="1"/>
        <pt x="117" y="475" on="1"/>
        <pt x="43" y="475" on="1"/>
        <pt x="43" y="525" on="1"/>
        <pt x="288" y="525" on="1"/>
        <pt x="288" y="475" on="1"/>
        <pt x="222" y="475" on="1"/>
        <pt x="222" y="50" on="1"/>
        <pt x="456" y="50" on="1"/>
        <pt x="456" y="475" on="1"/>
        <pt x="390" y="475" on="1"/>
      </contour>
    </TTGlyph>
    <TTGlyph name="afii10194" xMin="27" yMin="-4" xMax="617" yMax="750">
      <contour>
        <pt x="309" y="475" on="1"/>
        <pt x="309" y="312" on="1"/>
        <pt x="327" y="314" on="0"/>
        <pt x="376" y="320" on="0"/>
        <pt x="421" y="320" on="1"/>
        <pt x="513" y="320" on="0"/>
        <pt x="617" y="246" on="0"/>
        <pt x="617" y="167" on="1"/>
        <pt x="617" y="125" on="0"/>
        <pt x="583" y="62" on="0"/>
        <pt x="522" y="18" on="0"/>
        <pt x="438" y="-4" on="0"/>
        <pt x="387" y="-4" on="1"/>
        <pt x="357" y="-4" on="0"/>
        <pt x="277" y="0" on="0"/>
        <pt x="234" y="0" on="1"/>
        <pt x="130" y="0" on="1"/>
        <pt x="130" y="50" on="1"/>
        <pt x="204" y="50" on="1"/>
        <pt x="204" y="475" on="1"/>
        <pt x="111" y="475" on="1"/>
        <pt x="91" y="455" on="1"/>
        <pt x="91" y="350" on="1"/>
        <pt x="27" y="350" on="1"/>
        <pt x="27" y="525" on="1"/>
        <pt x="204" y="525" on="1"/>
        <pt x="204" y="700" on="1"/>
        <pt x="118" y="700" on="1"/>
        <pt x="118" y="750" on="1"/>
        <pt x="309" y="750" on="1"/>
        <pt x="309" y="525" on="1"/>
        <pt x="505" y="525" on="1"/>
        <pt x="505" y="380" on="1"/>
        <pt x="441" y="380" on="1"/>
        <pt x="441" y="455" on="1"/>
        <pt x="421" y="475" on="1"/>
      </contour>
      <contour>
        <pt x="309" y="47" on="1"/>
        <pt x="323" y="46" on="0"/>
        <pt x="353" y="43" on="0"/>
        <pt x="367" y="43" on="1"/>
        <pt x="431" y="43" on="0"/>
        <pt x="504" y="103" on="0"/>
        <pt x="504" y="168" on="1"/>
        <pt x="504" y="198" on="0"/>
        <pt x="484" y="238" on="0"/>
        <pt x="450" y="262" on="0"/>
        <pt x="404" y="273" on="0"/>
        <pt x="379" y="273" on="1"/>
        <pt x="362" y="273" on="0"/>
        <pt x="326" y="271" on="0"/>
        <pt x="309" y="268" on="1"/>
      </contour>
    </TTGlyph>
</ttFont>
